<?xml version="1.0" encoding="UTF-8"?>
<!DOCTYPE svg PUBLIC "-//W3C//DTD SVG 1.1//EN" "http://www.w3.org/Graphics/SVG/1.1/DTD/svg11.dtd">
<!-- Creator: CorelDRAW 2020 (64-Bit) -->
<svg xmlns="http://www.w3.org/2000/svg" xml:space="preserve" width="324mm" height="53.001mm" version="1.1" style="shape-rendering:geometricPrecision; text-rendering:geometricPrecision; image-rendering:optimizeQuality; fill-rule:evenodd; clip-rule:evenodd"
viewBox="0 0 32400 5300.1"
 xmlns:xlink="http://www.w3.org/1999/xlink"
 xmlns:xodm="http://www.corel.com/coreldraw/odm/2003">
 <defs>
  <style type="text/css">
   <![CDATA[
    .fil0 {fill:#104788}
    .fil1 {fill:#F5A509}
   ]]>
  </style>
 </defs>
 <g id="Слой_x0020_1">
  <metadata id="CorelCorpID_0Corel-Layer"/>
  <g id="_1791204298752">
   <path class="fil0" d="M373.3 1320.82c0,25.49 16.79,25.05 38.44,37.76 107.66,63.22 715.38,427.91 757.43,427.91 34.7,0 167.37,-206.36 193.47,-238.33 12.27,-15.03 18.32,-19.34 31.51,-36.22 53.71,-68.72 190.13,-194.43 264.28,-243.72 32.96,-21.92 57.66,-38.69 91.41,-60.99 245.77,-162.38 607.55,-258.94 900.99,-258.94 457.12,0 881.05,189.39 1204.6,497.21 22.85,21.74 28.55,31 47.21,54.38 47.76,59.82 71.26,72.02 145.17,176.57 54.03,76.41 115.61,176.73 153.65,269.69 41.02,100.24 82.08,199.84 106.8,316.53 107.36,506.83 14.15,946.89 -258.65,1354.4 -172.43,257.59 -416.36,442.54 -690.29,579.7 -185.9,93.08 -449.3,155.12 -716.95,155.12 -355.52,0 -663.27,-129.12 -887.41,-264.06 -107.71,-64.85 -283.24,-190.21 -357.21,-286.25 -47.04,-61.07 -204.53,-271.78 -228.58,-287.89l-502.45 284.96c-54.8,29.95 -285.07,157.75 -301.89,180.71 27.14,116.49 274.77,395.69 366.56,505.5 106.58,127.5 339.41,298.67 480.02,392.05 354.44,235.4 898.87,423.25 1329.36,423.25 409.3,0 627.8,-20.98 1010.7,-157.7 78.72,-28.11 157.09,-57.51 228.32,-93.41 73.98,-37.3 134.54,-68.53 205.88,-107.39l289.6 -193c91.57,-68.51 176.2,-144.23 257.29,-225.32l110.45 -118.14c207.83,-247.17 262.08,-319.93 418.11,-631.76 46.63,-93.2 102.27,-245.82 131.51,-351.09 5.22,-18.78 11.88,-34.86 18.18,-58.02 206.02,-758.15 62.35,-1627.72 -393.79,-2245.43 -163.54,-221.47 -333.73,-405.34 -553.79,-572.27 -161.74,-122.68 -315.8,-215.44 -500.33,-304.01 -36.89,-17.71 -75.08,-34.55 -111.68,-49.18l-237.34 -84.4c-273.79,-84.64 -494.62,-109.02 -805.38,-109.02 -570.49,0 -1013.98,192.14 -1371.22,406.78 -114.16,68.6 -212,153 -314.91,235.42 -22.09,17.7 -34.66,35.69 -56.75,53.33 -56.01,44.72 -195.46,191.76 -245.55,253.98 -49.83,61.9 -246.77,290.9 -246.77,371.29z"/>
   <path class="fil0" d="M29033.02 3979.36c0,19.51 5.89,25.4 25.4,25.4l702.73 0c0,-211.62 -10.59,-377.42 -16.66,-584.48l-29.24 -571.88c-9.7,-64.07 -7.74,-170.01 -12.92,-232.62 -6.18,-74.63 5.29,-161.55 -0.89,-236.18 -16.94,-204.7 -7.08,-257.01 8.91,-449.18l653.01 1954.73c18.96,56.88 27.12,119.61 58.19,119.61l592.67 0c29.95,0 39.62,-58.76 55.59,-113.75 9.48,-32.67 12.53,-35.91 21.63,-63.04 7.32,-21.84 12.43,-45.97 21.09,-72.03l604.43 -1825.52c14.27,9.92 16.93,1.22 16.93,25.4l-2.31 446.42c-7.86,57.31 -6.15,308.64 -18.2,388.21 -9.89,65.38 0.11,136.5 -9.78,201.88 -8.62,56.95 -4.78,138.69 -10.81,192.4 -3.45,30.74 -0.92,69.04 -0.95,100.65 -0.03,48.98 -7.73,57.66 -9.03,101.03l-8.19 618.35 719.67 0 0 -2709.34 -1143 -8.47c-58.86,0 -134.03,340.7 -152.4,406.41l-250.34 867.26c-21.23,75.07 -40.7,145.94 -61.92,217.48 -21.78,73.47 -30.66,148.64 -77.21,202.19l-200.15 -621.12c-88.52,-300.55 -252.17,-788.43 -316.32,-1063.75 -153.58,0 -277.7,-8.47 -431.8,-8.47l-728.13 0 0 2692.41z"/>
   <path class="fil0" d="M27542.88 3403.62c-178.63,0 -453.81,20.19 -539.31,-138.02 -64.26,-118.9 -61.82,-300.13 -61.82,-446.18 0,-196.66 -22.69,-672.1 63.89,-799.71 93.62,-137.99 353.1,-123.15 528.77,-123.15 365.57,0 423.43,131.97 423.34,465.66l9.9 430.76c6.57,56.53 -2.13,69.64 -1.52,136.42 0.84,91.79 -14.51,187.19 -38.81,257.53 -55.23,159.82 -175.01,216.69 -384.44,216.69zm-1354.67 -1024.46c0,108.52 -7.64,365.3 2.32,437.95 13.06,95.35 -3.63,220.8 7.36,322.84 21.54,200.02 56.46,340.72 156.86,503.54 159.4,258.5 509.23,403.6 925.66,403.6 258.11,0 460.6,0.31 710.66,-51.35 318.2,-65.73 544.99,-215.21 649.51,-527.35 96.35,-287.77 70.7,-820.75 70.7,-1148.5 0,-389.51 -84.76,-664.45 -303.38,-839.62 -49.76,-39.86 -118.37,-77.67 -183.97,-103.9 -37.55,-15.02 -71.2,-25.66 -106.35,-37.58 -318.16,-107.95 -858.62,-102.04 -1183.75,-34.35 -608.88,126.77 -745.62,482.65 -745.62,1074.72z"/>
   <path class="fil0" d="M18678.26 3081.89c0,166.13 -40.4,347.13 -203.2,347.13l-203.06 -8.91c-47.58,-0.72 -77.19,-11.61 -84.92,25.73 -2.84,13.74 0.11,90.07 0.12,110.18 0.04,146.76 0,293.52 0,440.27 61.91,5.15 104.75,42.34 304.8,42.34 103.13,0 221.33,-13.6 305,-33.67 96.53,-23.15 167.74,-56.17 240.45,-106.69 51.02,-35.44 90.46,-76.08 129.97,-124.02 188.06,-228.13 212.3,-610.89 213.64,-904.08 0.3,-66.61 -9.01,-96.17 -8.64,-160.7l-8.35 -652.05c0,-56.31 8.46,-73.29 8.46,-127 42.93,0 46.13,-8.46 93.14,-8.46l677.33 0 0 1092.2c0,339.49 8.47,651.3 8.47,990.6l719.67 0 8.46 -2717.81 -2201.34 0 0 1794.94z"/>
   <path class="fil0" d="M23665.14 3996.29l728.14 8.47 0 -1058.34c279.39,0 208.11,-21.72 282.73,89.8l417.59 598.42c26.03,34.65 45.91,64.31 71.33,97.99 236.53,313.4 174.61,272.13 405.21,272.13 225.78,0 451.56,0 677.34,0 -11.57,-49.64 -82.42,-136.42 -114.95,-181.39 -24.46,-33.83 -38.85,-56.14 -64.86,-87.53 -24.22,-29.22 -40.81,-58.21 -64.56,-87.85l-520.04 -682.22c-49.41,-65.82 -227.83,-300.83 -243.13,-366.48l581.82 -815.18c41.77,-55.84 74.71,-106.23 116.04,-163.37 18.2,-25.16 225.22,-302.86 233.48,-333.79l-863.6 0c-23.47,44.36 -56.68,85 -84.67,127 -29.91,44.9 -56.42,85.05 -89.56,130.58 -16.62,22.83 -25.06,37.15 -40.78,60.82l-441.74 642c-52.75,73.8 -9.49,55.61 -249.19,55.61l-8.46 -1016.01 -728.14 0 0 2709.34z"/>
   <path class="fil0" d="M7324.44 2116.69l0 76.2 745.07 0c0,-86.95 42.28,-216.76 117.02,-272.45 70.74,-52.71 238.29,-74.57 322,-64.99 146.24,16.74 207.58,5.34 316.41,73.08 134.61,83.81 142.04,205.55 142.04,340.56 0,48.53 -13.52,60.55 -16.93,101.6l-610.1 -0.5c-35.95,-0.57 -67.24,-8.37 -67.24,25.9l0 482.6 677.34 0c6.13,73.72 16.93,48.08 16.93,177.8 0,127.8 -63.83,244.86 -138.84,301.42 -116.93,88.17 -264.29,88.05 -428.43,88.05 -288.08,0 -330.2,-155.54 -330.2,-423.34l-745.07 0c0,61.32 -8.46,84.8 -8.46,143.94 0,273.35 55.77,510.44 255.91,675.42 273.28,225.29 743.04,196.65 1115.69,196.65 169.34,0 336.85,-24.1 472.46,-60.95 640.39,-174.01 552.01,-872.29 552.01,-1547.72 0,-392.02 -33,-846.98 -406.39,-1032.95 -267.91,-133.43 -550.83,-135.46 -863.61,-135.46 -308.37,0 -581.32,88.93 -765.47,216.67 -88.67,61.51 -182.17,158.85 -238.63,252.44 -55.12,91.36 -113.51,244.53 -113.51,386.03z"/>
   <path class="fil0" d="M11236.05 2658.56l-237.07 0c-87.76,0 -141.99,-8.47 -228.6,-8.47l0 -762c165.01,0 602.11,-47.83 729.8,57.61 111.35,91.94 114,543.21 13.67,643.52 -58.18,58.17 -190.94,69.34 -277.8,69.34zm-1193.8 1337.73c53.71,0 70.69,8.47 127,8.47l592.67 0 8.46 -745.07c48.94,0 77.6,-7.77 135.75,-8.18 50.69,-0.36 82.69,-8.75 143.65,-8.75 335.51,0 738.5,47.61 961.78,-88.09 114.29,-69.47 184.11,-165.38 237,-296.4 65.3,-161.75 77.17,-384.83 88.26,-572.26l-29 -377.49c-90.71,-552.03 -478.01,-621.57 -987.1,-621.57l-1278.47 0 0 2709.34z"/>
   <path class="fil0" d="M16002.79 3361.29l0 635 1981.21 8.47 0 -575.74c0,-19.5 -5.89,-25.4 -25.4,-25.4l-1227.67 0 0 -516.46 1126.07 0c19.51,0 25.4,-5.89 25.4,-25.4l0 -482.6 -1151.47 -8.47 0 -482.6c140.36,0 254.72,-7.79 397.99,-8.52 73,-0.38 117.08,8.62 194.67,8.52l508.01 0c56.31,0 73.29,-8.47 127,-8.47l0 -584.2 -575.74 -16.93c-167.18,0 -892.32,-7.75 -1025.7,7.23 -82.62,9.27 -262.34,-8.94 -337.27,9.86 -41.56,10.43 -25.58,31.59 -25.56,143.78l8.46 1921.93z"/>
   <path class="fil0" d="M21277.54 1295.42l0 2700.87 1981.2 8.47 0 -601.14 -1253.07 0 0 -516.46 1151.47 0 0 -508c-176.03,0 -323.07,-8.47 -499.53,-8.47l-651.94 0 0 -482.6 1168.4 0c29.19,0 32.79,-6.26 59.27,-8.47 0,-98.78 0,-197.55 0,-296.33 0,-107.2 8.47,-182.38 8.47,-287.87l-524.94 -16.93c-180.58,0 -991.42,-8.98 -1135.77,7.23l-303.56 9.7z"/>
   <path class="fil0" d="M13564.39 1651.02c0,59.77 6.21,97.2 8.45,143.95 2.1,43.79 -7.88,126.99 33.88,126.99l694.27 0 0 2074.33 728.13 8.47 0 -2082.8 719.67 0c4.86,-58.38 16.94,-99.13 16.94,-169.34l0 -372.53c0,-47.01 -8.47,-50.21 -8.47,-93.14l-2184.4 0c0,132.25 -8.47,233.74 -8.47,364.07z"/>
   <path class="fil1" d="M195.5 3623.76c834.59,-481.44 834.05,-482.45 1667.93,-965.2 -833.89,-486.96 -833.49,-487.76 -1667.93,-973.67 -292.66,437.03 -242.8,1479.95 0,1938.87z"/>
   <path class="fil0" d="M1880.37 2633.16c0,159.22 48.02,315.9 128.47,438.8 28.48,43.5 55.57,67.32 86.69,108.03l97.9 88.37c492.64,377.89 1227.87,9.08 1227.87,-601.34 0,-115.46 -26.3,-236.15 -64.85,-316.14 -11.09,-23.02 -18.2,-41.64 -29.92,-63.22 -76.87,-141.44 -194.44,-256.99 -337.51,-331.35 -295.31,-153.5 -645.2,-59.28 -873.65,141.38 -16.91,14.85 -30.81,29.47 -45.17,47.96 -113.22,145.87 -189.83,258.83 -189.83,487.51z"/>
   <path class="fil1" d="M12658.45 2641.62c0,97.57 49.91,205.46 99.3,256.31 239.7,246.79 611.9,62.67 611.9,-213.97l0 -42.34c0,-176.9 -139.9,-347.13 -313.26,-347.13 -223.41,0 -397.94,135.72 -397.94,347.13z"/>
  </g>
 </g>
</svg>
