<?xml version="1.0" encoding="UTF-8"?>
<!DOCTYPE svg PUBLIC "-//W3C//DTD SVG 1.1//EN" "http://www.w3.org/Graphics/SVG/1.1/DTD/svg11.dtd">
<!-- Creator: CorelDRAW 2020 (64-Bit) -->
<svg xmlns="http://www.w3.org/2000/svg" xml:space="preserve" width="188mm" height="53mm" version="1.1" style="shape-rendering:geometricPrecision; text-rendering:geometricPrecision; image-rendering:optimizeQuality; fill-rule:evenodd; clip-rule:evenodd"
viewBox="0 0 18800 5300"
 xmlns:xlink="http://www.w3.org/1999/xlink"
 xmlns:xodm="http://www.corel.com/coreldraw/odm/2003">
 <defs>
  <style type="text/css">
   <![CDATA[
    .fil0 {fill:#1D3557}
   ]]>
  </style>
 </defs>
 <g id="Слой_x0020_1">
  <metadata id="CorelCorpID_0Corel-Layer"/>
  <path class="fil0" d="M685.68 2812.64c20.5,15.02 86.2,185.17 102.3,222.82l188.21 381.95c93.06,184.83 266.68,422.42 393.42,591.41l111.2 133.81c28.8,28.47 53.68,54.13 82.39,82.53l86.45 78.47c17.79,13.73 71.11,66.41 82.1,82.83 -61.14,-14.25 -164.33,-79.66 -210.75,-114.39l-181.62 -148.21 -162.26 -162.88c-7.97,-9.52 -7.7,-11.42 -16.65,-21.04 -184.91,-198.75 -318.94,-449.22 -398.82,-708.51l-36.33 -128.59c-19.15,-87.57 -39.64,-187.62 -39.64,-290.2zm2058.45 2087.43l-199.97 0c-74.83,-3.32 -148.78,-10.45 -220.68,-21.57 -120.72,-18.68 -225.05,-38.71 -336.7,-73.25 -125.76,-38.92 -248.83,-88.86 -367.6,-146.01l-110.35 -59.28c-58.11,-32.34 -111.24,-70.65 -166.31,-106.99 -54.93,-36.25 -103.25,-78.47 -154.67,-118.64l-175.77 -168.2c-13.57,-13.06 -22.16,-16.34 -35.6,-30.38 -56.19,-58.66 -105.3,-125.17 -154.16,-189.82 -89.47,-118.38 -163.51,-250.81 -227.8,-384.75l-41.51 -95.14c-12.47,-30.75 -25.69,-66.24 -37.57,-99.09 -23.21,-64.24 -46.97,-136.91 -63.47,-209.83 -56.46,-249.7 -67.86,-350.78 -67.86,-624.8 0,-205.52 46.63,-393.36 98.95,-584.29 28,-102.21 74.63,-194.88 113.75,-291.49 43.16,-106.61 135.08,-256.22 201.24,-345.36 48.91,-65.9 95.67,-132.42 152.77,-191.2 12.93,-13.32 16.64,-21.74 30.47,-35.5l246.35 -229.56c13.45,-10.24 21.02,-18.41 36.26,-29.72 188.08,-139.72 392.1,-260.66 615.66,-336.17l210.39 -62.92c218.42,-56.43 386.03,-66.04 612.48,-66.04 183.7,0 424.86,40.12 595.55,97.12 20.52,6.86 32.77,10.49 53.63,17.05 14.02,4.4 33.39,12.08 48.8,17.17 130.28,43.01 260.89,104.88 376.64,174.67 99.91,60.25 195.67,125.53 286.08,199.26 105.52,86.06 226.13,200.73 309.42,307.85 92.32,118.75 148.67,200.02 225.03,326.28l71.38 135.96c8.48,16.82 12.17,28.77 20.33,45.64 29.98,61.95 56.79,129.79 80.01,198 50,146.89 83.24,290.65 105.13,446.18 25.77,183.12 25.48,395.44 -0.56,578.51 -21.55,151.49 -56.32,299.49 -105.74,440.85 -11.99,34.28 -23.88,65.4 -37.46,99.2l-88.45 189.56c-44.34,88.69 -97.6,176.69 -153.91,256.03l-243.77 302.83c-24.06,25 -46.16,45.98 -70.71,70.65 -55,55.29 -161.35,141.7 -224.6,185.35 -28.72,19.82 -51.62,36 -81.04,55.61 -112.96,75.32 -234.07,139.4 -361.34,189.97 -103.87,41.28 -198.3,73.58 -308.69,101.25 -143.88,36.08 -298.63,58.27 -454.03,65.01zm-2006.62 -2544.51c17.61,20.27 13.51,19.88 26.77,43.92l80.7 131.34c45.11,70.3 93.35,148.29 142.98,215.13 74.71,100.6 128,183.6 214.57,289.62 11.69,14.31 19.2,25.68 30.82,39.86l329.21 377.6c0.62,0.75 1.52,1.82 2.14,2.57l184.78 182.76c62.02,57.37 121.14,118.52 187.59,170.52 104.14,81.51 156.99,131.75 282.02,222.17 57.45,41.57 111.02,77.35 170.46,116.98 97.28,64.86 262.8,161.56 363.14,211.72l290.58 138.22c22.57,11.32 82.04,35.37 97.38,48.7 -22.3,5.19 -50.25,24.87 -113.08,28.33 -89.3,4.93 -242.1,-75.38 -322.64,-115.65 -130.81,-65.41 -250.22,-133.4 -373.28,-206.3l-174.88 -112.56c-119.94,-79.95 -186.93,-132.36 -295.15,-213.75l-468.44 -440.98c-28.13,-35.25 -81.37,-88.93 -117.15,-137.3 -68.38,-92.43 -153.75,-196.23 -213.17,-295.73 -102.55,-171.74 -174.71,-275.93 -255.4,-474.96 -16.05,-39.61 -69.95,-175.66 -69.95,-222.21zm0 0l-5.42 -9.18 5.42 9.18zm65.96 -367.53c0,-64.19 83.86,-232.37 112.18,-278.92l73.05 -124.87c8.54,-14.19 10.39,-14.59 19.36,-27.76 45.84,-67.25 93.6,-135.5 147.72,-196.26 80.01,-89.81 135.96,-140.95 223.78,-219.15 48.06,-42.79 146.75,-113.63 198.68,-145.3 165.21,-100.72 355.5,-191.27 547.39,-239.53 432.1,-108.66 830.55,-104.77 1246.58,67.25 251.15,103.83 458.12,245.05 646.06,432.99 20.75,20.76 38.41,38.01 58.99,58.81l54.33 63.47c66.46,78.58 94.5,114.89 154.08,204.03 16.21,24.23 32.14,49.6 47.41,75.12 59.3,99.1 114.12,212.65 154.54,321.36 31.95,85.93 60.4,188.2 78.77,279.35 7.41,36.78 12.5,67.89 17.01,105.5 55.04,458.64 -16.66,889.79 -251.54,1281.61l-57.56 93.22c-22.44,30.69 -40.05,57.99 -62.63,88.17 -61.47,82.17 -84.01,98.46 -138.47,163.09l-6.4 7.74c-39.83,47.64 -189.4,175.17 -230.76,207.46 -118.54,92.56 -158.77,36.99 -349.73,-23.25l-474.21 -176.06c-39.04,-16.84 -71.75,-33.15 -110.41,-49.79 -39.39,-16.96 -75.01,-33.09 -112.87,-52.05 -173.39,-86.84 -358.65,-183.32 -519.85,-290.63 -16.92,-11.26 -30.89,-18.89 -48.46,-31.64 -78.21,-56.77 -151.5,-102.89 -240.36,-169.58 -63.16,-47.4 -120.85,-93.57 -180.98,-144.16 -15.8,-13.31 -27.59,-23.83 -42.76,-37.34 -9.37,-8.35 -11.68,-8.3 -21.09,-16.61 -8.49,-7.51 -12.78,-13.62 -21.28,-21.13 -9.37,-8.28 -11.73,-8.29 -21.13,-16.56 -69.69,-61.37 -163.04,-158.47 -228.57,-223.79 -7.19,-7.17 -12.14,-11.48 -18.91,-18.79 -9.4,-10.17 -9.97,-13.53 -18.82,-23.59l-77.24 -82.97c-81.26,-101.45 -138.97,-164.16 -216.08,-273.97l-281.19 -449.17c-16.75,-30.17 -48.63,-73.82 -48.63,-116.3zm11290.06 1112.04l-5.13 137.04c-0.07,17.57 -3.66,32.6 14.55,32.6l301.58 0c14.85,0 26.09,-24.94 33.93,-36.76l260.94 -384.61c57.37,-78.81 88.11,-128.45 153.43,-209.39 12.82,-15.88 20,-26.95 37.04,-38.36l0 664.4 339.27 4.72 4.7 -1234.56 -320.39 -5.84c-7.62,0.34 -54.57,71.06 -61.3,81.21 -102.33,154.53 -221.95,315.79 -323.26,468.37l-82.99 119.62c-4.31,5.8 -4.58,6.08 -8.39,10.46l-4.71 -678.54 -339.27 0 0 1069.64zm-2478.54 -447.65c0,-135.03 58.79,-254.62 184.37,-305.68 92.14,-37.47 167.81,-38.65 257.98,-0.01 31.81,13.62 61.15,36.37 84.93,61.15 0.22,0.23 5.25,5.94 6.66,7.47 29.59,32.36 45.83,54 64.49,95.71 87.63,195.85 -30.67,471.21 -278.01,471.21l-23.56 0c-169.72,0 -296.86,-158.42 -296.86,-329.85zm-358.1 -14.13c0,274.36 147.09,480.79 362.82,589 250.19,125.51 590.14,72.05 785.73,-123.68 197.45,-197.6 239.3,-458.24 133.79,-715.74 -19.45,-47.49 -57.08,-106.03 -89.46,-146.14 -42.17,-52.24 -111.49,-110.99 -170.53,-145.17 -16.71,-9.68 -34.51,-17.42 -53.24,-26.86 -109.96,-55.47 -199.28,-62.82 -323.57,-62.82 -97.24,0 -185.56,29.6 -256.47,59.23 -103.5,43.23 -201.94,123.72 -268.59,212.04 -70.46,93.36 -120.48,230.61 -120.48,360.14zm5272.77 -593.72l0 1220.42c60.56,0 103.89,4.72 164.92,4.72l179.06 0 4.71 -466.5 329.15 -0.69c22.35,-2.51 51.87,-5.91 81.39,-4.63 29.63,1.3 23.16,4.35 22.97,61.86l-0.01 339.27c-0.01,22.02 -8.87,70.69 14.14,70.69l329.84 0 4.71 -1239.28 -343.97 0 -4.72 457.07c-60.56,0 -103.89,4.72 -164.92,4.72l-268.58 0 0 -442.93c0,-22.49 -38.2,-14.15 -80.11,-14.14l-231.16 -4.98c-20.01,-0.33 -37.42,-4.67 -37.42,14.4zm2652.88 956.55l-19.25 216.43c-5.34,61.06 -11.8,43.1 56.1,53 100.47,14.63 258.12,21.44 342.16,-36.5 42.45,-29.26 67.25,-63.56 94.31,-108.3 137.43,-227.31 112.11,-770.92 116.65,-783.72 5.61,-15.82 18.08,-6.77 36.54,-5.45l249.93 4.85 0 640.84c0,101.33 4.71,186.34 4.71,287.44l339.26 0 0 -1239.28 -937.69 0c-23.17,0 -12.17,36.02 -14.84,60.57 -8.45,78.1 2.2,175.58 -5.29,230.3 -5.71,41.59 -3.43,102.55 -3.43,152.07 0,110.24 -15.64,461.64 -114.42,512.28 -34.47,17.66 -65.83,8.56 -107.07,10.73 -21.03,1.1 -17.2,4.28 -37.67,4.74zm-10950.79 -551.31c1.52,18.35 77.79,214.88 90.9,248.36 10.58,27.03 19.44,58.47 31.61,81.48l-198.07 0.16c-29.14,-0.04 -36.42,-4.87 -65.8,-4.87 24.85,-46.97 120.39,-309.77 141.36,-325.13zm-697.38 819.9l358.12 0 89.52 -216.76c164.08,0 312.5,-4.72 475.92,-4.72l89.53 221.48 367.54 0 -495.44 -1182.06c-19.77,-47.91 -19.59,-66.64 -46.45,-66.64l-301.57 0c-17.03,0 -24.59,36 -39.3,69.08l-166.04 389.98c-32.07,76.35 -330.06,768.37 -331.83,789.64zm10903.66 -824.61c13.3,9.74 13.1,19.19 20.47,36.06l82.6 209.56c11.21,31.15 20.75,54.07 28.87,88.93 -43.98,0 -87.97,-0.1 -131.95,0 -48.19,0.12 -81.23,-4.71 -131.92,-4.71 11.42,-23.82 22.49,-56.55 32.26,-80.83 13.93,-34.62 98.02,-229.2 99.67,-249.01zm-687.95 824.61c54.16,0 116.51,-2.9 169.65,-0.03 189.62,10.24 192.41,15.58 232.63,-97.17 15.68,-43.96 30.18,-81.97 50.07,-119.56 78.54,0 157.07,0 235.6,0 84.18,0 155.43,-4.72 235.6,-4.72l67.97 162.94c7.29,17.37 19.98,39.41 21.57,58.54l367.53 0c-3.31,-14.24 -8.86,-22.73 -14.8,-37.04l-373.57 -893.96c-22.44,-53.43 -44.55,-101.57 -66.03,-155.45l-63.92 -157.54c-35.95,0 -52.55,-4.71 -89.52,-4.71l-235.61 0c-15.04,0 -15.95,15.22 -21.6,30.24l-116.66 274.43c-89.7,201.66 -176.82,424.82 -266.85,628.44 -11.29,25.52 -20.35,49.84 -31.81,76.58l-67.4 158.77c-9.24,21.07 -27.67,57.98 -32.85,80.24zm-7298.96 -626.71l4.71 -320.41c90.77,0 225.65,-26.39 308.16,49.95 43.86,40.56 52.77,109.85 34.32,165.3 -18.96,57.02 -70.24,88.84 -133.18,102.42l-105.5 12.34 -108.51 -9.6zm-343.97 -612.57l0 1239.28 339.26 0c0,-33.07 4.97,-45.96 4.78,-80.05l-0.07 -268.65c37.21,-8.67 85.71,-9.43 131.94,-9.42 130.91,0.01 256.21,-4.07 367.32,-70.9 255.34,-153.54 285.13,-543.95 27.62,-719.85 -161.72,-110.47 -407.27,-95.12 -621.12,-95.12 -88.87,0 -161.15,4.71 -249.73,4.71zm3223.03 1262.83c157.42,0 253.41,-4.73 395.62,-89.73 48.47,-28.96 70.76,-53.51 109.29,-83.89 31.49,-24.82 66.01,-79.64 84.1,-113.81 -47.67,-25.22 -83.38,-54.25 -125.89,-86.16 -31.05,-23.31 -94.9,-74.53 -133.28,-83.48 -14.58,9.78 -12.53,11.12 -22.88,24.25 -80.42,102 -249.1,152.51 -377.72,88.92 -72.65,-35.9 -117.66,-83.39 -146.07,-160.21 -57.58,-155.67 -13.54,-362.28 149.21,-439.94 101.94,-48.66 188.96,-38.23 282.48,17.68 40.96,24.5 75.9,62.47 110.27,92.34 42.64,-22.56 89.06,-60.18 126.58,-90.18l91.38 -73.53c11.08,-10.13 27.06,-15.17 27.06,-29.48 0,-19.25 -63.72,-87.12 -79.4,-99.66 -111.64,-89.36 -234.71,-159.5 -387.09,-159.5 -136.98,0 -204.34,2.95 -333.63,62.17 -69.49,31.83 -131.18,75.12 -183.51,127.48 -121,121.07 -174.24,260.95 -185.04,441.79l12.95 142.61c46.91,245.84 214.97,419.2 449.46,488.24 34.56,10.16 93.8,24.09 136.11,24.09zm-8396.86 -1234.55c-31.38,-7.31 -106.54,-54 -135.7,-71.63 -35.25,-21.29 -103.78,-54.94 -147.02,-65.02 -27.71,20.3 -64.37,88.55 -70.59,132.03 -8.77,61.31 4.18,137.66 4.81,188.2 1.13,92.18 -13.93,113.55 44.21,158.41l213.6 191.63c41.06,37.65 99.7,25.2 164.64,16.24 59.84,-8.27 126.08,-6.9 181.54,-21.06 55.88,-14.28 112.05,-63.59 112.05,-95.29 0,-36.58 -92.17,-151.19 -121.17,-189.83 -20.98,-27.94 -27.34,-33.6 -43.76,-64.62l236.77 45.95c119.06,24.19 93.88,36.93 223.63,-118.02 142.72,-170.46 177.54,-119.25 1.43,-347.35 -33,-42.74 -108.08,-115.21 -149.68,-151.88l-40.81 -34.59c-89.98,-70.71 -194.37,-152.45 -307.37,-182.7 -14.34,-3.84 -18.29,-2.16 -29.93,-7.75 -7.7,11.5 -15.24,22.29 -23.51,33.04l-170.9 191.92c-72.47,81.13 -41.39,82.31 0.62,209.15 14.16,42.77 53.87,143.83 57.14,183.17zm10526.7 1206.28c57.47,0 97.53,4.72 155.5,4.72l188.48 0 0 -692.68c0,-85.76 4.72,-154.84 4.72,-240.31l527.74 0c22.69,0 14.17,-44.41 14.14,-65.96l4.71 -240.33 -895.29 0 0 1234.56zm-6422.51 4.72l339.26 0c0,-60.57 4.72,-103.9 4.72,-164.93l0 -763.35c50.49,0 85.15,-4.9 131.92,-4.73l348.86 0.17c24.95,-0.74 35.59,-4.86 65.81,-4.86l0 -287.44c0,-10.86 -3.28,-14.14 -14.13,-14.14l-876.44 0 0 1239.28zm-4259.69 -1394.77c-4.48,-53.8 -107.93,-346.93 -128.6,-399.14 -58.63,-148.11 -33.31,-191.26 -131.1,-222.31 -45.85,-14.55 -96.71,-23.82 -141.4,-37.66 -46.77,-14.48 -90.87,-29.12 -136.63,-42.43 -34.96,-10.18 -106.78,-32.68 -145.52,-33.54l377.65 503.51c35.6,47.45 117.67,167.7 164.46,193.66 25.37,14.07 101.96,37.91 141.14,37.91zm1371.21 1079.05c-1.54,-18.41 -92.16,-220.63 -102.33,-246.36l-78.33 -185.54c-16.33,-37.24 -3.67,-34.94 -45.32,-44.21l-513.42 -99.15c-20.33,-4.06 -54.25,-13.26 -75.78,-13.74 1.98,23.95 41.75,90.96 53.8,120.54 21.49,52.73 47.81,57.09 92.57,81.77l224.39 129.02c74.36,44.59 145.38,84.16 220.24,128.45l224.18 129.22zm-1097.91 -249.73c0,58.19 35.16,364.14 68.27,388.8 25.7,19.13 338.94,58.84 402.94,58.84 -41.42,-78.26 -84.36,-131.8 -125.7,-199.44l-161.74 -257.63c-64.9,0 -121.09,9.43 -183.77,9.43zm-574.87 -508.9l-9.43 -179.06 -241.85 -116.25c-23.29,-10.79 -38.79,-16.98 -61.28,-28.25l-121.06 -58c-11.77,-5.37 -20.3,-9.3 -32.32,-14.81 -10.98,-5.04 -20.33,-10.51 -33.53,-13.58 2.38,28.67 12.47,69.41 17.67,95.42l68.78 270.48c13.88,42.36 21.46,39.71 73.72,39.37 37.72,-0.25 75.47,0.12 113.19,-0.09 38.75,-0.23 65.39,4.79 108.31,4.77 39.27,-0.03 78.54,0 117.8,0zm673.82 -838.75l147.03 79.16c43.62,25.95 93.85,65.96 133.66,97.23l84.86 70.63c53.57,41.42 143.33,138.88 189.04,192.64 36.58,43.03 77.08,119.61 100.39,135.21 20.5,-13.72 59.16,-63.3 59.05,-98.93 -0.16,-52.36 -71.75,-134.99 -107.56,-177.69 -7.43,-8.85 -13.33,-13.06 -21.05,-21.36 -8.95,-9.62 -8.68,-11.52 -16.65,-21.05 -7,-8.36 -13.21,-13.68 -20.99,-21.41l-106.24 -101.1c-57.17,-47.79 -147.91,-125.91 -212.17,-160.06 -56.35,-29.96 -132.6,-73.74 -188.22,-16.93 -14.84,15.15 -29.86,26.82 -41.15,43.66zm-862.3 1093.2l0 9.42c13.4,3.58 25.77,16.09 37.9,23.36l117.6 70.88c155.29,103.82 111.32,95.54 203.32,168.93 25.78,20.57 92.17,98.47 118.58,131.16l55.06 72.16c0,-88.82 34.9,-193.43 -30.04,-257.38l-107.78 -104.27c-7.82,-7.84 -13.11,-14.01 -21.25,-21.16 -10.9,-9.61 -14.87,-10.42 -25.93,-21.19 -138.75,-135.08 -235.12,-71.91 -347.46,-71.91zm339.27 702.09c-0.62,-27.72 -26.33,-63.63 -40.35,-82.16 -82.42,-108.94 -212.09,-221.57 -328.12,-298.58 -30.32,-20.12 -127.64,-87.44 -164,-90.47 39.77,75.15 80.14,115.59 135.54,175.47 11.82,12.77 14.93,19.97 28.14,33.11 20.16,20.06 42.59,45.8 64.49,62.74 90.18,69.74 103.65,93.17 216.73,160.23 30.87,18.3 56.85,24.92 87.57,39.66zm-532.47 -565.44c123.52,28.78 277.23,139.28 373.47,224.96l77.72 73.07c70.98,71 111.12,122.28 164.57,212.39 5.61,9.44 8.56,14.41 14.43,23.26 7.67,11.55 5.53,13.74 20.08,17.63 5.54,-66.64 61.15,-38.05 -90.19,-225.52 -47.71,-59.1 -158.28,-162.79 -218.75,-210.05 -80.73,-63.07 -143.36,-111.82 -242.34,-148.75 -51.22,-19.12 -64.16,-18.34 -83.06,6.5 -8.84,11.62 -12.53,13.81 -15.93,26.51z"/>
 </g>
</svg>
