<?xml version="1.0" encoding="UTF-8"?>
<!DOCTYPE svg PUBLIC "-//W3C//DTD SVG 1.1//EN" "http://www.w3.org/Graphics/SVG/1.1/DTD/svg11.dtd">
<!-- Creator: CorelDRAW 2020 (64-Bit) -->
<svg xmlns="http://www.w3.org/2000/svg" xml:space="preserve" width="135mm" height="53mm" version="1.1" style="shape-rendering:geometricPrecision; text-rendering:geometricPrecision; image-rendering:optimizeQuality; fill-rule:evenodd; clip-rule:evenodd"
viewBox="0 0 13500 5300"
 xmlns:xlink="http://www.w3.org/1999/xlink"
 xmlns:xodm="http://www.corel.com/coreldraw/odm/2003">
 <defs>
  <style type="text/css">
   <![CDATA[
    .fil0 {fill:#0A54EC}
   ]]>
  </style>
 </defs>
 <g id="Слой_x0020_1">
  <metadata id="CorelCorpID_0Corel-Layer"/>
  <path class="fil0" d="M421.06 3104.05c0,256.56 16.47,335.57 96.89,579.11 43.71,132.38 116.27,257.03 194.66,368.65 427.03,608.02 1299.76,770.37 1981.21,822.18 190.7,14.51 380.1,22.91 568.57,26.08l354.13 0c681.69,-11.13 1353.97,-84.38 2033.93,-178.57 329.86,-45.7 643.66,-106.7 966.3,-160.36 160.15,-26.64 321.83,-52.59 483.8,-79.53 484.09,-80.51 956.66,-175.1 1435.28,-254.7 420.32,-69.91 1028.65,-180.59 1461.82,-228.17 81.58,-8.96 163.65,-18.84 248.01,-30.34 166.61,-22.71 469.6,-46.97 646.7,-55.8l404.27 -19.89c54.37,0.13 83.72,-6.98 132.38,-6.78l530.34 0.15c284.97,0 448.39,88.47 646.88,221.31 38.13,25.52 69.96,47.74 108.26,70.69 77.28,46.31 168.09,92.39 278.74,92.39 74.15,0 106.05,-48.59 112.67,-111.67l0 -55.41c-6.18,-68.77 -33.06,-142.58 -63.46,-186.99 -115.36,-168.47 -259.21,-223.14 -470.72,-271.55 -357.91,-81.93 -742.41,-90.15 -1109.42,-90.15 -268.2,0 -499.52,43.69 -756.07,72.36 -229.69,25.68 -491.62,75.16 -722.19,106.24 -461.87,62.23 -973.74,162.55 -1436.69,226.78l-474.56 75.52c-162.55,26.04 -321.07,48.96 -480.87,75.83 -305.94,51.46 -659.45,96.05 -967.98,138.79 -942.9,130.61 -2028.65,338.36 -2981.96,338.36l-841.31 -26.87c-33.33,-2.61 -86.8,-9.79 -120.17,-12.39 -84.32,-6.57 -159.34,-11.93 -241.92,-23.18 -318.38,-43.39 -573.11,-80.12 -873.48,-180.27 -169.67,-56.58 -300.42,-115.35 -445.38,-204.12l-153.61 -111.46 -129.19 -129.3c-227.14,-238.33 -316.15,-711.7 -172.51,-1044.02 41.11,-95.1 71.63,-149.84 134.41,-230.1 65.59,-83.84 97.76,-114.32 173.97,-190.54 52.61,-52.6 93.82,-91.27 154.55,-137.04 178.51,-134.54 437.3,-202.61 685.47,-202.61 527.01,0 894.14,398.87 974.23,417.53 0,-61.08 26.51,-82.23 26.51,-205.45 0,-99.47 -231.18,-257.26 -323.41,-312.82 -176.84,-106.54 -441.14,-184.23 -644.19,-184.23 -184.93,0 -215.83,-3.62 -401.66,42.37 -156.02,38.61 -306.74,126.36 -430.56,218.93 -253.84,189.78 -443.44,449.19 -543.87,755.1 -24.36,74.2 -48.8,181.9 -48.8,275.94zm2710.6 -2485.28c0,115.06 24.43,22.37 170.35,94.75 55.71,27.63 81.5,78.44 81.5,143.84l0 2213.55c0,172.98 -64.59,203.67 -245.22,218.71 0,37.91 -19.43,79.52 13.25,79.52l801.93 0 0 -79.52c-49.66,0 -124.95,-12.58 -160.22,-25.35 -94.7,-34.29 -71.73,-158.41 -71.75,-279.52 0,-61.21 7,-106.08 6.79,-158.9l12.8 -490.87c2.56,-33.89 1.38,-38.3 17.24,-62.3l637.09 -794.43c18.66,-23.04 126.27,-173.26 154.51,-183.48 0,58.68 6.67,96.21 6.62,159.06 -0.08,148.2 5.08,767.45 -3.27,842.02 -3.74,33.41 -7.13,119.06 -0.56,162.54 7.57,49.98 3.83,253.27 3.83,320.91 0,115.3 -3.34,273.57 -26.3,364.71 -13.71,54.4 -42.43,89.51 -86.49,112.33 -26.91,13.93 -123.88,33.28 -165.55,33.28l0 79.52 821.79 0 0 -79.52c-105.44,-8.78 -162.07,-30.25 -180.91,-130.58 -24.26,-129.19 -24.53,-2059.39 -24.53,-2242.03 0,-67.31 12.38,-137.48 44.57,-174.13 35.71,-40.66 87.49,-64.46 160.87,-64.46l0 -79.53 -821.79 0 0 79.53c86.19,0 203.2,20.01 254.09,57.4 43.68,32.07 38.46,52.89 31.9,109.21 -13.19,113.29 17.68,84.8 -56.12,175.94l-106.82 131.76c-47.14,60.01 -93.11,112.47 -138.21,173.28l-205.63 258.28c-25.31,31.29 -47.23,56.67 -71.69,87.37l-284.11 345.49c0,-269.42 6.63,-518.14 6.63,-788.65 0,-122.96 -8.5,-278.55 0.17,-397.47 8.79,-120.6 115.66,-152.61 245.05,-152.61l0 -79.53 -801.93 0c-15.26,0 -19.88,4.61 -19.88,19.88zm4215.03 39.77c0,34.04 63.06,14.54 149.77,49.04 49.03,19.51 82.43,48.28 99.87,98.96 34.05,98.87 22.08,247.74 22.08,375.56 0,265.06 0.97,530.28 -0.02,795.31 -0.25,67.17 6.65,119.2 6.65,192.17l0.23 596.7c-0.06,40.98 -7.03,51.35 -7.09,92.32 -0.04,32.78 1.43,67.32 0.45,99.86 -0.95,31.85 -5.11,54 -6.9,92.52 -4.18,90.29 -20.06,163.53 -94.73,203.48 -34.11,18.25 -115.25,34.07 -163.68,35.16 -6.84,57.59 -17.88,79.52 13.25,79.52l801.92 0 0 -79.52c-93.32,-2.08 -229.79,-19.43 -254.55,-123.23 -15.55,-65.22 -14.89,-710.45 -9.58,-757.25 21.02,-185.24 -40.6,-80.36 81.45,-236.67l779.14 -943.97c0,391.01 0.1,782.03 0,1173.04l6.63 430.78c0.08,56.21 -6.69,89.19 -6.55,139.25 0.19,69.77 -22.64,200.88 -51.86,239.75 -42.12,56.04 -89.97,58.67 -152.58,66.12 -21.56,2.57 -44.63,10.28 -67.36,12.18l0 79.52 801.91 0c34.88,0 15.72,-49.98 13.26,-79.52 -255.69,-21.28 -264.45,-104.78 -264.87,-411.13 -0.06,-42.65 -7.21,-59.28 -6.94,-105.73l0.09 -1484.62c0,-141.62 2.72,-304.33 20.09,-430.57 20.84,-151.38 106.18,-163.58 220.15,-177.48 43.97,-5.38 38.1,8.26 38.1,-81.2l-828.42 0c0,87.03 -5.76,75.92 32.39,80.29 23.74,2.71 31.08,4.78 53.74,5.9 79.51,3.92 74.99,-13.43 166.95,58.38 37.27,29.12 31.9,61.25 31.9,113.9 0,37.92 -72.06,111.27 -97.37,141.22 -19.8,23.43 -32.98,43.1 -53.35,65.93l-593.07 725.79c-19.4,23.81 -34.06,41.47 -53.59,65.7 -17.95,22.31 -35.92,54.19 -64.18,61.75 10.3,-24.94 -2.83,-184.03 -6.28,-225.69 -5.93,-71.66 -0.35,-170.27 -0.35,-244.86 0,-87.72 -6.63,-150.87 -6.63,-238.59 0.01,-125.61 -20.27,-396 64.31,-472.51 39.09,-35.36 108.58,-41.7 160.75,-51.32 53.96,-9.97 46.67,0.32 46.67,-85.89l-821.8 0 0 59.65zm-1815.9 2445.51c0,152.9 -93.66,185.57 -245.22,185.57l0 79.52 808.54 0 0 -79.52c-119.22,0 -203.93,-24.5 -240.79,-110.47 -27.76,-64.74 -30.93,-232.12 -30.93,-326.95l0 -1252.57 888.07 0c0,183.33 -0.35,1319.27 -17.92,1453.37 -5.85,44.7 -5.98,64.05 -16.37,102.91 -7.5,28.02 -23.69,63.61 -44.08,81.85 -45.56,40.74 -115.21,51.86 -199.98,51.86l0 79.52 808.54 0 0 -79.52c-290.29,0 -258.86,-156.67 -264.88,-358.1l-6.84 -1954.87c0,-79.65 10.77,-151.93 41.05,-204.16 58.33,-100.58 136.26,-94.07 230.67,-94.07l0 -79.53 -808.54 0c0,102.18 -27.31,71.79 56.82,82.36 45.93,5.76 71.09,8.2 103.33,22.59 129.62,57.83 100.54,258.65 104.73,398.95l13.47 258.25c-300.7,0 -590.58,13.25 -888.07,13.25 0,-131.98 -10.94,-484.92 31,-585.34 41.9,-100.31 129.65,-110.53 240.72,-110.53l0 -79.53 -808.54 0c0,105.31 -36.46,70.08 79.54,79.51 39.52,3.22 83.41,42.71 104.3,68.02 50.85,61.61 34.86,201.79 34.86,309.76 0,114.88 0,229.75 0,344.63 0,119.7 6.63,217.08 6.63,337.99l-0.01 516.95c-0.14,63.47 6.72,101.14 6.64,165.67 -0.14,114.87 0.03,229.75 0,344.63 -0.03,118.32 13.26,217.28 13.26,338zm3863.77 -2432.26l65.41 27.37c61.52,22.53 110.73,79.28 143.97,134.38 22.59,37.45 43.49,84.66 62.44,123.13l370.26 941.96c46.47,129.04 312.26,784 312.26,814.4 0,25.78 -37.14,103.6 -47.23,131.7 -43.26,120.37 -83.76,312.33 -237.74,312.33 -137.02,0 -170.3,-106.45 -197.23,-233.56 -15.15,-71.56 -47.99,-303.75 -47.99,-382.78l-62.48 123.08c-57.76,144.44 -182.39,403.25 -135.87,552.45 36.01,115.51 185.37,219.16 317.64,219.16 168.5,0 275.79,-52.24 377.89,-185.44 148.56,-193.82 221.58,-499.7 297.28,-736.59 74.86,-234.28 161.33,-563.88 229.92,-803.96 38.95,-136.31 186.91,-668.51 243.62,-790.24 28.03,-60.15 58.15,-112.55 102.18,-156.29 142.6,-141.7 154.12,-11.87 154.12,-164l-596.46 0 0 59.65c0,59.66 209.27,-12.58 112.66,371.14 -51.39,204.15 -80.13,276.77 -144.96,471.38l-152.43 457.29c-9.03,24.97 -17.87,48.84 -26.51,72.89 -10.04,27.92 -20.22,48.06 -27.35,78.69 -29.84,-21.86 -232.15,-492.05 -265.1,-556.69 -72.84,-142.88 -202.18,-464.16 -242.71,-585.71 -22.05,-66.15 -54.77,-146.97 -12.16,-212.61 64.43,-99.29 181.97,-48.25 181.97,-96.38l0 -59.65 -755.52 0c-29.95,0 -19.88,41.19 -19.88,72.9zm3684.83 2014.73l-38.53 -34.43c-18.32,13.81 -46.86,65.7 -58.75,89.58 -119.01,239.01 -280.21,481.67 -578.72,481.67 -132.35,0 -257.87,-52.84 -355.17,-128.61 -190.73,-148.53 -284.31,-425.19 -318.9,-661.97 -5.32,-36.41 -12.01,-72.09 -14.62,-104.68 -13.6,-169.91 -23.18,-289.23 -13.78,-463.32 2.15,-39.77 -3.43,-86.08 0.94,-124.99 8.05,-71.78 11.9,-148.69 22.6,-222.61 33.85,-233.7 110.16,-530.9 279.5,-701.35 263.12,-264.82 626.57,-180.04 810.72,127.31 45.84,76.5 75.41,151.49 106.49,244.77l57.04 208.06c11.38,57.02 11.75,57.88 54.79,57.88 0,-156.25 -7.39,-324.12 -19.54,-470.89l-20.23 -476.83c-61.43,0 -46.33,-11.1 -72.82,86.23 -75.32,276.74 -207.26,-86.23 -583.29,-86.23 -154.28,0 -322.89,66.01 -433.63,149.58 -109.19,82.41 -206.54,196.64 -276.75,313.08 -152.62,253.11 -246.56,614.5 -250.33,935.98 -0.44,37.41 -6.9,45.98 -7.16,85.71l18.93 279.76c15,119.84 33.67,227.73 65.07,332.56 110.5,368.87 345.59,775.45 777.64,799.7 59.45,3.34 104.2,6.12 173.55,-5.78 170.58,-29.28 269.44,-90.32 388.33,-208.14l198.33 -292.09c12.37,-24.75 20.83,-41.68 33.14,-66.28 20.35,-40.68 44.41,-97.58 55.15,-143.67zm-12698.09 -1272.32c0,89.49 13.25,159.7 13.25,205.31 24.91,-18.25 138.51,-205.17 170.9,-253.26 20.3,-30.15 40.55,-55.06 61.96,-83.84 84.75,-113.95 245.99,-268.75 356.98,-352.16 220.75,-165.89 463.22,-258.46 748.9,-258.46 322.34,0 733.64,109.99 959.31,319.78l47 45.78c15.1,17.95 31.35,29.65 60.7,32.09l6.62 -245.22c0,-98.72 -335.35,-267.46 -390.83,-291.78 -280.03,-122.79 -439.3,-132.37 -735.82,-132.37 -80.2,0 -180.69,18.53 -249.23,35.75 -202.61,50.89 -418.15,157.86 -574.05,294.14 -157.1,137.33 -287.76,292.67 -395.87,472.33 -32.67,54.28 -79.82,127.76 -79.82,211.91zm26.5 748.75c0,57.04 15.19,143.58 26.52,192.2l110.52 -181.07c10.66,-17.95 18.45,-28.77 28.72,-44.19 10.17,-15.29 17.13,-28.69 27.71,-45.19l120.82 -170.79c76.72,-98.25 192.93,-228.02 292.71,-297.13 244.82,-169.58 481.27,-229.23 804.64,-229.23 330.3,0 657.32,107.03 902.86,309.96 17.83,14.74 29.91,22.73 48.69,37.47 19.78,15.52 30.15,30.11 55.81,36.96 0,-68.54 -0.28,-137.08 0.17,-205.61 0.66,-98.87 -46.53,-123.45 -127.47,-177.39 -313.54,-208.96 -583.22,-279.74 -972.84,-279.74 -188.85,0 -350.86,46.75 -488.55,101.29 -165.42,65.52 -241.32,138.32 -363.59,232.88 -39.93,30.88 -144.86,142.15 -178.97,185.54 -13.41,17.06 -19.15,23.51 -32.19,40.71 -22.8,30.05 -43.67,59.34 -63.39,89.04 -46.79,70.47 -192.17,304.61 -192.17,404.29z"/>
 </g>
</svg>
