<?xml version="1.0" encoding="UTF-8"?>
<!DOCTYPE svg PUBLIC "-//W3C//DTD SVG 1.1//EN" "http://www.w3.org/Graphics/SVG/1.1/DTD/svg11.dtd">
<!-- Creator: CorelDRAW 2020 (64-Bit) -->
<svg xmlns="http://www.w3.org/2000/svg" xml:space="preserve" width="302.661mm" height="75.586mm" version="1.1" style="shape-rendering:geometricPrecision; text-rendering:geometricPrecision; image-rendering:optimizeQuality; fill-rule:evenodd; clip-rule:evenodd"
viewBox="0 0 30266.1 7558.6"
 xmlns:xlink="http://www.w3.org/1999/xlink"
 xmlns:xodm="http://www.corel.com/coreldraw/odm/2003">
 <defs>
  <style type="text/css">
   <![CDATA[
    .fil2 {fill:#0A54EC}
    .fil0 {fill:#104788}
    .fil3 {fill:#1D3557}
    .fil1 {fill:#F5A509}
   ]]>
  </style>
   <clipPath id="id0">
    <rect x="107803.39" y="-5108.37" width="15112.81" height="5344.58"/>
   </clipPath>
   <clipPath id="id1">
    <rect x="41721.42" y="-9115.24" width="32376.58" height="8085.68"/>
   </clipPath>
 </defs>
 <g id="Слой_x0020_1">
  <metadata id="CorelCorpID_0Corel-Layer"/>
  <g id="_1792040814080">
   <path class="fil0" d="M67091.83 -6687.41c0,25.49 16.79,25.05 38.44,37.76 107.66,63.22 715.38,427.91 757.43,427.91 34.7,0 167.37,-206.36 193.47,-238.33 12.27,-15.03 18.32,-19.34 31.51,-36.22 53.71,-68.72 190.13,-194.43 264.28,-243.72 32.96,-21.92 57.66,-38.69 91.41,-60.99 245.77,-162.38 607.55,-258.94 900.99,-258.94 457.12,0 881.05,189.39 1204.6,497.21 22.85,21.74 28.55,31 47.21,54.38 47.76,59.82 71.26,72.02 145.17,176.57 54.03,76.41 115.61,176.73 153.65,269.69 41.02,100.24 82.08,199.84 106.8,316.53 107.36,506.83 14.15,946.89 -258.65,1354.4 -172.43,257.59 -416.36,442.54 -690.29,579.7 -185.9,93.08 -449.3,155.12 -716.95,155.12 -355.52,0 -663.27,-129.12 -887.41,-264.06 -107.71,-64.85 -283.24,-190.21 -357.21,-286.25 -47.04,-61.07 -204.53,-271.78 -228.58,-287.89l-502.45 284.96c-54.8,29.95 -285.07,157.75 -301.89,180.71 27.14,116.49 274.77,395.69 366.56,505.5 106.58,127.5 339.41,298.67 480.02,392.05 354.44,235.4 898.87,423.25 1329.36,423.25 409.3,0 627.8,-20.98 1010.7,-157.7 78.72,-28.11 157.09,-57.51 228.32,-93.41 73.98,-37.3 134.54,-68.53 205.88,-107.39l289.6 -193c91.57,-68.51 176.2,-144.23 257.29,-225.32l110.45 -118.14c207.83,-247.17 262.08,-319.93 418.11,-631.76 46.63,-93.2 102.27,-245.82 131.51,-351.09 5.22,-18.78 11.88,-34.86 18.18,-58.02 206.02,-758.15 62.35,-1627.72 -393.79,-2245.43 -163.54,-221.47 -333.73,-405.34 -553.79,-572.27 -161.74,-122.68 -315.8,-215.44 -500.33,-304.01 -36.89,-17.71 -75.08,-34.55 -111.68,-49.18l-237.34 -84.4c-273.79,-84.64 -494.62,-109.02 -805.38,-109.02 -570.49,0 -1013.98,192.14 -1371.22,406.78 -114.16,68.6 -212,153 -314.91,235.42 -22.09,17.7 -34.66,35.69 -56.75,53.33 -56.01,44.72 -195.46,191.76 -245.55,253.98 -49.83,61.9 -246.77,290.9 -246.77,371.29z"/>
   <path class="fil0" d="M95751.55 -4028.87c0,19.51 5.89,25.4 25.4,25.4l702.73 0c0,-211.62 -10.59,-377.42 -16.66,-584.48l-29.24 -571.88c-9.7,-64.07 -7.74,-170.01 -12.92,-232.62 -6.18,-74.63 5.29,-161.55 -0.89,-236.18 -16.94,-204.7 -7.08,-257.01 8.91,-449.18l653.01 1954.73c18.96,56.88 27.12,119.61 58.19,119.61l592.67 0c29.95,0 39.62,-58.76 55.59,-113.75 9.48,-32.67 12.53,-35.91 21.63,-63.04 7.32,-21.84 12.43,-45.97 21.09,-72.03l604.43 -1825.52c14.27,9.92 16.93,1.22 16.93,25.4l-2.31 446.42c-7.86,57.31 -6.15,308.64 -18.2,388.21 -9.89,65.38 0.11,136.5 -9.78,201.88 -8.62,56.95 -4.78,138.69 -10.81,192.4 -3.45,30.74 -0.92,69.04 -0.95,100.65 -0.03,48.98 -7.73,57.66 -9.03,101.03l-8.19 618.35 719.67 0 0 -2709.34 -1143 -8.47c-58.86,0 -134.03,340.7 -152.4,406.41l-250.34 867.26c-21.23,75.07 -40.7,145.94 -61.92,217.48 -21.78,73.47 -30.66,148.64 -77.21,202.19l-200.15 -621.12c-88.52,-300.55 -252.17,-788.43 -316.32,-1063.75 -153.58,0 -277.7,-8.47 -431.8,-8.47l-728.13 0 0 2692.41z"/>
   <path class="fil0" d="M94261.41 -4604.61c-178.63,0 -453.81,20.19 -539.31,-138.02 -64.26,-118.9 -61.82,-300.13 -61.82,-446.18 0,-196.66 -22.69,-672.1 63.89,-799.71 93.62,-137.99 353.1,-123.15 528.77,-123.15 365.57,0 423.43,131.97 423.34,465.66l9.9 430.76c6.57,56.53 -2.13,69.64 -1.52,136.42 0.84,91.79 -14.51,187.19 -38.81,257.53 -55.23,159.82 -175.01,216.69 -384.44,216.69zm-1354.67 -1024.46c0,108.52 -7.64,365.3 2.32,437.95 13.06,95.35 -3.63,220.8 7.36,322.84 21.54,200.02 56.46,340.72 156.86,503.54 159.4,258.5 509.23,403.6 925.66,403.6 258.11,0 460.6,0.31 710.66,-51.35 318.2,-65.73 544.99,-215.21 649.51,-527.35 96.35,-287.77 70.7,-820.75 70.7,-1148.5 0,-389.51 -84.76,-664.45 -303.38,-839.62 -49.76,-39.86 -118.37,-77.67 -183.97,-103.9 -37.55,-15.02 -71.2,-25.66 -106.35,-37.58 -318.16,-107.95 -858.62,-102.04 -1183.75,-34.35 -608.88,126.77 -745.62,482.65 -745.62,1074.72z"/>
   <path class="fil0" d="M85396.79 -4926.34c0,166.13 -40.4,347.13 -203.2,347.13l-203.06 -8.91c-47.58,-0.72 -77.19,-11.61 -84.92,25.73 -2.84,13.74 0.11,90.07 0.12,110.18 0.04,146.76 0,293.52 0,440.27 61.91,5.15 104.75,42.34 304.8,42.34 103.13,0 221.33,-13.6 305,-33.67 96.53,-23.15 167.74,-56.17 240.45,-106.69 51.02,-35.44 90.46,-76.08 129.97,-124.02 188.06,-228.13 212.3,-610.89 213.64,-904.08 0.3,-66.61 -9.01,-96.17 -8.64,-160.7l-8.35 -652.05c0,-56.31 8.46,-73.29 8.46,-127 42.93,0 46.13,-8.46 93.14,-8.46l677.33 0 0 1092.2c0,339.49 8.47,651.3 8.47,990.6l719.67 0 8.46 -2717.81 -2201.34 0 0 1794.94z"/>
   <path class="fil0" d="M90383.67 -4011.94l728.14 8.47 0 -1058.34c279.39,0 208.11,-21.72 282.73,89.8l417.59 598.42c26.03,34.65 45.91,64.31 71.33,97.99 236.53,313.4 174.61,272.13 405.21,272.13 225.78,0 451.56,0 677.34,0 -11.57,-49.64 -82.42,-136.42 -114.95,-181.39 -24.46,-33.83 -38.85,-56.14 -64.86,-87.53 -24.22,-29.22 -40.81,-58.21 -64.56,-87.85l-520.04 -682.22c-49.41,-65.82 -227.83,-300.83 -243.13,-366.48l581.82 -815.18c41.77,-55.84 74.71,-106.23 116.04,-163.37 18.2,-25.16 225.22,-302.86 233.48,-333.79l-863.6 0c-23.47,44.36 -56.68,85 -84.67,127 -29.91,44.9 -56.42,85.05 -89.56,130.58 -16.62,22.83 -25.06,37.15 -40.78,60.82l-441.74 642c-52.75,73.8 -9.49,55.61 -249.19,55.61l-8.46 -1016.01 -728.14 0 0 2709.34z"/>
   <path class="fil0" d="M74042.97 -5891.54l0 76.2 745.07 0c0,-86.95 42.28,-216.76 117.02,-272.45 70.74,-52.71 238.29,-74.57 322,-64.99 146.24,16.74 207.58,5.34 316.41,73.08 134.61,83.81 142.04,205.55 142.04,340.56 0,48.53 -13.52,60.55 -16.93,101.6l-610.1 -0.5c-35.95,-0.57 -67.24,-8.37 -67.24,25.9l0 482.6 677.34 0c6.13,73.72 16.93,48.08 16.93,177.8 0,127.8 -63.83,244.86 -138.84,301.42 -116.93,88.17 -264.29,88.05 -428.43,88.05 -288.08,0 -330.2,-155.54 -330.2,-423.34l-745.07 0c0,61.32 -8.46,84.8 -8.46,143.94 0,273.35 55.77,510.44 255.91,675.42 273.28,225.29 743.04,196.65 1115.69,196.65 169.34,0 336.85,-24.1 472.46,-60.95 640.39,-174.01 552.01,-872.29 552.01,-1547.72 0,-392.02 -33,-846.98 -406.39,-1032.95 -267.91,-133.43 -550.83,-135.46 -863.61,-135.46 -308.37,0 -581.32,88.93 -765.47,216.67 -88.67,61.51 -182.17,158.85 -238.63,252.44 -55.12,91.36 -113.51,244.53 -113.51,386.03z"/>
   <path class="fil0" d="M77954.58 -5349.67l-237.07 0c-87.76,0 -141.99,-8.47 -228.6,-8.47l0 -762c165.01,0 602.11,-47.83 729.8,57.61 111.35,91.94 114,543.21 13.67,643.52 -58.18,58.17 -190.94,69.34 -277.8,69.34zm-1193.8 1337.73c53.71,0 70.69,8.47 127,8.47l592.67 0 8.46 -745.07c48.94,0 77.6,-7.77 135.75,-8.18 50.69,-0.36 82.69,-8.75 143.65,-8.75 335.51,0 738.5,47.61 961.78,-88.09 114.29,-69.47 184.11,-165.38 237,-296.4 65.3,-161.75 77.17,-384.83 88.26,-572.26l-29 -377.49c-90.71,-552.03 -478.01,-621.57 -987.1,-621.57l-1278.47 0 0 2709.34z"/>
   <path class="fil0" d="M82721.32 -4646.94l0 635 1981.21 8.47 0 -575.74c0,-19.5 -5.89,-25.4 -25.4,-25.4l-1227.67 0 0 -516.46 1126.07 0c19.51,0 25.4,-5.89 25.4,-25.4l0 -482.6 -1151.47 -8.47 0 -482.6c140.36,0 254.72,-7.79 397.99,-8.52 73,-0.38 117.08,8.62 194.67,8.52l508.01 0c56.31,0 73.29,-8.47 127,-8.47l0 -584.2 -575.74 -16.93c-167.18,0 -892.32,-7.75 -1025.7,7.23 -82.62,9.27 -262.34,-8.94 -337.27,9.86 -41.56,10.43 -25.58,31.59 -25.56,143.78l8.46 1921.93z"/>
   <path class="fil0" d="M87996.07 -6712.81l0 2700.87 1981.2 8.47 0 -601.14 -1253.07 0 0 -516.46 1151.47 0 0 -508c-176.03,0 -323.07,-8.47 -499.53,-8.47l-651.94 0 0 -482.6 1168.4 0c29.19,0 32.79,-6.26 59.27,-8.47 0,-98.78 0,-197.55 0,-296.33 0,-107.2 8.47,-182.38 8.47,-287.87l-524.94 -16.93c-180.58,0 -991.42,-8.98 -1135.77,7.23l-303.56 9.7z"/>
   <path class="fil0" d="M80282.92 -6357.21c0,59.77 6.21,97.2 8.45,143.95 2.1,43.79 -7.88,126.99 33.88,126.99l694.27 0 0 2074.33 728.13 8.47 0 -2082.8 719.67 0c4.86,-58.38 16.94,-99.13 16.94,-169.34l0 -372.53c0,-47.01 -8.47,-50.21 -8.47,-93.14l-2184.4 0c0,132.25 -8.47,233.74 -8.47,364.07z"/>
   <path class="fil1" d="M66914.03 -4384.47c834.59,-481.44 834.05,-482.45 1667.93,-965.2 -833.89,-486.96 -833.49,-487.76 -1667.93,-973.67 -292.66,437.03 -242.8,1479.95 0,1938.87z"/>
   <path class="fil0" d="M68598.9 -5375.07c0,159.22 48.02,315.9 128.47,438.8 28.48,43.5 55.57,67.32 86.69,108.03l97.9 88.37c492.64,377.89 1227.87,9.08 1227.87,-601.34 0,-115.46 -26.3,-236.15 -64.85,-316.14 -11.09,-23.02 -18.2,-41.64 -29.92,-63.22 -76.87,-141.44 -194.44,-256.99 -337.51,-331.35 -295.31,-153.5 -645.2,-59.28 -873.65,141.38 -16.91,14.85 -30.81,29.47 -45.17,47.96 -113.22,145.87 -189.83,258.83 -189.83,487.51z"/>
   <path class="fil1" d="M79376.98 -5366.61c0,97.57 49.91,205.46 99.3,256.31 239.7,246.79 611.9,62.67 611.9,-213.97l0 -42.34c0,-176.9 -139.9,-347.13 -313.26,-347.13 -223.41,0 -397.94,135.72 -397.94,347.13z"/>
  </g>
  <g style="clip-path:url(#id0)">
   <image x="107803.39" y="-5108.36" width="15112.8" height="5344.57" xlink:href="агросигнал_Images\агросигнал_ImgID1.png"/>
  </g>
  <path class="fil2" d="M74652.13 2574.36c0,304.72 19.56,398.56 115.07,687.8 51.92,157.23 138.09,305.28 231.2,437.85 507.17,722.13 1543.7,914.95 2353.05,976.49 226.49,17.23 451.44,27.2 675.28,30.97l420.59 0c809.64,-13.22 1608.09,-100.22 2415.67,-212.09 391.77,-54.27 764.47,-126.72 1147.66,-190.45 190.21,-31.64 382.23,-62.46 574.6,-94.46 574.95,-95.62 1136.21,-207.96 1704.66,-302.5 499.21,-83.03 1221.71,-214.49 1736.18,-271 96.9,-10.64 194.37,-22.37 294.56,-36.03 197.88,-26.97 557.74,-55.78 768.08,-66.27l480.14 -23.62c64.58,0.15 99.44,-8.3 157.23,-8.06l629.88 0.18c338.45,0 532.54,105.08 768.29,262.85 45.28,30.31 83.09,56.7 128.57,83.95 91.79,55 199.64,109.73 331.06,109.73 88.07,0 125.95,-57.7 133.81,-132.62l0 -65.82c-7.34,-81.67 -39.26,-169.34 -75.37,-222.08 -137.01,-200.09 -307.86,-265.02 -559.06,-322.52 -425.09,-97.3 -881.75,-107.06 -1317.64,-107.06 -318.54,0 -593.28,51.88 -897.97,85.94 -272.81,30.49 -583.9,89.26 -857.74,126.17 -548.56,73.92 -1156.5,193.06 -1706.33,269.35l-563.63 89.69c-193.06,30.93 -381.33,58.15 -571.12,90.07 -363.36,61.11 -783.22,114.07 -1149.66,164.83 -1119.87,155.13 -2409.39,401.87 -3541.63,401.87l-999.21 -31.92c-39.58,-3.1 -103.09,-11.62 -142.72,-14.71 -100.15,-7.8 -189.25,-14.17 -287.32,-27.53 -378.14,-51.54 -680.68,-95.16 -1037.43,-214.1 -201.51,-67.2 -356.8,-137 -528.96,-242.43l-182.45 -132.39 -153.43 -153.56c-269.77,-283.06 -375.49,-845.28 -204.89,-1239.97 48.83,-112.95 85.07,-177.96 159.64,-273.28 77.9,-99.58 116.1,-135.78 206.62,-226.3 62.48,-62.48 111.43,-108.41 183.56,-162.77 212.01,-159.79 519.37,-240.63 814.12,-240.63 625.92,0 1061.95,473.73 1157.08,495.89 0,-72.54 31.48,-97.66 31.48,-244.01 0,-118.14 -274.57,-305.54 -384.11,-371.53 -210.03,-126.53 -523.93,-218.81 -765.09,-218.81 -219.64,0 -256.34,-4.3 -477.05,50.33 -185.3,45.85 -364.31,150.07 -511.37,260.01 -301.48,225.4 -526.67,533.5 -645.94,896.82 -28.93,88.13 -57.96,216.05 -57.96,327.73zm3219.34 -2951.72c0,136.65 29.01,26.56 202.32,112.53 66.16,32.82 96.79,93.16 96.79,170.84l0 2629c0,205.44 -76.71,241.89 -291.24,259.75 0,45.03 -23.08,94.45 15.74,94.45l952.43 0 0 -94.45c-58.97,0 -148.4,-14.94 -190.29,-30.11 -112.47,-40.72 -85.19,-188.14 -85.21,-331.97 0,-72.7 8.31,-126 8.06,-188.73l15.21 -583c3.03,-40.25 1.63,-45.48 20.47,-73.99l756.66 -943.53c22.16,-27.37 149.97,-205.78 183.51,-217.92 0,69.7 7.92,114.27 7.87,188.91 -0.1,176.02 6.03,911.49 -3.89,1000.06 -4.44,39.68 -8.47,141.4 -0.66,193.05 8.99,59.36 4.55,300.8 4.55,381.14 0,136.93 -3.97,324.91 -31.24,433.16 -16.28,64.61 -50.39,106.3 -102.73,133.41 -31.95,16.54 -147.12,39.52 -196.62,39.52l0 94.45 976.03 0 0 -94.45c-125.23,-10.42 -192.49,-35.92 -214.86,-155.08 -28.81,-153.44 -29.14,-2445.91 -29.14,-2662.83 0,-79.94 14.71,-163.28 52.94,-206.81 42.41,-48.29 103.91,-76.56 191.06,-76.56l0 -94.45 -976.03 0 0 94.45c102.37,0 241.34,23.77 301.78,68.17 51.88,38.1 45.68,62.82 37.89,129.71 -15.67,134.56 21,100.72 -66.65,208.96l-126.87 156.49c-55.99,71.28 -110.59,133.58 -164.15,205.8l-244.23 306.76c-30.06,37.16 -56.09,67.3 -85.14,103.77l-337.43 410.33c0,-319.99 7.87,-615.39 7.87,-936.67 0,-146.04 -10.09,-330.83 0.2,-472.07 10.44,-143.23 137.37,-181.25 291.04,-181.25l0 -94.45 -952.43 0c-18.13,0 -23.61,5.47 -23.61,23.61zm5006.12 47.23c0,40.43 74.9,17.27 177.88,58.25 58.23,23.17 97.9,57.34 118.62,117.53 40.44,117.43 26.22,294.24 26.22,446.05 0,314.8 1.15,629.8 -0.02,944.57 -0.3,79.78 7.89,141.58 7.89,228.24l0.27 708.69c-0.06,48.67 -8.34,60.99 -8.41,109.65 -0.05,38.93 1.69,79.95 0.53,118.6 -1.13,37.83 -6.07,64.14 -8.19,109.88 -4.97,107.24 -23.83,194.23 -112.52,241.68 -40.51,21.67 -136.87,40.46 -194.4,41.75 -8.12,68.4 -21.23,94.45 15.74,94.45l952.43 0 0 -94.45c-110.84,-2.47 -272.92,-23.07 -302.32,-146.35 -18.47,-77.46 -17.69,-843.79 -11.38,-899.38 24.96,-220.01 -48.22,-95.44 96.73,-281.09l925.38 -1121.14c0,464.4 0.12,928.81 0,1393.21l7.87 511.63c0.09,66.76 -7.95,105.93 -7.78,165.38 0.23,82.87 -26.89,238.58 -61.59,284.75 -50.03,66.56 -106.86,69.68 -181.22,78.53 -25.6,3.05 -53,12.21 -80,14.46l0 94.45 952.42 0c41.42,0 18.66,-59.36 15.74,-94.45 -303.67,-25.27 -314.08,-124.44 -314.58,-488.29 -0.07,-50.65 -8.56,-70.4 -8.24,-125.57l0.1 -1763.26c0,-168.2 3.24,-361.45 23.87,-511.38 24.75,-179.8 126.11,-194.28 261.47,-210.8 52.22,-6.38 45.25,9.81 45.25,-96.43l-983.9 0c0,103.36 -6.85,90.17 38.46,95.35 28.2,3.22 36.92,5.68 63.83,7.01 94.43,4.66 89.06,-15.95 198.28,69.34 44.27,34.58 37.89,72.74 37.89,135.28 0,45.03 -85.58,132.15 -115.64,167.72 -23.52,27.83 -39.17,51.19 -63.37,78.31l-704.38 862c-23.04,28.28 -40.45,49.26 -63.64,78.04 -21.33,26.49 -42.67,64.36 -76.23,73.33 12.23,-29.61 -3.36,-218.56 -7.46,-268.04 -7.04,-85.11 -0.41,-202.23 -0.41,-290.82 0,-104.18 -7.88,-179.19 -7.88,-283.37 0.01,-149.19 -24.07,-470.32 76.38,-561.19 46.43,-42 128.96,-49.53 190.92,-60.96 64.09,-11.83 55.43,0.39 55.43,-102l-976.04 0 0 70.84zm-2156.72 2904.49c0,181.6 -111.23,220.4 -291.24,220.4l0 94.45 960.29 0 0 -94.45c-141.59,0 -242.2,-29.09 -285.98,-131.2 -32.97,-76.89 -36.74,-275.68 -36.74,-388.31l0 -1487.66 1054.75 0c0,217.74 -0.42,1566.88 -21.28,1726.14 -6.95,53.09 -7.1,76.07 -19.45,122.23 -8.9,33.28 -28.13,75.55 -52.35,97.21 -54.11,48.39 -136.83,61.59 -237.51,61.59l0 94.45 960.29 0 0 -94.45c-344.78,0 -307.44,-186.07 -314.59,-425.31l-8.13 -2321.76c0,-94.6 12.79,-180.45 48.75,-242.48 69.28,-119.46 161.84,-111.73 273.97,-111.73l0 -94.45 -960.29 0c0,121.35 -32.44,85.26 67.48,97.81 54.55,6.85 84.43,9.74 122.73,26.83 153.94,68.69 119.4,307.2 124.38,473.83l16 306.72c-357.14,0 -701.42,15.74 -1054.75,15.74 0,-156.76 -12.99,-575.94 36.82,-695.2 49.77,-119.14 153.98,-131.28 285.9,-131.28l0 -94.45 -960.29 0c0,125.07 -43.3,83.23 94.47,94.43 46.94,3.82 99.06,50.72 123.87,80.79 60.4,73.17 41.41,239.66 41.41,367.89 0,136.44 0,272.87 0,409.31 0,142.17 7.87,257.82 7.87,401.43l-0.01 613.97c-0.17,75.39 7.98,120.13 7.89,196.77 -0.17,136.43 0.03,272.87 -0.01,409.31 -0.03,140.52 15.75,258.06 15.75,401.43zm4588.94 -2888.75l77.69 32.51c73.07,26.75 131.51,94.15 170.99,159.6 26.83,44.47 51.65,100.54 74.16,146.24l439.75 1118.75c55.19,153.25 370.87,931.14 370.87,967.25 0,30.62 -44.11,123.04 -56.1,156.41 -51.38,142.97 -99.48,370.96 -282.36,370.96 -162.73,0 -202.26,-126.43 -234.24,-277.4 -18,-84.99 -57,-360.76 -57,-454.62l-74.21 146.18c-68.6,171.55 -216.62,478.93 -161.37,656.13 42.77,137.19 220.17,260.3 377.26,260.3 200.12,0 327.55,-62.05 448.81,-220.25 176.45,-230.2 263.17,-593.48 353.08,-874.83 88.91,-278.25 191.61,-669.72 273.07,-954.85 46.26,-161.9 221.99,-793.99 289.35,-938.56 33.28,-71.44 69.06,-133.67 121.35,-185.63 169.37,-168.29 183.05,-14.09 183.05,-194.77l-708.41 0 0 70.84c0,70.86 248.55,-14.94 133.81,440.8 -61.04,242.46 -95.17,328.71 -172.17,559.85l-181.04 543.12c-10.72,29.65 -21.22,58 -31.49,86.57 -11.92,33.15 -24.01,57.08 -32.48,93.46 -35.44,-25.97 -275.72,-584.41 -314.85,-661.18 -86.51,-169.7 -240.13,-551.27 -288.27,-695.64 -26.19,-78.56 -65.04,-174.55 -14.44,-252.51 76.53,-117.93 216.13,-57.31 216.13,-114.47l0 -70.84 -897.33 0c-35.56,0 -23.61,48.92 -23.61,86.58zm4376.42 2392.86l-45.76 -40.89c-21.76,16.4 -55.66,78.03 -69.78,106.39 -141.35,283.87 -332.8,572.07 -687.33,572.07 -157.2,0 -306.27,-62.75 -421.84,-152.75 -226.52,-176.4 -337.67,-504.99 -378.75,-786.21 -6.32,-43.24 -14.26,-85.61 -17.36,-124.32 -16.15,-201.8 -27.53,-343.52 -16.37,-550.28 2.55,-47.23 -4.07,-102.24 1.12,-148.45 9.56,-85.25 14.13,-176.59 26.84,-264.39 40.2,-277.56 130.83,-630.54 331.96,-832.98 312.5,-314.53 744.16,-213.83 962.88,151.2 54.44,90.86 89.56,179.92 126.48,290.71l67.74 247.11c13.52,67.72 13.95,68.74 65.07,68.74 0,-185.57 -8.77,-384.95 -23.2,-559.27l-24.03 -566.32c-72.96,0 -55.03,-13.18 -86.49,102.42 -89.46,328.68 -246.16,-102.42 -692.76,-102.42 -183.24,0 -383.5,78.4 -515.02,177.66 -129.68,97.87 -245.3,233.54 -328.69,371.84 -181.26,300.61 -292.83,729.83 -297.31,1111.65 -0.53,44.43 -8.2,54.6 -8.51,101.79l22.48 332.27c17.82,142.33 39.99,270.47 77.29,394.98 131.24,438.09 410.45,920.99 923.59,949.78 70.61,3.97 123.76,7.27 206.12,-6.86 202.6,-34.78 320.01,-107.27 461.21,-247.2l235.56 -346.92c14.69,-29.39 24.74,-49.5 39.36,-78.71 24.17,-48.32 52.74,-115.9 65.5,-170.64zm-15081.33 -1511.11c0,106.28 15.74,189.67 15.74,243.84 29.59,-21.68 164.51,-243.68 202.98,-300.79 24.11,-35.81 48.16,-65.4 73.59,-99.58 100.65,-135.33 292.15,-319.19 423.97,-418.25 262.19,-197.03 550.17,-306.97 889.46,-306.97 382.84,0 871.34,130.63 1139.36,379.79l55.82 54.38c17.94,21.32 37.24,35.21 72.09,38.11l7.87 -291.24c0,-117.25 -398.29,-317.66 -464.19,-346.55 -332.58,-145.83 -521.75,-157.21 -873.92,-157.21 -95.25,0 -214.6,22.01 -296.01,42.46 -240.63,60.44 -496.62,187.49 -681.79,349.35 -186.58,163.1 -341.76,347.6 -470.16,560.97 -38.8,64.47 -94.81,151.74 -94.81,251.69zm31.48 889.28c0,67.74 18.04,170.52 31.49,228.27l131.27 -215.06c12.66,-21.31 21.91,-34.16 34.11,-52.48 12.08,-18.16 20.34,-34.07 32.91,-53.67l143.49 -202.84c91.12,-116.7 229.14,-270.82 347.65,-352.9 290.77,-201.41 571.6,-272.25 955.66,-272.25 392.29,0 780.69,127.11 1072.31,368.13 21.18,17.5 35.53,27 57.83,44.5 23.49,18.43 35.81,35.76 66.29,43.9 0,-81.4 -0.34,-162.81 0.2,-244.2 0.78,-117.43 -55.26,-146.62 -151.4,-210.69 -372.38,-248.17 -692.68,-332.24 -1155.42,-332.24 -224.3,0 -416.71,55.53 -580.25,120.3 -196.46,77.82 -286.61,164.28 -431.83,276.59 -47.42,36.68 -172.04,168.83 -212.55,220.37 -15.93,20.26 -22.75,27.92 -38.24,48.34 -27.08,35.7 -51.86,70.48 -75.28,105.76 -55.58,83.69 -228.24,361.78 -228.24,480.17z"/>
  <g style="clip-path:url(#id1)">
   <image x="41721.42" y="-9115.24" width="32376.58" height="8085.68" xlink:href="агросигнал_Images\агросигнал_ImgID2.png"/>
  </g>
  <path class="fil3" d="M501.18 4057.66c34.43,25.23 144.79,311.04 171.84,374.28l316.13 641.56c156.31,310.46 447.95,709.54 660.82,993.38l186.79 224.76c48.38,47.82 90.16,90.92 138.39,138.63l145.21 131.8c29.88,23.07 119.44,111.55 137.9,139.13 -102.69,-23.93 -276.02,-133.8 -354,-192.13l-305.06 -248.96 -272.55 -273.58c-13.39,-16 -12.93,-19.18 -27.97,-35.35 -310.59,-333.84 -535.72,-754.54 -669.89,-1190.08l-61.03 -215.98c-32.16,-147.09 -66.58,-315.15 -66.58,-487.46zm3457.56 3506.25l-335.88 0c-125.7,-5.58 -249.91,-17.55 -370.68,-36.23 -202.77,-31.38 -378.01,-65.02 -565.54,-123.04 -211.25,-65.37 -417.97,-149.25 -617.47,-245.25l-185.35 -99.58c-97.61,-54.31 -186.85,-118.66 -279.35,-179.71 -92.27,-60.89 -173.43,-131.8 -259.79,-199.27l-295.24 -282.53c-22.79,-21.93 -37.23,-27.45 -59.8,-51.02 -94.38,-98.54 -176.87,-210.26 -258.94,-318.84 -150.29,-198.85 -274.65,-421.29 -382.64,-646.27l-69.72 -159.81c-20.94,-51.64 -43.15,-111.25 -63.1,-166.43 -39,-107.91 -78.91,-229.97 -106.61,-352.45 -94.85,-419.43 -114,-589.21 -114,-1049.47 0,-345.21 78.33,-660.73 166.21,-981.44 47.04,-171.67 125.36,-327.33 191.07,-489.61 72.5,-179.07 226.89,-430.37 338.02,-580.09 82.16,-110.7 160.69,-222.44 256.6,-321.17 21.72,-22.37 27.95,-36.51 51.19,-59.63l413.79 -385.59c22.59,-17.2 35.31,-30.91 60.9,-49.92 315.92,-234.68 658.62,-437.82 1034.12,-564.66l353.39 -105.68c366.89,-94.79 648.41,-110.93 1028.79,-110.93 308.56,0 713.63,67.39 1000.34,163.13 34.47,11.52 55.04,17.62 90.08,28.64 23.54,7.39 56.08,20.29 81.97,28.84 218.82,72.25 438.21,176.16 632.64,293.4 167.82,101.19 328.67,210.84 480.52,334.69 177.25,144.55 379.83,337.17 519.74,517.1 155.07,199.46 249.71,335.97 377.98,548.05l119.89 228.36c14.24,28.25 20.44,48.33 34.15,76.66 50.36,104.06 95.39,218.02 134.39,332.58 83.99,246.73 139.82,488.2 176.58,749.45 43.29,307.58 42.81,664.22 -0.93,971.72 -36.2,254.46 -94.6,503.05 -177.62,740.5 -20.13,57.57 -40.11,109.84 -62.91,166.62l-148.57 318.4c-74.48,148.97 -163.94,296.78 -258.52,430.06l-409.46 508.66c-40.42,41.99 -77.53,77.22 -118.77,118.67 -92.38,92.86 -271.03,238.01 -377.26,311.33 -48.24,33.29 -86.71,60.47 -136.12,93.41 -189.75,126.51 -393.17,234.15 -606.94,319.09 -174.48,69.33 -333.09,123.59 -518.51,170.07 -241.67,60.59 -501.61,97.87 -762.64,109.19zm-3370.5 -4273.99c29.58,34.04 22.69,33.39 44.96,73.77l135.56 220.6c75.77,118.09 156.79,249.09 240.16,361.36 125.49,168.97 215.01,308.39 360.42,486.47 19.63,24.03 32.24,43.13 51.76,66.96l552.97 634.25c1.05,1.26 2.55,3.05 3.6,4.31l310.37 306.99c104.17,96.35 203.48,199.07 315.09,286.42 174.93,136.91 263.7,221.29 473.71,373.18 96.5,69.81 186.48,129.91 286.32,196.49 163.4,108.94 441.43,271.36 609.97,355.62l488.08 232.17c37.91,19.01 137.81,59.4 163.57,81.79 -37.46,8.72 -84.4,41.78 -189.94,47.6 -149.99,8.28 -406.65,-126.63 -541.93,-194.27 -219.72,-109.86 -420.3,-224.06 -627,-346.52l-293.74 -189.06c-201.47,-134.3 -314,-222.33 -495.76,-359.04l-786.84 -740.71c-47.26,-59.21 -136.68,-149.37 -196.78,-230.62 -114.85,-155.25 -258.25,-329.61 -358.06,-496.74 -172.26,-288.46 -293.46,-463.48 -428.99,-797.79 -26.97,-66.52 -117.5,-295.05 -117.5,-373.23zm0 0l-9.11 -15.43 9.11 15.43zm110.8 -617.35c0,-107.82 140.85,-390.31 188.43,-468.5l122.69 -209.74c14.35,-23.83 17.45,-24.51 32.53,-46.62 76.99,-112.96 157.22,-227.61 248.12,-329.66 134.39,-150.86 228.37,-236.75 375.88,-368.1 80.72,-71.88 246.49,-190.87 333.72,-244.06 277.5,-169.18 597.13,-321.28 919.44,-402.34 725.8,-182.52 1395.07,-175.99 2093.88,112.95 421.86,174.41 769.5,411.61 1085.18,727.3 34.86,34.86 64.52,63.84 99.09,98.78l91.25 106.61c111.64,131.99 158.73,192.98 258.82,342.7 27.22,40.71 53.97,83.32 79.62,126.18 99.62,166.47 191.7,357.2 259.59,539.8 53.67,144.33 101.45,316.11 132.3,469.22 12.45,61.77 21,114.03 28.58,177.21 92.45,770.37 -27.98,1494.57 -422.52,2152.7l-96.68 156.59c-37.68,51.55 -67.27,97.4 -105.19,148.09 -103.25,138.02 -141.12,165.39 -232.6,273.94l-10.74 13c-66.91,80.03 -318.14,294.24 -387.6,348.48 -199.12,155.46 -266.69,62.12 -587.45,-39.06l-796.52 -295.72c-65.58,-28.29 -120.53,-55.68 -185.46,-83.64 -66.16,-28.48 -125.99,-55.58 -189.59,-87.43 -291.24,-145.86 -602.42,-307.91 -873.18,-488.16 -28.42,-18.92 -51.89,-31.73 -81.41,-53.15 -131.37,-95.36 -254.47,-172.82 -403.73,-284.85 -106.08,-79.61 -202.99,-157.16 -303.98,-242.14 -26.55,-22.36 -46.34,-40.02 -71.83,-62.72 -15.74,-14.02 -19.62,-13.93 -35.42,-27.9 -14.27,-12.61 -21.47,-22.88 -35.75,-35.49 -15.74,-13.91 -19.7,-13.93 -35.49,-27.82 -117.05,-103.08 -273.85,-266.17 -383.93,-375.89 -12.08,-12.05 -20.39,-19.28 -31.76,-31.57 -15.79,-17.07 -16.75,-22.72 -31.61,-39.61l-129.74 -139.37c-136.49,-170.4 -233.42,-275.74 -362.95,-460.18l-472.31 -754.48c-28.13,-50.67 -81.68,-123.99 -81.68,-195.35zm18963.84 1867.89l-8.63 230.19c-0.12,29.51 -6.15,54.75 24.45,54.75l506.55 0c24.95,0 43.83,-41.89 56.99,-61.74l438.3 -646.02c96.37,-132.39 148,-215.76 257.72,-351.72 21.53,-26.68 33.59,-45.26 62.22,-64.43l0 1115.99 569.86 7.92 7.91 -2073.68 -538.17 -9.81c-12.8,0.58 -91.66,119.36 -102.96,136.41 -171.89,259.56 -372.8,530.43 -542.97,786.72l-139.41 200.93c-7.23,9.74 -7.69,10.2 -14.09,17.56l-7.91 -1139.73 -569.86 0 0 1796.66zm-4163.19 -751.91c0,-226.81 98.75,-427.69 309.68,-513.45 154.77,-62.94 281.87,-64.92 433.33,-0.02 53.42,22.88 102.71,61.09 142.65,102.71 0.38,0.39 8.83,9.99 11.19,12.56 49.71,54.35 76.98,90.69 108.33,160.76 147.18,328.97 -51.52,791.48 -466.97,791.48l-39.58 0c-285.08,0 -498.63,-266.1 -498.63,-554.04zm-601.51 -23.74c0,460.85 247.07,807.59 609.43,989.35 420.25,210.81 991.25,121.02 1319.79,-207.76 331.66,-331.9 401.95,-769.69 224.73,-1202.21 -32.68,-79.77 -95.88,-178.1 -150.27,-245.47 -70.84,-87.75 -187.27,-186.44 -286.44,-243.85 -28.07,-16.26 -57.96,-29.25 -89.42,-45.12 -184.7,-93.17 -334.74,-105.52 -543.5,-105.52 -163.34,0 -311.69,49.73 -430.8,99.49 -173.84,72.62 -339.19,207.82 -451.15,356.17 -118.34,156.82 -202.37,387.35 -202.37,604.92zm8856.64 -997.26l0 2049.93c101.73,0 174.51,7.92 277.01,7.92l300.77 0 7.91 -783.57 552.87 -1.16c37.55,-4.21 87.13,-9.92 136.72,-7.77 49.77,2.18 38.9,7.3 38.58,103.9l-0.01 569.87c-0.03,36.98 -14.9,118.73 23.75,118.73l554.03 0 7.91 -2081.6 -577.77 0 -7.92 767.74c-101.73,0 -174.51,7.92 -277.02,7.92l-451.14 0 0 -743.99c0,-37.77 -64.16,-23.76 -134.55,-23.75l-388.29 -8.37c-33.6,-0.54 -62.85,-7.84 -62.85,24.2zm4456.02 1606.7l-32.33 363.54c-8.97,102.57 -19.82,72.4 94.23,89.02 168.76,24.58 433.56,36.02 574.72,-61.3 71.31,-49.15 112.97,-106.76 158.42,-181.91 230.84,-381.81 188.31,-1294.92 195.94,-1316.42 9.42,-26.57 30.37,-11.36 61.37,-9.15l419.8 8.15 0 1076.41c0,170.2 7.92,313 7.92,482.81l569.86 0 0 -2081.6 -1575.04 0c-38.92,0 -20.45,60.49 -24.92,101.73 -14.2,131.19 3.69,294.93 -8.9,386.83 -9.58,69.86 -5.76,172.26 -5.75,255.44 0,185.17 -26.28,775.42 -192.2,860.47 -57.89,29.66 -110.57,14.38 -179.84,18.03 -35.32,1.85 -28.89,7.19 -63.28,7.95zm-18393.96 -926.03c2.56,30.82 130.67,360.94 152.68,417.18 17.78,45.39 32.66,98.21 53.1,136.85l-332.69 0.27c-48.96,-0.06 -61.18,-8.18 -110.53,-8.18 41.74,-78.89 202.21,-520.31 237.44,-546.12zm-1171.39 1377.18l601.53 0 150.37 -364.09c275.61,0 524.9,-7.92 799.4,-7.92l150.38 372.01 617.36 0 -832.19 -1985.49c-33.21,-80.47 -32.9,-111.93 -78.02,-111.93l-506.54 0c-28.61,0 -41.31,60.46 -66.02,116.02l-278.89 655.05c-53.87,128.24 -554.41,1290.62 -557.38,1326.35zm18314.81 -1385.09c22.34,16.37 22,32.23 34.39,60.58l138.74 351.99c18.82,52.33 34.85,90.82 48.49,149.37 -73.87,0 -147.76,-0.16 -221.63,0.01 -80.95,0.19 -136.45,-7.92 -221.6,-7.92 19.19,-40 37.78,-94.99 54.19,-135.76 23.41,-58.15 164.65,-385 167.42,-418.27zm-1155.55 1385.09c90.98,0 195.71,-4.87 284.97,-0.04 318.5,17.2 323.18,26.16 390.74,-163.22 26.34,-73.84 50.69,-137.68 84.1,-200.83 131.92,0 263.83,0 395.74,0 141.39,0 261.07,-7.92 395.74,-7.92l114.16 273.69c12.25,29.17 33.56,66.19 36.23,98.32l617.35 0c-5.57,-23.92 -14.89,-38.18 -24.87,-62.21l-627.48 -1501.58c-37.7,-89.74 -74.83,-170.6 -110.91,-261.1l-107.37 -264.62c-60.38,0 -88.26,-7.91 -150.37,-7.91l-395.75 0c-25.26,0 -26.78,25.56 -36.27,50.79l-195.96 460.96c-150.66,338.72 -297,713.57 -448.23,1055.58 -18.96,42.86 -34.18,83.72 -53.42,128.63l-113.22 266.68c-15.52,35.39 -46.48,97.4 -55.18,134.78zm-12260.01 -1052.67l7.92 -538.2c152.46,0 379.02,-44.32 517.61,83.9 73.67,68.14 88.63,184.52 57.65,277.66 -31.85,95.78 -117.99,149.22 -223.71,172.03l-177.21 20.73 -182.26 -16.12zm-577.77 -1028.93l0 2081.6 569.86 0c0,-55.55 8.35,-77.19 8.02,-134.45l-0.11 -451.25c62.51,-14.56 143.97,-15.84 221.62,-15.83 219.88,0.02 430.36,-6.84 616.99,-119.08 428.88,-257.91 478.92,-913.67 46.38,-1209.14 -271.63,-185.55 -684.08,-159.76 -1043.28,-159.76 -149.27,0 -270.68,7.91 -419.48,7.91zm5413.71 2121.17c264.41,0 425.65,-7.95 664.52,-150.72 81.41,-48.65 118.86,-89.89 183.57,-140.92 52.89,-41.69 110.88,-133.77 141.26,-191.17 -80.06,-42.35 -140.05,-91.11 -211.45,-144.72 -52.16,-39.15 -159.41,-125.19 -223.87,-140.21 -24.5,16.42 -21.05,18.68 -38.43,40.72 -135.08,171.34 -418.41,256.17 -634.46,149.37 -122.02,-60.3 -197.63,-140.07 -245.35,-269.1 -96.71,-261.49 -22.74,-608.52 250.62,-738.98 171.24,-81.73 317.4,-64.21 474.48,29.71 68.81,41.15 127.5,104.92 185.23,155.1 71.62,-37.9 149.59,-101.08 212.61,-151.47l153.49 -123.52c18.62,-17.01 45.46,-25.48 45.46,-49.51 0,-32.34 -107.04,-146.33 -133.37,-167.4 -187.52,-150.09 -394.24,-267.92 -650.19,-267.92 -230.09,0 -343.23,4.96 -560.4,104.43 -116.73,53.47 -220.35,126.19 -308.25,214.14 -203.23,203.36 -292.66,438.31 -310.8,742.07l21.75 239.53c78.8,412.94 361.08,704.14 754.95,820.09 58.05,17.08 157.56,40.48 228.63,40.48zm-14104.15 -2073.68c-52.71,-12.27 -178.96,-90.7 -227.94,-120.31 -59.2,-35.76 -174.31,-92.29 -246.95,-109.21 -46.54,34.09 -108.12,148.74 -118.56,221.77 -14.73,102.98 7.02,231.23 8.07,316.11 1.91,154.84 -23.39,190.74 74.26,266.09l358.78 321.88c68.97,63.24 167.47,42.33 276.55,27.27 100.52,-13.88 211.77,-11.58 304.94,-35.38 93.86,-23.98 188.2,-106.81 188.2,-160.05 0,-61.44 -154.82,-253.95 -203.53,-318.85 -35.23,-46.94 -45.91,-56.44 -73.49,-108.55l397.69 77.19c199.98,40.62 157.7,62.03 375.63,-198.25 239.73,-286.32 298.22,-200.3 2.4,-583.43 -55.42,-71.79 -181.54,-193.53 -251.42,-255.12l-68.54 -58.09c-151.14,-118.78 -326.48,-256.07 -516.28,-306.88 -24.09,-6.45 -30.73,-3.64 -50.28,-13.02 -12.94,19.31 -25.6,37.43 -39.49,55.49l-287.06 322.37c-121.72,136.28 -69.52,138.25 1.04,351.3 23.79,71.84 90.48,241.6 95.98,307.67zm17681.63 2026.19c96.53,0 163.82,7.92 261.18,7.92l316.6 0 0 -1163.48c0,-144.05 7.92,-260.09 7.92,-403.65l886.45 0c38.11,0 23.8,-74.6 23.75,-110.8l7.91 -403.67 -1503.81 0 0 2073.68zm-10787.85 7.92l569.86 0c0,-101.74 7.92,-174.52 7.92,-277.03l0 -1282.19c84.81,0 143.03,-8.23 221.59,-7.94l585.98 0.28c41.9,-1.25 59.78,-8.17 110.54,-8.17l0 -482.8c0,-18.24 -5.51,-23.75 -23.74,-23.75l-1472.15 0 0 2081.6zm-7154.97 -2342.78c-7.52,-90.36 -181.3,-582.74 -216.02,-670.44 -98.47,-248.78 -55.94,-321.26 -220.2,-373.4 -77.01,-24.44 -162.45,-40.01 -237.51,-63.26 -78.55,-24.32 -152.64,-48.91 -229.49,-71.28 -58.72,-17.09 -179.36,-54.88 -244.43,-56.33l634.33 845.74c59.8,79.71 197.66,281.69 276.24,325.29 42.62,23.64 171.26,63.68 237.08,63.68zm2303.21 1812.48c-2.58,-30.93 -154.8,-370.6 -171.88,-413.81l-131.58 -311.65c-27.42,-62.56 -6.16,-58.69 -76.12,-74.26l-862.39 -166.54c-34.14,-6.83 -91.12,-22.28 -127.29,-23.08 3.34,40.22 70.14,152.78 90.38,202.46 36.09,88.58 80.3,95.89 155.48,137.36l376.91 216.7c124.9,74.9 244.19,141.37 369.94,215.76l376.55 217.06zm-1844.15 -419.48c0,97.75 59.06,611.64 114.67,653.06 43.16,32.14 569.31,98.84 676.81,98.84 -69.57,-131.46 -141.69,-221.39 -211.13,-335l-271.67 -432.73c-109.01,0 -203.4,15.83 -308.68,15.83zm-965.6 -854.79l-15.84 -300.77 -406.25 -195.27c-39.12,-18.12 -65.14,-28.51 -102.93,-47.45l-203.33 -97.42c-19.77,-9.02 -34.1,-15.62 -54.29,-24.88 -18.45,-8.46 -34.16,-17.64 -56.33,-22.81 4.01,48.17 20.95,116.59 29.68,160.28l115.54 454.33c23.31,71.14 36.04,66.7 123.82,66.12 63.36,-0.42 126.76,0.2 190.12,-0.15 65.09,-0.38 109.84,8.05 181.94,8.02 65.95,-0.05 131.91,0 197.87,0zm1131.81 -1408.84l246.95 132.96c73.27,43.59 157.65,110.79 224.51,163.31l142.55 118.64c89.97,69.58 240.75,233.28 317.52,323.58 61.45,72.28 129.48,200.9 168.63,227.11 34.43,-23.05 99.37,-106.32 99.19,-166.18 -0.27,-87.95 -120.53,-226.74 -180.67,-298.46 -12.48,-14.87 -22.39,-21.94 -35.36,-35.88 -15.04,-16.16 -14.58,-19.34 -27.97,-35.35 -11.75,-14.05 -22.18,-22.99 -35.25,-35.97l-178.45 -169.81c-96.03,-80.28 -248.45,-211.49 -356.39,-268.86 -94.64,-50.31 -222.73,-123.85 -316.15,-28.44 -24.92,25.45 -50.16,45.06 -69.11,73.35zm-1448.4 1836.23l0 15.83c22.5,6.01 43.28,27.03 63.65,39.24l197.53 119.05c260.84,174.38 186.99,160.48 341.52,283.76 43.3,34.55 154.81,165.4 199.18,220.3l92.48 121.21c0,-149.2 58.62,-324.9 -50.46,-432.33l-181.04 -175.13c-13.13,-13.17 -22.02,-23.53 -35.68,-35.55 -18.31,-16.13 -24.98,-17.5 -43.56,-35.59 -233.06,-226.9 -394.93,-120.79 -583.62,-120.79zm569.86 1179.3c-1.04,-46.56 -44.23,-106.87 -67.78,-138 -138.43,-182.99 -356.24,-372.18 -551.14,-501.52 -50.93,-33.8 -214.39,-146.87 -275.46,-151.96 66.8,126.22 134.6,194.14 227.66,294.73 19.85,21.45 25.08,33.54 47.27,55.62 33.86,33.69 71.54,76.92 108.33,105.37 151.46,117.15 174.09,156.5 364.04,269.14 51.84,30.74 95.48,41.86 147.08,66.62zm-894.38 -949.77c207.48,48.34 465.66,233.96 627.31,377.87l130.54 122.74c119.24,119.25 186.65,205.38 276.44,356.74 9.41,15.86 14.37,24.21 24.23,39.08 12.88,19.39 9.29,23.07 33.73,29.6 9.31,-111.92 102.71,-63.9 -151.49,-378.8 -80.14,-99.27 -265.86,-273.44 -367.44,-352.81 -135.59,-105.94 -240.79,-187.83 -407.05,-249.87 -86.04,-32.11 -107.77,-30.8 -139.52,10.93 -14.85,19.52 -21.04,23.19 -26.75,44.52z"/>
 </g>
</svg>
