<?xml version="1.0" encoding="UTF-8"?>
<!DOCTYPE svg PUBLIC "-//W3C//DTD SVG 1.1//EN" "http://www.w3.org/Graphics/SVG/1.1/DTD/svg11.dtd">
<!-- Creator: CorelDRAW 2020 (64-Bit) -->
<svg xmlns="http://www.w3.org/2000/svg" xml:space="preserve" width="41mm" height="41mm" version="1.1" style="shape-rendering:geometricPrecision; text-rendering:geometricPrecision; image-rendering:optimizeQuality; fill-rule:evenodd; clip-rule:evenodd"
viewBox="0 0 4100 4100"
 xmlns:xlink="http://www.w3.org/1999/xlink"
 xmlns:xodm="http://www.corel.com/coreldraw/odm/2003">
 <defs>
  <style type="text/css">
   <![CDATA[
    .fil0 {fill:#006C9B}
    .fil1 {fill:#006C9B;fill-rule:nonzero}
    .fil2 {fill:#221D1A}
    .fil4 {fill:#3A2104}
    .fil5 {fill:#CE341C}
    .fil3 {fill:#FEC209}
   ]]>
  </style>
 </defs>
 <g id="Layer_x0020_1">
  <metadata id="CorelCorpID_0Corel-Layer"/>
  <path class="fil0" d="M3052.47 948.12l-1013.11 691.67 -1003.26 -693.82c265.86,-241.95 619.21,-389.44 1007.01,-389.44 388.94,0 743.23,148.36 1009.36,391.59zm-635.73 2554.64c645.77,-165.96 1122.99,-752.06 1122.99,-1449.61 0,-175.74 -30.29,-344.4 -85.93,-501.05l-1037.06 715.61 0 1235.05zm-747.87 -0.16c-645.46,-166.17 -1122.38,-752.11 -1122.38,-1449.45 0,-175.08 30.06,-343.13 85.3,-499.29l1037.08 715.56 0 1233.18zm374.24 100.13c-855.81,0 -1549.58,-693.77 -1549.58,-1549.58 0,-855.81 693.77,-1549.58 1549.58,-1549.58 855.81,0 1549.58,693.77 1549.58,1549.58 0,855.81 -693.77,1549.58 -1549.58,1549.58zm0 395.98c-1074.5,0 -1945.56,-871.06 -1945.56,-1945.56 0,-1074.5 871.06,-1945.56 1945.56,-1945.56 1074.5,0 1945.56,871.06 1945.56,1945.56 0,1074.5 -871.06,1945.56 -1945.56,1945.56zm0 54.44c-1104.57,0 -2000,-895.43 -2000,-2000 0,-1104.57 895.43,-2000 2000,-2000 1104.57,0 2000,895.43 2000,2000 0,1104.57 -895.43,2000 -2000,2000z"/>
  <path class="fil1" d="M1794.57 3808.31l39.68 5.04 -4.97 39.11c-0.4,3.22 1.42,5.08 5.48,5.59 4.26,0.54 6.59,-0.79 6.99,-4l17.43 -137.19c0.41,-3.21 -1.51,-5.08 -5.76,-5.62 -4.06,-0.52 -6.3,0.83 -6.71,4.09l-6.23 48.98 -39.68 -5.04 6.41 -50.45c1.2,-9.4 6.79,-16.37 16.77,-20.91 9.98,-4.49 20.78,-6 32.45,-4.52 33.68,4.28 49.03,18.33 46.01,42.09l-16.21 127.59c-3.26,25.7 -21.76,36.41 -55.44,32.13 -30.19,-3.84 -43.77,-17.47 -40.79,-40.9l4.57 -35.99zm-110.09 -150.62l43.04 7.68 -2.18 54.18 19.13 3.41 16.8 -51.56 43.03 7.68 -67.41 191.13 -55.27 -9.87 2.86 -202.65zm39.46 89.76l-4.31 59.89 16.4 -57.73 -12.09 -2.16zm-107.8 -31.21l20.13 -70.91 41.23 11.7 -54.63 192.4 -44.43 -12.62c-17.59,-5 -30.06,-10.96 -37.32,-17.82 -7.29,-6.93 -8.96,-17.25 -5.04,-31.04l15.14 -53.32c3.59,-12.64 9.59,-20.54 18.04,-23.79 8.5,-3.27 24.08,-1.47 46.88,5.4zm-24.71 33.67l-13.11 46.17c-1.93,6.79 1.78,11.5 11.13,14.15l18.88 -66.51c-9.34,-2.65 -14.97,-0.59 -16.9,6.19zm-130.92 -159.61l41.4 14.01 -10.22 53.24 18.4 6.23 24.3 -48.48 41.41 14.01 -95.14 178.95 -53.18 -18 33.03 -199.96zm25.63 94.64l-13.18 58.58 24.82 -54.64 -11.64 -3.94zm-180.84 30.21l22.86 9.02 63.82 -161.88 40.93 16.14 -63.82 161.88 22.86 9.01 -9.54 24.18 -86.65 -34.16 9.54 -24.19zm40.85 -134.86l-58.63 114.48c-11.81,23.06 -32.63,26.94 -62.51,11.64 -29.46,-15.09 -38.35,-34.08 -26.62,-56.97l58.63 -114.48c5.29,-10.34 13.49,-16.2 24.57,-17.59 11.03,-1.36 23.18,1.34 36.36,8.09 29.71,15.21 39.12,33.51 28.2,54.83zm-49.97 -27.78l-61.99 121.04c-1.83,3.56 -0.66,6.41 3.49,8.53 4.32,2.22 7.4,1.55 9.22,-2.02l62 -121.04c1.82,-3.56 0.57,-6.45 -3.75,-8.66 -4.16,-2.13 -7.15,-1.41 -8.97,2.15zm-31.64 -52.2l-99.7 173.38 -44.91 -25.82c-10.74,-6.17 -18.66,-13.97 -23.75,-23.38 -5.12,-9.43 -4.6,-19.51 1.55,-30.2l13.84 -24.07c7,-12.18 19.34,-16.45 37.03,-12.92 -13.41,-12.88 -16.42,-25.7 -9.04,-38.54l19.35 -33.65c6.58,-11.43 15.23,-17.88 25.95,-19.24 10.75,-1.4 21.3,0.88 31.62,6.81l48.06 27.63zm-113.48 84.43l-16.97 29.52c-3.49,6.07 -1.68,11.12 5.43,15.21l27.48 -47.81c-7.1,-4.08 -12.41,-3.07 -15.94,3.08zm46.57 -80.99l-25.23 43.88c-3.49,6.07 -1.67,11.13 5.43,15.21l35.74 -62.17c-7.1,-4.08 -12.4,-3.07 -15.94,3.08zm-177.8 -1.04l33.68 21.59 -21.28 33.19c-1.75,2.72 -0.9,5.19 2.55,7.4 3.61,2.32 6.28,2.11 8.03,-0.62l74.64 -116.41c1.74,-2.73 0.81,-5.25 -2.8,-7.56 -3.44,-2.21 -6.04,-1.95 -7.81,0.81l-26.65 41.57 -33.68 -21.58 27.45 -42.82c5.11,-7.98 13.15,-11.87 24.12,-11.69 10.94,0.23 21.34,3.5 31.25,9.85 28.58,18.33 36.41,37.6 23.49,57.77l-69.42 108.28c-13.98,21.81 -35.28,23.54 -63.86,5.21 -25.62,-16.42 -32.04,-34.56 -19.29,-54.45l19.58 -30.54zm-25.56 -184.85l36.62 28.77 -29.85 77.75 49.17 -62.56 32.35 25.42 -123.58 157.25 -32.35 -25.42 43.31 -55.11 -42.98 30.18c-12.22,8.62 -23.93,8.57 -35.12,-0.23 -6.97,-5.47 -11.82,-10.01 -14.66,-13.64l16.45 -20.93c5.95,4.68 13.07,4.1 21.35,-1.75l40.98 -28.48 38.31 -111.25zm-16.33 -11l-138.01 144.76 -26.47 -25.24 62.93 -66 -83.16 46.71 -34.15 -32.56 138.01 -144.76 26.46 25.24 -73.54 77.13 95.29 -56.4 32.64 31.12zm-88.26 -83.35l-144.75 138.01 -25.24 -26.47 66 -62.92 -85.29 42.69 -32.56 -34.16 144.75 -138.01 25.24 26.48 -77.13 73.53 97.86 -51.79 31.12 32.64zm-239.95 96.13c17.54,-13.63 34.8,-11.53 51.79,6.29 17.18,18.02 18.46,35.37 3.81,52.02l-14.98 -15.71c5.67,-7.85 4.85,-15.61 -2.48,-23.3 -7.39,-7.75 -15.11,-8.95 -23.15,-3.58l-14.99 -15.72zm-83.89 -164.41l20.22 -15.89 23.65 30.1 137.04 -107.68 27.19 34.59 -157.26 123.58 -50.84 -64.7zm125.42 -109.71l-104.81 74.54c-21.12,15.01 -41.39,8.86 -60.84,-18.5 -19.18,-26.97 -18.31,-47.93 2.65,-62.83l104.81 -74.54c9.47,-6.73 19.44,-8.16 29.92,-4.27 10.41,3.87 19.96,11.87 28.54,23.94 19.34,27.2 19.25,47.78 -0.27,61.66zm-31.52 -47.7l-110.84 78.82c-3.26,2.31 -3.53,5.37 -0.83,9.18 2.82,3.96 5.85,4.77 9.11,2.46l110.83 -78.82c3.26,-2.32 3.49,-5.46 0.67,-9.41 -2.7,-3.81 -5.68,-4.55 -8.94,-2.23zm-164.44 -80.21l19.94 34.68 -34.18 19.66c-2.8,1.61 -3.19,4.19 -1.15,7.74 2.14,3.72 4.61,4.77 7.42,3.15l119.88 -68.93c2.81,-1.61 3.14,-4.28 1.01,-7.99 -2.05,-3.55 -4.47,-4.52 -7.32,-2.88l-42.81 24.61 -19.94 -34.67 44.09 -25.36c8.22,-4.72 17.15,-4.47 26.8,0.75 9.6,5.24 17.32,12.94 23.19,23.14 16.92,29.43 14.99,50.15 -5.77,62.09l-111.5 64.11c-22.46,12.91 -42.16,4.63 -59.09,-24.8 -15.16,-26.38 -12.5,-45.43 7.98,-57.21l31.45 -18.09zm-119.42 -77.23l161.73 -46.51c12.93,-3.68 22.96,-4.16 30.16,-1.37 7.14,2.76 13.21,8.96 18.16,18.63l12.2 23.82 -22.89 11.72c-4.65,-9.07 -8.04,-14.55 -10.21,-16.39 -2.11,-1.81 -5.39,-1.63 -9.75,0.61 -0.72,0.37 -2.18,1.49 -4.38,3.36l-124.35 105.05 -18.76 -36.62 76.94 -59.63 -91.14 31.91 -17.71 -34.58zm146.1 -283.07l12.05 30.56 -39.86 15.72 43.8 111.11 39.87 -15.72 11.32 28.7 -69.11 27.25 -6.28 -15.94c-14.77,-3.45 -29.98,-4.51 -45.72,-3.02 -15.72,1.44 -29.43,4.03 -41.1,7.81 -11.73,3.76 -38.53,13.92 -80.48,30.46l-38.36 -97.29 156.82 -61.83 -12.06 -30.56 69.11 -27.25zm-41.33 97.68l-127.59 50.31 7.65 19.4c55.03,-21.69 100.56,-30.84 136.6,-27.44l-16.66 -42.27zm-33.02 -206.21l11.94 42.05 -49.65 21.77 5.3 18.69 53.72 -7.48 11.94 42.05 -201.34 23.12 -15.34 -54.01 183.43 -86.19zm-63.41 74.78l-55.73 22.36 59.08 -10.54 -3.35 -11.82zm-18.85 -106.84l71.82 -16.58 9.64 41.76 -194.87 44.98 -10.39 -45c-4.12,-17.82 -4.91,-31.62 -2.4,-41.29 2.55,-9.72 10.78,-16.17 24.75,-19.39l54.01 -12.47c12.81,-2.95 22.62,-1.5 29.54,4.33 6.97,5.87 12.91,20.38 17.9,43.66zm-41.42 -5.39l-46.77 10.79c-6.87,1.59 -9.21,7.11 -7.02,16.58l67.37 -15.55c-2.19,-9.47 -6.71,-13.41 -13.58,-11.82zm-41.82 -154.26l5.05 39.68 -39.12 4.97c-3.21,0.41 -4.56,2.64 -4.04,6.7 0.54,4.26 2.41,6.18 5.63,5.77l137.18 -17.43c3.21,-0.41 4.55,-2.74 4.01,-6.99 -0.52,-4.06 -2.38,-5.89 -5.64,-5.48l-48.99 6.23 -5.04 -39.68 50.45 -6.41c9.4,-1.2 17.55,2.47 24.44,11 6.84,8.54 11.01,18.62 12.49,30.29 4.28,33.68 -5.48,52.06 -29.24,55.08l-127.6 16.21c-25.7,3.26 -40.69,-11.97 -44.97,-45.65 -3.83,-30.18 5.97,-46.74 29.4,-49.72l35.99 -4.57zm-53.2 -103.99l1.86 24.5 173.5 -13.2 3.34 43.88 -173.5 13.19 1.86 24.5 -25.92 1.97 -7.07 -92.87 25.93 -1.97zm173.18 -21.24l-199.94 5.06 -1.31 -51.79c-0.31,-12.38 2.22,-23.21 7.61,-32.44 5.38,-9.28 14.27,-14.08 26.6,-14.39l27.75 -0.7c14.04,-0.36 24.11,7.96 30.31,24.9 4.01,-18.15 13.4,-27.39 28.21,-27.77l38.79 -0.98c13.19,-0.33 23.2,3.7 29.94,12.15 6.79,8.45 10.33,18.65 10.63,30.55l1.41 55.41zm-131.15 -52.98l-34.04 0.86c-6.99,0.18 -10.36,4.36 -10.16,12.55l55.13 -1.4c-0.21,-8.19 -3.84,-12.19 -10.93,-12.01zm93.4 -2.36l-50.6 1.28c-7,0.17 -10.37,4.35 -10.17,12.54l71.69 -1.81c-0.2,-8.19 -3.83,-12.19 -10.92,-12.01zm38.67 -139.12l-2.17 85.97 -199.94 -5.06 2.16 -85.4 25.71 0.65 -1.05 41.42 53.98 1.36 0.95 -37.36 24.28 0.61 -0.95 37.37 70.26 1.78 1.07 -41.99 25.7 0.65zm12.37 -105.95l-5.55 43.64 -95.23 -12.1 -1.52 11.91 95.24 12.1 -5.55 43.65 -198.4 -25.21 5.54 -43.65 79.08 10.05 1.52 -11.91 -79.08 -10.05 5.54 -43.65 198.41 25.22zm17.64 -107.06l-7.73 43.32 -94.51 -16.88 -2.11 11.81 94.51 16.88 -7.74 43.31 -196.88 -35.15 7.73 -43.32 78.47 14.01 2.11 -11.81 -78.47 -14.01 7.74 -43.32 196.88 35.16zm39.9 -156.31l-12.02 42.33 -192.4 -54.63 12.02 -42.33 192.4 54.63zm-41.6 146.49l-192.4 -54.63 11.71 -41.23 70.91 20.14c6.01,-21.16 12.09,-35.08 18.28,-41.69 6.18,-6.61 16.66,-7.79 31.41,-3.6l53.32 15.14c12.97,3.68 20.79,10.11 23.45,19.23 2.69,9.18 1.2,23.66 -4.44,43.54l-12.24 43.1zm-82.29 -67.91l66.51 18.88c2.6,-9.16 0.74,-14.64 -5.63,-16.44l-48.09 -13.66c-5.91,-1.68 -9.8,0.68 -11.64,7.14l-1.15 4.08zm126.73 -87.57l-189.45 -64.1 11.72 -34.64 86.38 29.22 -77.42 -55.7 15.13 -44.7 189.45 64.1 -11.73 34.64 -100.95 -34.15 91.32 62.62 -14.45 42.71zm-196.57 -167.86c20.21,9.21 26.37,25.47 18.48,48.79 -7.98,23.59 -22.75,32.77 -44.3,27.53l6.96 -20.57c9.58,1.39 16.08,-2.95 19.48,-13.01 3.43,-10.15 0.91,-17.54 -7.58,-22.17l6.96 -20.57zm118.96 -173.38l137.17 97.49c10.94,7.82 17.56,15.37 19.87,22.73 2.29,7.31 1.22,15.92 -3.25,25.81l-11.03 24.39 -23.43 -10.59c4.2,-9.29 6.37,-15.36 6.45,-18.2 0.11,-2.78 -2.08,-5.23 -6.55,-7.25 -0.73,-0.33 -2.52,-0.77 -5.36,-1.32l-159.65 -31.78 16.95 -37.49 94.59 23.01 -81.76 -51.39 16 -35.41zm235.65 -9.58l-21.93 38.14 -83.22 -47.85 -5.99 10.4 83.23 47.85 -21.94 38.15 -173.38 -99.7 21.94 -38.14 69.1 39.74 5.98 -10.41 -69.1 -39.73 21.93 -38.15 173.38 99.7zm4.72 -8.11l-168.37 -107.94 19.74 -30.79 76.77 49.22 -61.69 -72.75 25.47 -39.73 168.37 107.94 -19.73 30.79 -89.72 -57.51 73.5 82.81 -24.34 37.96zm74.33 -112.83l-157.25 -123.57 32.01 -40.74c7.65,-9.74 16.51,-16.46 26.55,-20.14 10.06,-3.72 19.97,-1.75 29.66,5.87l21.83 17.15c11.05,8.68 13.5,21.51 7.47,38.51 14.67,-11.42 27.79,-12.55 39.44,-3.4l30.51 23.98c10.37,8.15 15.51,17.64 15.32,28.44 -0.16,10.84 -3.93,20.96 -11.29,30.32l-34.25 43.58zm-67.25 -124.43l-26.77 -21.04c-5.5,-4.32 -10.76,-3.25 -15.82,3.19l43.35 34.07c5.06,-6.44 4.82,-11.84 -0.76,-16.22zm73.46 57.72l-39.8 -31.27c-5.5,-4.33 -10.76,-3.25 -15.82,3.19l56.38 44.31c5.06,-6.44 4.82,-11.84 -0.76,-16.23zm117.43 -83.39l-56.3 65 -151.17 -130.95 55.93 -64.57 19.44 16.84 -27.13 31.31 40.82 35.36 24.47 -28.26 18.36 15.9 -24.48 28.26 53.13 46.02 27.5 -31.75 19.43 16.84zm-18.3 -86.62l53.35 50.86 -29.57 31.02 -144.75 -138.01 31.87 -33.43c12.62,-13.23 23.7,-21.48 33.16,-24.7 9.52,-3.23 19.44,0.11 29.81,10l40.12 38.25c9.51,9.07 13.7,18.06 12.63,27.04 -1.06,9.06 -9.91,22 -26.62,38.97zm-18.27 -37.56l-34.75 -33.12c-5.1,-4.86 -11,-3.78 -17.7,3.25l50.04 47.71c6.7,-7.03 7.51,-12.98 2.41,-17.84zm105.24 -119.45l-30.23 26.19 -25.82 -29.8c-2.12,-2.45 -4.72,-2.33 -7.82,0.35 -3.24,2.81 -3.8,5.44 -1.68,7.88l90.54 104.53c2.12,2.44 4.8,2.27 8.04,-0.54 3.1,-2.68 3.59,-5.25 1.43,-7.73l-32.33 -37.32 30.24 -26.2 33.3 38.45c6.2,7.16 7.66,15.97 4.38,26.44 -3.32,10.43 -9.4,19.48 -18.29,27.18 -25.66,22.23 -46.37,24.29 -62.05,6.19l-84.21 -97.22c-16.96,-19.58 -12.6,-40.5 13.07,-62.73 23,-19.93 42.21,-20.94 57.68,-3.09l23.75 27.42zm92.48 91.86l-123.57 -157.26 28.75 -22.59 56.35 71.7 -34.37 -88.98 37.11 -29.15 123.57 157.25 -28.75 22.6 -65.85 -83.8 42.22 102.36 -35.46 27.87zm78.71 -270.69l-20.68 13.26 93.91 146.48 -37.05 23.75 -93.91 -146.48 -20.68 13.26 -14.03 -21.89 78.41 -50.27 14.03 21.89zm175.07 98.44l-74.55 42.86 -99.69 -173.38 74.05 -42.58 12.82 22.29 -35.91 20.65 26.91 46.81 32.41 -18.63 12.1 21.05 -32.4 18.64 35.03 60.93 36.41 -20.94 12.82 22.3zm8.48 -200.38l-21.87 11.2 79.32 154.87 -39.16 20.06 -79.32 -154.87 -21.87 11.2 -11.85 -23.14 82.9 -42.46 11.85 23.14zm136.48 -85.86l9.44 23.92 -35.62 14.04 63.93 162.14 -40.94 16.14 -73.36 -186.06 76.55 -30.18zm161.71 155.69l-81.46 27.57 -64.11 -189.45 80.92 -27.38 8.25 24.36 -39.25 13.27 17.31 51.15 35.41 -11.98 7.78 23.01 -35.41 11.98 22.53 66.58 39.79 -13.46 8.24 24.35zm102.62 -28.94l-42.33 12.02 -26.23 -92.35 -11.54 3.28 26.23 92.34 -42.33 12.02 -54.64 -192.39 42.33 -12.02 21.78 76.68 11.54 -3.27 -21.78 -76.69 42.33 -12.01 54.64 192.39zm93.02 -19.97l-83.8 19.34 -44.97 -194.88 83.24 -19.21 5.78 25.06 -40.37 9.31 12.15 52.62 36.42 -8.41 5.46 23.67 -36.42 8.4 15.8 68.49 40.93 -9.45 5.78 25.06zm76.31 -184.93l-24.37 3.09 21.93 172.62 -43.65 5.54 -21.93 -172.61 -24.38 3.1 -3.27 -25.79 92.4 -11.74 3.27 25.79zm30.41 170.79l-15.17 -199.43 36.47 -2.77 6.92 90.92 20.95 -93.04 47.06 -3.58 15.16 199.42 -36.46 2.78 -8.08 -106.27 -21.88 108.55 -44.97 3.42zm233.06 -10.88l-46.56 1.18 -26.57 -78.92 2.01 79.54 -41.13 1.04 -5.06 -199.93 41.13 -1.04 1.77 70.07 13.87 -50.66c3.92,-14.43 12.98,-21.85 27.21,-22.21 8.85,-0.23 15.49,0.18 19.99,1.16l0.67 26.61c-7.57,0.19 -12.68,5.18 -15.34,14.96l-13.41 48.07 41.42 110.13zm5.26 1.22l15.17 -199.43 36.47 2.78 -6.92 90.93 34.79 -88.81 47.05 3.58 -15.17 199.42 -36.46 -2.77 8.08 -106.27 -38.04 103.99 -44.97 -3.42zm130.39 35.03l-7.06 -7.52c7.02,-5.4 11.15,-10.73 12.4,-15.99l-15.59 -1.98 3.67 -28.91 36 4.57 -2.52 19.79c-1.52,12 -10.47,22 -26.9,30.04zm85.2 -12.28l35.16 -196.89 80.06 14.3 -4.52 25.32 -37.87 -6.77 -8.44 47.25c21.51,3.85 35.91,8.55 43.28,14.12 7.38,5.57 9.7,15.86 7.02,30.86l-9.74 54.56c-2.01,11.25 -6.93,19.28 -14.7,24.08 -7.82,4.79 -22.23,5.32 -43.28,1.56l-46.97 -8.39zm63.42 -28.49l8.45 -47.29c1.23,-6.9 -2.43,-11.08 -11,-12.61l-1.51 -0.27 -12.15 68.07c9.55,1.8 14.95,-0.82 16.21,-7.9zm46.47 49.16l54.63 -192.39 35.18 9.99 -24.91 87.72 51.8 -80.09 45.4 12.9 -54.64 192.39 -35.18 -9.99 29.11 -102.52 -58.01 94.31 -43.38 -12.32zm127.05 1l41.23 -121.83c8.3,-24.54 28.33,-31.44 60.13,-20.68 31.35,10.61 42.92,28.1 34.68,52.46l-41.22 121.83c-3.73,11.01 -10.97,18.01 -21.74,21 -10.7,2.97 -23.12,2.08 -37.15,-2.67 -31.62,-10.69 -43.61,-27.42 -35.93,-50.11zm53.5 20.17l43.59 -128.83c1.29,-3.79 -0.28,-6.43 -4.71,-7.92 -4.6,-1.56 -7.54,-0.45 -8.82,3.34l-43.59 128.83c-1.28,3.79 0.38,6.46 4.98,8.02 4.42,1.49 7.27,0.35 8.55,-3.44zm194.55 -73.6l-22.39 -10.12 -71.68 158.55 -40.09 -18.13 71.68 -158.55 -22.39 -10.12 10.71 -23.69 84.87 38.37 -10.71 23.69zm12.93 200.22l-76.55 -39.2 91.17 -178.01 76.04 38.94 -11.72 22.89 -36.88 -18.89 -24.61 48.06 33.27 17.04 -11.07 21.62 -33.27 -17.04 -32.04 62.56 37.38 19.14 -11.72 22.89zm114.34 64.87l-40.87 -23.5 14.67 -65.72 -48.4 46.33 -36.36 -20.92 86.58 -81.33 20.79 -87.63 36.65 21.07 -15.37 58.07 44.06 -41.57 34.23 19.68 -72.18 65.34 -23.8 110.18zm85.92 60.73l-35.86 -25.5 55.64 -78.24 -9.78 -6.95 -55.63 78.24 -35.86 -25.5 115.9 -162.99 35.86 25.5 -46.2 64.96 9.78 6.95 46.2 -64.96 35.86 25.5 -115.91 162.99zm28.56 -22.12l79.47 -101.13c16.01,-20.36 37.19,-20.19 63.59,0.55 26.02,20.45 31.1,40.8 15.22,61.02l-79.47 101.13c-7.19,9.13 -16.35,13.32 -27.49,12.55 -11.09,-0.77 -22.5,-5.75 -34.14,-14.9 -26.25,-20.62 -31.98,-40.38 -17.18,-59.22zm43.73 36.85l84.03 -106.94c2.47,-3.14 1.87,-6.15 -1.8,-9.04 -3.82,-3 -6.96,-2.93 -9.43,0.22l-84.04 106.93c-2.47,3.14 -1.8,6.22 2.02,9.22 3.67,2.88 6.74,2.75 9.22,-0.39zm105.99 136.35l-31.02 -29.57 120.07 -125.94 -10.96 -10.45 -103.94 109.02c-11.79,12.37 -25.7,10.95 -41.73,-4.33 -7,-6.67 -12.74,-13.2 -17.24,-19.53l19.42 -20.37c1.35,2.94 3.37,5.72 6.13,8.35 2.34,2.23 4.42,3.16 6.13,2.75 1.74,-0.38 4.61,-2.71 8.65,-6.95l110.74 -116.14 71.76 68.41 -138.01 144.75zm32.14 -17.25l93.09 -88.75c18.74,-17.88 39.69,-14.68 62.85,9.61 22.84,23.96 24.97,44.82 6.36,62.57l-93.09 88.75c-8.41,8.02 -18.08,10.85 -29,8.51 -10.86,-2.35 -21.45,-8.9 -31.67,-19.62 -23.03,-24.16 -25.88,-44.54 -8.54,-61.07zm38.02 42.71l98.43 -93.85c2.89,-2.76 2.73,-5.83 -0.49,-9.21 -3.35,-3.51 -6.47,-3.89 -9.37,-1.13l-98.43 93.85c-2.9,2.76 -2.67,5.89 0.68,9.41 3.22,3.38 6.28,3.69 9.18,0.93zm216.98 -8l-19.43 16.84 -25.07 -28.94 -131.73 114.11 -28.81 -33.25 151.17 -130.95 53.87 62.19zm-145.5 136.41l163 -115.91 21.19 29.81 -74.32 52.84 90.52 -30.07 27.35 38.46 -162.99 115.91 -21.2 -29.81 86.85 -61.76 -104.26 37.28 -26.14 -36.75zm70.53 98.79l168.37 -107.94 19.74 30.79 -76.77 49.22 91.86 -25.69 25.47 39.73 -168.38 107.94 -19.73 -30.79 89.72 -57.52 -105.94 32.23 -24.34 -37.97zm253.86 -48.71c-19.81,10.04 -36.36,4.7 -49.64,-16.02 -13.44,-20.97 -11.39,-38.24 6.16,-51.81l11.72 18.28c-7.07,6.63 -7.74,14.41 -2.01,23.35 5.78,9.02 13.13,11.66 22.05,7.92l11.72 18.28zm-164.91 196.18l178.01 -91.17 16.67 32.55 -81.16 41.57 93.9 -16.69 21.52 42 -178.01 91.17 -16.68 -32.55 94.86 -48.58 -108.55 21.84 -20.56 -40.14zm73.08 155.92l186.06 -73.36 13.41 34.02 -84.83 33.45 95.08 -7.44 17.31 43.9 -186.06 73.36 -13.41 -34.03 99.14 -39.09 -110.16 11.14 -16.54 -41.95zm69.5 209.1l-12.01 -42.32 92.35 -26.23 -3.28 -11.54 -92.35 26.22 -12.02 -42.32 192.39 -54.64 12.02 42.33 -76.68 21.78 3.28 11.54 76.68 -21.78 12.02 42.33 -192.4 54.63zm201.83 -30.38l7.74 43.31c-3.8,4.74 -14.13,8.91 -31.05,12.51l1.19 -0.36 -8.65 1.4 -17.58 3.14c-8.53,1.53 -13.51,2.9 -14.93,4.17 -1.42,1.22 -1.6,4.83 -0.54,10.79l74.82 -13.36 7.73 43.31 -74.81 13.36 0.86 4.83c0.91,5.11 8.31,6.45 22.23,3.96 23.35,-4.17 37.35,-6.48 41.98,-6.86 4.66,-0.4 9,0.56 13.01,2.99l7.73 43.32c-3.57,-4.59 -24.37,-3.49 -62.43,3.31 -9.52,1.7 -18.67,-0.78 -27.4,-7.44 -8.74,-6.66 -14.18,-16 -16.32,-28l-2.16 -12.09c0.57,37.05 -9.06,57.34 -28.94,60.89 -36.8,6.57 -56.69,12.74 -59.63,18.49l-7.73 -43.32c4.47,-5.54 17.75,-10.28 39.83,-14.22l24.08 -3.87c4.59,-0.82 7.23,-2.02 7.92,-3.59 0.72,-1.63 0.61,-4.95 -0.28,-9.96l-74.82 13.36 -7.73 -43.32 74.81 -13.36 -0.86 -4.82c-0.91,-5.11 -8.4,-6.44 -22.51,-3.92 -23.07,4.12 -36.93,6.4 -41.65,6.81 -4.67,0.4 -9.05,-0.56 -13.06,-2.99l-7.73 -43.31c3.57,4.58 24.32,3.49 62.34,-3.3 19.87,-3.55 35.93,12.16 48.22,47.11l-2.16 -12.09c-1.76,-9.89 -0.22,-19.94 4.6,-30.09 4.85,-10.2 12.91,-16.28 24.15,-18.29 38.07,-6.8 57.96,-12.96 59.73,-18.5zm-156.1 293.3l-10.84 -85.31 198.41 -25.21 10.76 84.75 -25.5 3.24 -5.23 -41.1 -53.56 6.81 4.71 37.08 -24.1 3.06 -4.71 -37.08 -69.72 8.86 5.29 41.66 -25.51 3.24zm7.03 106.42l-3.34 -43.87 95.73 -7.28 -0.91 -11.97 -95.73 7.28 -3.33 -43.87 199.42 -15.17 3.34 43.88 -79.49 6.04 0.91 11.97 79.49 -6.05 3.33 43.87 -199.42 15.17zm-2.58 95.18l2.18 -85.97 199.93 5.05 -2.16 85.4 -25.7 -0.65 1.05 -41.41 -53.99 -1.37 -0.94 37.37 -24.28 -0.61 0.95 -37.37 -70.27 -1.78 -1.06 41.99 -25.71 -0.65zm71.23 55.57l-73.5 -5.59 3.25 -42.74 199.42 15.17 -3.5 46.06c-1.39,18.23 -4.75,31.64 -10.02,40.12 -5.33,8.52 -15.12,12.22 -29.41,11.13l-55.27 -4.2c-13.1,-1 -22.04,-5.31 -26.9,-12.94 -4.91,-7.68 -6.25,-23.3 -4.07,-47.01zm37.93 17.5l47.86 3.64c7.02,0.53 10.91,-4.04 11.64,-13.73l-68.94 -5.24c-0.74,9.68 2.41,14.79 9.44,15.33zm-116.51 42.38l198.4 25.21 -4.61 36.28 -90.46 -11.5 86.94 39.23 -5.95 46.81 -198.4 -25.21 4.61 -36.28 105.72 13.43 -101.93 -43.24 5.68 -44.73zm-15.27 120.52l194.88 44.98 -8.22 35.64 -88.86 -20.51 82.57 47.74 -10.61 45.98 -194.88 -44.98 8.22 -35.63 103.85 23.97 -97.09 -53.25 10.14 -43.94zm-39.59 167.74l189.45 64.1 -11.72 34.64 -86.38 -29.22 77.42 55.7 -15.13 44.7 -189.45 -64.1 11.73 -34.64 100.94 34.15 -91.32 -62.61 14.46 -42.72zm-99.05 255.48l16.12 -35.67 102.32 46.26 -92.88 -67.13 12.47 -27.6 113.13 22.35 -102.32 -46.25 14.13 -31.25 182.24 82.39 -23.27 51.46 -102.82 -24.43 87.34 58.67 -24.22 53.59 -182.24 -82.39zm-43.68 85.11l39.2 -76.54 178.01 91.17 -38.94 76.03 -22.89 -11.72 18.89 -36.87 -48.06 -24.62 -17.04 33.27 -21.62 -11.07 17.04 -33.27 -62.56 -32.04 -19.14 37.39 -22.89 -11.73zm-53.9 92.02l21.94 -38.14 83.22 47.85 5.98 -10.4 -83.22 -47.85 21.93 -38.15 173.38 99.7 -21.93 38.14 -69.11 -39.73 -5.98 10.4 69.11 39.73 -21.94 38.15 -173.38 -99.7zm-5.91 7.45l162.99 115.91 -21.2 29.8 -74.31 -52.85 58.11 75.63 -27.35 38.46 -162.99 -115.91 21.2 -29.8 86.85 61.76 -69.44 -86.25 26.14 -36.75zm-166.98 213.71l28.8 -33.26 72.57 62.85 7.85 -9.07 -72.56 -62.85 28.81 -33.26 151.17 130.94 -28.81 33.26 -60.25 -52.19 -7.86 9.07 60.26 52.19 -28.81 33.26 -151.17 -130.94zm-31.27 32.12l25.04 -26.26 21.1 20.11 -25.04 26.26 -21.1 -20.11zm-5.34 6.7l138.01 144.75 -26.47 25.24 -62.93 -66 42.7 85.29 -34.16 32.56 -138.01 -144.75 26.47 -25.23 73.54 77.13 -51.79 -97.87 32.64 -31.12zm-115.49 106.02l27.43 -23.76 19.08 22.03 -27.43 23.75 -19.08 -22.02zm-44.71 38.4l115.91 162.99 -42.23 30.02c-10.09,7.18 -20.48,11.13 -31.15,11.82 -10.71,0.72 -19.65,-3.97 -26.8,-14.02l-16.09 -22.62c-8.14,-11.45 -6.87,-24.45 3.73,-39.06 -17.31,6.82 -30.22,4.19 -38.8,-7.88l-22.49 -31.62c-7.64,-10.75 -9.89,-21.31 -6.65,-31.62 3.22,-10.35 9.7,-18.99 19.4,-25.89l45.17 -32.12zm29.33 138.37l19.73 27.74c4.06,5.71 9.41,6.17 16.09,1.42l-31.96 -44.94c-6.68,4.75 -7.97,10 -3.86,15.78zm-54.15 -76.14l29.34 41.25c4.06,5.7 9.41,6.16 16.09,1.42l-41.57 -58.45c-6.67,4.75 -7.97,10 -3.86,15.78zm-163.48 65.1l36.8 -23.59 35.2 41.23 16.36 -10.48 -22.7 -49.26 36.8 -23.59 80.36 186.06 -47.27 30.3 -135.55 -150.67zm89.92 39.08l37.52 46.87 -27.17 -53.51 -10.35 6.64zm-95.49 -35.41l91.17 178.01 -46.11 23.62c-11.03,5.64 -21.88,8.05 -32.54,7.2 -10.7,-0.84 -18.87,-6.76 -24.49,-17.74l-12.66 -24.71c-6.4,-12.5 -3.27,-25.19 9.32,-38.11 -18.1,4.25 -30.5,-0.21 -37.25,-13.39l-17.69 -34.55c-6.01,-11.74 -6.71,-22.51 -2.01,-32.24 4.67,-9.78 12.33,-17.39 22.92,-22.82l49.34 -25.27zm9.05 141.16l15.52 30.3c3.19,6.23 8.42,7.46 15.71,3.72l-25.13 -49.08c-7.29,3.74 -9.33,8.74 -6.1,15.06zm-42.59 -83.16l23.08 45.05c3.19,6.23 8.42,7.46 15.71,3.73l-32.69 -63.83c-7.29,3.73 -9.33,8.73 -6.1,15.05zm-63.07 -7.9l82.39 182.24 -33.32 15.07 -37.57 -83.1 12.1 94.61 -43 19.44 -82.39 -182.24 33.32 -15.06 43.9 97.1 -16.52 -109.48 41.09 -18.58zm-219.67 87.95l40.59 -13.74 55.77 164.82 14.35 -4.85 -48.28 -142.67c-5.48,-16.2 2.24,-27.86 23.21,-34.95 9.16,-3.1 17.62,-5.16 25.3,-6.2l9.02 26.66c-3.22,-0.17 -6.62,0.33 -10.23,1.55 -3.07,1.04 -4.85,2.44 -5.28,4.15 -0.47,1.72 0.25,5.34 2.13,10.89l51.43 152.01 -93.91 31.78 -64.1 -189.45zm0.23 36.3l35.13 123.73c7.08,24.92 -5.51,41.96 -37.8,51.13 -31.84,9.04 -51.29,1.2 -58.32,-23.54l-35.13 -123.72c-3.17,-11.18 -1.18,-21.06 5.99,-29.63 7.14,-8.51 17.87,-14.82 32.12,-18.87 32.11,-9.11 51.47,-2.14 58.01,20.9zm-55.5 13.73l37.15 130.83c1.09,3.85 3.88,5.14 8.37,3.86 4.67,-1.32 6.46,-3.91 5.37,-7.76l-37.15 -130.83c-1.1,-3.84 -3.98,-5.1 -8.65,-3.78 -4.49,1.28 -6.19,3.84 -5.09,7.68zm-59.08 -17.95l44.98 194.87 -50.48 11.65c-12.07,2.79 -23.19,2.47 -33.31,-0.96 -10.17,-3.42 -16.65,-11.16 -19.43,-23.18l-6.24 -27.05c-3.16,-13.68 2.98,-25.22 18.34,-34.67 -18.6,-0.31 -29.53,-7.66 -32.86,-22.08l-8.73 -37.82c-2.96,-12.85 -1.01,-23.47 5.92,-31.76 6.92,-8.35 16.2,-13.86 27.8,-16.54l54.01 -12.46zm-25.66 139.09l7.66 33.18c1.57,6.82 6.34,9.29 14.32,7.44l-12.4 -53.73c-7.98,1.85 -11.18,6.2 -9.58,13.11zm-21.01 -91.03l11.38 49.32c1.57,6.82 6.35,9.29 14.33,7.45l-16.13 -69.88c-7.98,1.84 -11.18,6.19 -9.58,13.11zm-177.23 -9.48l43.36 -5.51 14.09 52.35 19.28 -2.45 0.64 -54.23 43.37 -5.5 -7.29 202.53 -55.7 7.07 -57.75 -194.26zm64.44 73.89l13.77 58.45 -1.58 -60 -12.19 1.55z"/>
  <circle class="fil0" cx="2043.11" cy="3796.09" r="42.73"/>
  <g id="_2248519518080">
   <path class="fil2" d="M919.15 1375.21c2.15,-11.25 2.94,-14.1 -0.8,-24.75 -4.61,-13.12 -17.03,-40.28 -15.84,-53.67 10.22,-2.8 17.07,-1.89 29.31,-4.63 16.54,-3.7 49.79,-0.4 63.68,-2.62 10.24,-1.63 21.04,-10.11 34.09,0.11l1.68 0.07c9.42,-6.61 0.68,-2.27 9.59,-3.84 28.79,2.42 20.32,0.17 40.77,14.66 99,70.21 236.67,156.15 327.03,224.73 60.09,45.61 16.26,103.55 58.7,139.69l119.01 82.42c40.72,27.85 79.13,54.74 119.81,81.65l237.37 161.46c-6.85,-19.36 -14.43,-33.14 -19.37,-56.88 -11.15,-53.5 -7.33,-99.22 -91.33,-133.34 26.16,12.35 66.58,46.83 71.66,82.74 -14.88,-11.22 -20.05,-22.1 -49.12,-38.81 -17.93,-10.3 -37.34,-17.78 -58.23,-25.57 -100.27,-37.42 -262.05,-106.9 -271.93,-237.26 15.36,16.53 26.49,56.44 89.59,100.35 138.22,96.2 306.63,80.39 329.9,234.24 11.41,75.45 16.74,87.19 66.95,122.11 37.73,26.24 73.63,50.01 110.5,75.51 38.42,26.58 72.27,50.25 114.02,74.99l121.09 66c-8.96,14.89 -19.47,13.71 -14.64,35.05 3.36,14.82 8.79,26.41 9.23,41.14 -45.7,-48.43 -156.77,-133.06 -216.04,-171.89 -39.54,-25.9 -75.72,-52.71 -115.86,-79.38 -48.26,-32.07 -61.9,-55.11 -142.11,-39.67 -71.78,13.82 -99.7,16.8 -152.31,-22.49 -65.54,-48.93 -116.95,-131.42 -197.89,-189.52 -46.1,-33.09 -73.81,-41.46 -139.89,-52.52 23.99,-1.45 37.88,-9.66 73.63,-4.68 63.73,8.88 128.01,45.91 169.55,87.17 15.66,15.55 28.66,26.12 44.22,42.59 13.62,14.41 27.71,31.9 41.05,45.8 15.4,16.06 26.97,28.78 43.98,42.73 19.33,15.86 31.76,17.71 53.17,29.76 -44.07,9.2 -72.44,-15.83 -98.08,-30.36 19.6,20.43 49.96,41.87 92.37,40.88 20.02,-0.46 37.54,-6.4 55.73,-10.17 19.22,-3.98 40.75,-2.06 61.11,-3.32 -8.69,-9.7 -388.22,-266.88 -427.09,-293.99 -83.36,-58.13 -67.08,-38.47 -131.45,-23.69 -50.28,11.54 -96.78,-31.24 -125.74,-50.75 -24.08,-16.21 -205.73,-138.76 -210.63,-146.49 -0.95,0.23 -2.12,0.6 -2.85,0.73l-5.86 0.94c-0.78,0.1 -5.08,0.09 -6.11,0.08l206.92 144.63c27.71,18.83 75.9,57.88 115.13,62.54 69.51,8.27 57.65,-46.67 136.56,8.13 36.62,25.43 411.12,278.42 416.64,287.48 -22.08,9.71 -69.15,5.4 -89.84,-3.67 -80.62,-35.35 -140.01,-176.88 -285.89,-228.63 -47.78,-16.95 -137.41,-24.65 -164.69,13.26 72.85,4.35 111.02,1.63 181.5,56.69 42.5,33.2 82.5,78.82 121.81,119.98 127.16,133.13 147.7,94.99 253.37,83.18 37.68,-4.22 65.83,7.65 85.81,28.69 -13.34,12.57 -117.28,81.01 -137.6,93.47 -52.01,31.93 -95.55,53.44 -151.44,80.71 7.89,21.42 27.21,18.67 19.8,44.57 -4.95,17.29 -13.9,46.12 -14.81,64.3 11.93,-3.24 60.16,-53.01 71.54,-63.1 34.68,-30.78 200.79,-158.33 232.33,-170.11 25.95,210.03 -149.38,109.52 -105.57,353.27 18.46,102.73 58.21,197.71 23.97,302.46 -5.55,16.98 -9.11,26.42 -17.41,41.2 -8.57,15.27 -19.76,24.81 -25.05,37.34 43.03,-6.17 76.98,-58.11 92.69,-96.74 19.31,-47.51 25.91,-111.66 17.76,-171.26 -13.95,-102 -66.1,-209.91 -12.22,-272.56 14.23,-16.55 14.63,-21.1 26.6,-24.99 5.55,140.93 -0.13,331.07 0.31,481.94 0.26,90.63 -0.62,68.21 -49.94,112.07 -35.66,31.7 -32.2,70.06 -32.4,129.7l0.03 322.35c0,41.54 -5.67,39.39 16.03,65.45 9.14,10.97 26.23,37.53 38.76,44.09 1.2,-16.35 -3.5,-9.05 -13.58,-26.5 -3.81,-16.64 -9.95,6.96 -9.77,-48.94 0.11,-36.81 -5.74,-94.14 14.11,-116.47 18.11,-20.36 28.54,-18.16 34.07,-29.74l0.2 -0.52 -48.32 27.49c-0.05,-16.29 -0.39,-32.48 5.98,-45.59 8.32,-17.14 17.35,-17.47 23.22,-27.59l-0.6 -1.36c-11.58,1.39 -17.22,8.63 -28.7,14.02 -0.15,-14.42 -0.71,-29.63 4.59,-42.32 5.46,-13.07 13.36,-16.85 18.7,-26.06l-1.63 -1.72c-8.97,1.46 -13.54,6.82 -20.97,10.43 -2.29,-21.78 -0.39,-40.68 11.85,-55.34 11.55,-13.85 16.68,-14.18 27.57,-22.25 4.56,-3.37 2.31,-1.43 4.81,-4.08 3.67,-3.89 1.6,-1.2 3.37,-4.77l0.06 -0.69 -48.22 27.58c0.1,-36.33 3.65,-51.56 24.37,-67.6 18.6,-14.39 39.75,-24.81 45.77,-45.31 9.9,-9.24 -16.89,-7 4.92,-3.94 13.03,1.83 0.11,-2.94 7.23,4.21 7.5,20.38 27.65,32.04 44.15,43.73 21.78,15.43 27.1,30.86 26.92,68.25 -9.88,-4.22 -14.61,-8.04 -23.05,-13.15 -2.98,-1.81 -6.28,-3.95 -9.66,-5.84 -7.82,-4.38 -4.28,-3.47 -12.22,-5.2l0.41 1.44c3.55,8.46 24.71,19.06 31.6,27.36 12.56,15.13 12.84,31.96 12.97,54.95 -15.14,-5.47 -18.8,-13.95 -32.75,-15.64l0.57 1.83c2.4,5.92 4.84,4.62 10.94,10.34 3.85,3.62 10.07,10.7 12.9,15.21 8.4,13.42 8.57,31.01 8.06,48.57l-37.57 -22.25c-1.85,-1.19 -3.28,-2.28 -5.58,-3.56 -6.96,-3.87 -2.34,-1.86 -7.77,-3.53l-0.43 0.14c12.44,28.6 51.4,7.77 51.65,89.22 -13.93,-6.27 -31.78,-21.43 -45.1,-24.32l0.51 1.44c7.77,18.16 42.16,11.01 44.13,71.23 0.64,19.47 0.18,39.47 0.19,59 0.02,28.92 0.46,34.26 -5.14,56.55l-23.83 29.06 -7.96 8.27 -10.67 14.59 -9.95 10.77c-0.51,0.79 -1.09,1.1 -1.33,2.48l-3.95 7.15c-7.19,10.79 1.68,2.82 -9.35,10.59 -4.71,0.55 -2.98,-0.22 -6.24,3.1 -11.23,-8.53 -2.77,-1.4 -7.57,-10.09 -0.51,-0.93 -1.77,-3.88 -2.27,-4.8l-4.27 -7.11c-4.99,-3.7 -2.6,-2.57 -6.78,-6.74 -5.72,-5.72 -1.3,-3.68 -6.74,-5.35 -5.11,-6.47 -4.87,-8.96 -9.03,-13.11 -10.78,-10.75 -0.65,-5.55 -14.35,-6.6 3.59,10.68 42.29,61.71 54.13,66.62l79.28 -97.78c16.39,-20.06 28.87,-25.74 28.44,-57.47 -1.28,-93.68 8.39,-391.11 -8.31,-437.38 -17.77,-49.22 -72.45,-51.01 -76.47,-99.16l0.45 -534.58c12.67,4.27 37.57,41.33 42.05,51.06 41.51,90.12 -74.54,251.16 -10.83,416.67 15.74,40.9 52.14,96.1 94.65,101.13 -7.38,-18.58 -22.7,-20.24 -41.85,-76.39 -10.48,-30.74 -15.91,-67.93 -13.79,-103.51 9.05,-151.72 96.22,-290.15 -1.17,-383.62 -62.28,-59.76 -71.56,-53.86 -68.52,-169.25 31.31,7.39 200.53,138.08 236.93,171.23 8.17,7.44 61.72,61.13 69.93,65.29 -1.16,-14.19 -9.47,-43.35 -13.94,-59.3 -12.9,-46.04 12.31,-27.1 14.7,-55.06 -22.43,-13.45 -52.18,-25.15 -76.38,-38.25 -45,-24.34 -187.58,-111.04 -209,-135.33 5.64,-9.05 26.14,-20.82 34.72,-24.36 90.7,-37.45 136,91.73 301.41,-86.2 38.67,-41.6 82.54,-89.36 120.07,-118.61 64.85,-50.55 106.26,-58.68 183.35,-58.81 -9.39,-20.35 -55.82,-27.71 -75.06,-28.3 -214.73,-6.55 -294.49,250.42 -412.17,251.71 -11.47,0.12 -37.67,-0.39 -47.43,-6.72 6.42,-11.33 49.08,-36.85 62.96,-46.35 49.51,-33.89 372.18,-258.55 388.27,-262.13 34.29,-7.63 56.49,17.9 91.68,16.15 41.76,-2.07 111.93,-57.54 139.66,-76.69 43.35,-29.93 84.82,-58.3 130.74,-89.38l128.48 -88.47c7.86,-8.1 52.14,-153 50.84,-168.66l-148.4 -10.78c-24.28,-1.98 -23.74,-0.51 -40,10.91l-255.67 175.21c-35.46,24.76 -98.9,56.61 -113.4,103.51 -9.76,31.55 1.8,62.9 -19.2,86.22 -11.07,12.3 -284.09,196.31 -319.14,220.24 -25.33,17.29 -113.49,81.71 -130.48,86.92 20.77,-166.6 225.57,-110.65 356.31,-270.34 27.58,-33.7 64.6,-98.12 43.3,-154.34 -12.35,17.69 -2.26,28.02 -40.17,80.08 -17.65,24.24 -38.44,42.68 -64.01,59.97 -107.55,72.72 -257.63,85.16 -312.19,177.54 -29.17,49.38 -13.23,155.35 -76.61,169.71 -3.04,-57.61 1.76,-117.97 4.06,-174.3 2.83,-69.31 19.66,-123.47 20.67,-157.25l-57.39 62.23 -37.1 -3.47c-0.86,19.24 24.88,148.79 18.07,273.01 -30.42,-7.15 -44.28,-42.74 -50.98,-70.75 -8.57,-35.79 -6.98,-68.1 -24.93,-99.3 -29.19,-50.72 -86.63,-75.53 -145.81,-99.23 -86.53,-34.66 -175.98,-65.49 -230.51,-138.28 -37.95,-50.65 -27.36,-61.76 -40.84,-81.78 -22.02,50.48 15.67,120.66 41.29,152.62 31.83,39.71 67.88,64.95 117.95,92.81 93.9,52.25 232.54,57.5 240.63,180.96 -14.71,-3.92 -336.44,-229.12 -382.35,-259.28 -118.9,-78.12 -63.86,-57.52 -85.37,-131.91 -13.38,-46.3 -72.78,-77.02 -110.47,-103.1 -44.54,-30.82 -86.52,-59.4 -126.88,-86.98 -44.79,-30.62 -85.13,-57.86 -127.02,-86.75 -29.46,-20.33 -36.54,-17.44 -92.2,-11.56 -33.12,3.51 -68.06,5.31 -101.69,7.59 -0.74,11.39 13.31,60.7 19.61,75.84l6.31 11.26z"/>
   <path class="fil3" d="M1029.59 1500.77c4.9,7.73 186.55,130.28 210.63,146.49 28.96,19.51 75.46,62.29 125.74,50.75 64.37,-14.78 48.09,-34.44 131.45,23.69 38.87,27.11 418.4,284.29 427.09,293.99 -20.36,1.26 -41.89,-0.66 -61.11,3.32 -18.19,3.77 -35.71,9.71 -55.73,10.17 -42.41,0.99 -72.77,-20.45 -92.37,-40.88 25.64,14.53 54.01,39.56 98.08,30.36 -21.41,-12.05 -33.84,-13.9 -53.17,-29.76 -17.01,-13.95 -28.58,-26.67 -43.98,-42.73 -13.34,-13.9 -27.43,-31.39 -41.05,-45.8 -15.56,-16.47 -28.56,-27.04 -44.22,-42.59 -41.54,-41.26 -105.82,-78.29 -169.55,-87.17 -35.75,-4.98 -49.64,3.23 -73.63,4.68 66.08,11.06 93.79,19.43 139.89,52.52 80.94,58.1 132.35,140.59 197.89,189.52 52.61,39.29 80.53,36.31 152.31,22.49 80.21,-15.44 93.85,7.6 142.11,39.67 40.14,26.67 76.32,53.48 115.86,79.38 59.27,38.83 170.34,123.46 216.04,171.89 -0.44,-14.73 -5.87,-26.32 -9.23,-41.14 -4.83,-21.34 5.68,-20.16 14.64,-35.05l-121.09 -66c-41.75,-24.74 -75.6,-48.41 -114.02,-74.99 -36.87,-25.5 -72.77,-49.27 -110.5,-75.51 -50.21,-34.92 -55.54,-46.66 -66.95,-122.11 -23.27,-153.85 -191.68,-138.04 -329.9,-234.24 -63.1,-43.91 -74.23,-83.82 -89.59,-100.35 9.88,130.36 171.66,199.84 271.93,237.26 20.89,7.79 40.3,15.27 58.23,25.57 29.07,16.71 34.24,27.59 49.12,38.81 -5.08,-35.91 -45.5,-70.39 -71.66,-82.74 84,34.12 80.18,79.84 91.33,133.34 4.94,23.74 12.52,37.52 19.37,56.88l-237.37 -161.46c-40.68,-26.91 -79.09,-53.8 -119.81,-81.65l-119.01 -82.42c-42.44,-36.14 1.39,-94.08 -58.7,-139.69 -90.36,-68.58 -228.03,-154.52 -327.03,-224.73 -20.45,-14.49 -11.98,-12.24 -40.77,-14.66l54.65 41.14c19.18,13.44 36.11,24.6 54.94,37.96l221.62 150.38c22.76,15.75 25.93,30.52 27.4,66.72 2.54,62.6 20.61,47.96 19.94,70.25 -43.01,-0.96 -35.95,-6.48 -79.18,7.74 -35.22,11.58 -44.55,9.21 -70.08,-8.67 -36.95,-25.86 -71.91,-48.78 -108.38,-74.46 -14.88,-10.48 -203.32,-141.46 -216.73,-146.74 3.36,17.3 3.51,17.31 15.33,25.66l69.22 44.91z"/>
   <path class="fil3" d="M2023.94 2180.18c-0.56,134.09 -150.22,86.28 -106.85,299.55 17.12,84.24 49.74,188.7 30.92,275.13 -7.27,33.36 -19.16,50.36 -28.17,76.58 22.99,-13.58 47.56,-59.55 57.71,-90.78 13.27,-40.79 16.41,-89.26 12.03,-135.53 -8.93,-94.47 -47.45,-161.31 -32.66,-258.34 -7.8,4.77 -3.11,0.87 -8.83,8.05 -20.84,26.1 -19.11,62.06 -20.3,92.17 -26.4,-76.94 40.77,-124.84 65.68,-152.21 9.28,-10.2 21.69,-28.43 29.62,-42.27l0.83 559.97c0.01,66.65 -42.21,60.37 -66.84,96.77 -24.62,36.37 -16.28,140.43 -16.55,203.88l-0.24 241.77c-0.04,21.65 -3.58,28.13 14.08,38.9l-0.18 -379.86c-0.46,-81.35 28.21,-59.32 64.37,-102.06 4.79,-5.67 7.04,-9.02 10.63,-17.47 4.82,-11.36 1.83,-12.19 10.88,-16.48 27.89,40.32 -10.58,9.61 57.74,65.83 33.14,27.27 25.59,44.72 25.49,98.08l-0.13 352.74c13.66,-11.12 13.34,-8.68 13.5,-30.38l0.01 -282.06c0.2,-70.41 13.15,-155.72 -34.92,-191.88 -64.36,-48.41 -48.4,-55.17 -48.4,-180.07 0,-76.45 0,-152.91 0,-229.37 0,-72.98 -3.77,-156.63 0.57,-228.32 15.68,34.67 46.41,56.15 68.77,80.62 22.31,24.42 40.84,71.8 26.7,113.87 -1.41,-36.86 -2.2,-85.64 -30.5,-101.92 27.88,112.27 -69.66,247.26 -18.57,397.97 12.15,35.85 33.99,72.27 58.83,89.88 -67.36,-95.01 -20.62,-245.88 0.25,-350.21 44.78,-223.78 -106.16,-157.65 -106.05,-311.84l-0.74 -57.9 -15.26 -7.61c-20.42,12.85 -13.52,18.46 -13.42,74.8z"/>
   <path class="fil4" d="M919.15 1375.21c-0.38,12.76 17.31,74.78 26.73,82.74 9.09,7.68 60.23,42.19 68.89,44.57 1.03,0.01 5.33,0.02 6.11,-0.08l5.86 -0.94c0.73,-0.13 1.9,-0.5 2.85,-0.73l-69.22 -44.91c-11.82,-8.35 -11.97,-8.36 -15.33,-25.66 13.41,5.28 201.85,136.26 216.73,146.74 36.47,25.68 71.43,48.6 108.38,74.46 25.53,17.88 34.86,20.25 70.08,8.67 43.23,-14.22 36.17,-8.7 79.18,-7.74 0.67,-22.29 -17.4,-7.65 -19.94,-70.25 -1.47,-36.2 -4.64,-50.97 -27.4,-66.72l-221.62 -150.38c-18.83,-13.36 -35.76,-24.52 -54.94,-37.96l-54.65 -41.14c-8.91,1.57 -0.17,-2.77 -9.59,3.84 5.78,7.93 13.34,11.72 21.9,17.62l65.9 45.68c39.01,32.52 16.47,61.13 35.16,111.26 -67.05,-27.72 -47.83,-91.02 -56.51,-105.38 -9.05,-14.97 -76.69,-50.4 -93.24,-68.47l25.11 -0.78c-13.05,-10.22 -23.85,-1.74 -34.09,-0.11 -13.89,2.22 -47.14,-1.08 -63.68,2.62 -12.24,2.74 -19.09,1.83 -29.31,4.63 -1.19,13.39 11.23,40.55 15.84,53.67 3.74,10.65 2.95,13.5 0.8,24.75z"/>
   <path class="fil3" d="M2997.85 1296.95c-3.6,7.09 -97.57,68.55 -112.92,79.14l-172.88 118.43c-18.98,13.2 -43.78,28.02 -56.78,42.45 -45.31,50.32 2.61,97.38 -58.06,137.14 -78.48,51.44 -401.52,281.43 -463.64,316.21 31.38,-81.52 16.24,-70.15 29.66,-111.7 10.16,-31.46 41.15,-65.26 71.02,-72.96 -27.23,21.26 -54.49,36.7 -62.88,79.36 15.57,-12.52 10.74,-15.87 44.67,-37.16 34.56,-21.67 121.56,-48.82 178.93,-78.31 60.2,-30.93 152.09,-102.93 156.51,-187.87 -15.23,17.66 -19.54,38.95 -52.1,69.07 -21.67,20.05 -40.28,34.84 -69.86,51.01 -51.19,27.98 -112.38,51.09 -168.47,73.26 -55.68,22.01 -111.42,57.77 -124.64,117.12 -7.7,34.58 -8.77,68.52 -22.48,98.52 -16.55,36.24 -39.36,34.24 -63.93,59.34l23.39 17.86c30.9,-15.4 37.11,-35.12 84.5,-33.54 79.97,2.65 129.28,64.11 251.1,-71.07l116.07 -116.37c43.29,-39.09 89.36,-60.28 164.24,-71.49 -45.68,-3.71 -70.39,-16.25 -138.87,13.09 -137.03,58.69 -181.06,181.68 -270.05,222.78 -1.85,0.86 -4.46,1.9 -6.54,3.01l-6.61 4.05c-0.54,0.34 -1.5,0.98 -2.2,1.54 48.05,3.85 67.78,-14.11 96.81,-31.59 -62.73,67.74 -114.94,26.69 -208.41,27.92 0.48,-0.69 1.34,-2.48 1.62,-1.93l12.39 -10.5c5.49,-3.72 10.06,-6.5 14.99,-9.75 11.43,-7.53 19.08,-13.15 29.3,-20.29l355.11 -243.09c15.6,-10.91 44.49,-32.83 61.34,-40.98 54.26,-26.24 82.39,40.83 158.72,-8.6 40.27,-26.07 79.43,-53.83 119.86,-81.65l208.29 -142c11.23,-7.41 18.58,-13.9 17.19,-31.24l-325.26 225.35c-26.41,18.79 -36.93,19.38 -72.43,7.86 -40.81,-13.23 -35.33,-8.57 -76.89,-7.01 -0.55,-12.47 8.85,-15.7 14.17,-30.6 14.72,-41.3 -8.47,-77.68 33.24,-106.29l330.99 -227.92c-28.54,-2.39 -18,1.13 -38.21,9.4z"/>
   <path class="fil4" d="M2997.85 1296.95c20.21,-8.27 9.67,-11.79 38.21,-9.4l-330.99 227.92c-41.71,28.61 -18.52,64.99 -33.24,106.29 -5.32,14.9 -14.72,18.13 -14.17,30.6 41.56,-1.56 36.08,-6.22 76.89,7.01 35.5,11.52 46.02,10.93 72.43,-7.86l325.26 -225.35 -3.13 -3.33c-13.54,5.63 -33.68,20.55 -44.98,28.48 -104.72,73.44 -75.6,16.84 -155.53,19.9l12.21 -11.5c58.2,-37.24 84.75,2.53 107.52,-3.94l72.9 -47.96c26.31,-18.5 20.08,-14.6 21.77,-8.73 2.62,-4.46 2.15,-0.5 3.62,-8.42 0.16,-0.87 -0.03,-6.43 -0.03,-7.46 -19.47,7.94 -40.51,26.25 -58.3,38.12 -35.6,23.76 -36.05,31.11 -58.83,23.45 7.67,-9.6 18.74,-14.65 29.41,-21.88l77.08 -52.91c3.36,-2.29 4.05,-2.38 7.33,-5.18l5.04 -5.2c0.28,-1.13 1.09,-1.29 1.6,-1.96l-2.34 -3.2c-22.04,9.17 -76.88,53.39 -106.07,69.25 3.96,-7.25 19.08,-26.49 25.6,-32.82l97.54 -67.47 0.87 -9.46 -97.73 65.25c-46.81,37.79 -5.07,46.57 -101.65,60.79 40.81,-83.83 42.53,-39.31 100.09,-77.85 18.39,-12.31 34.77,-23.45 53.4,-36.46 18.3,-12.78 52.49,-43.41 52.24,-19.58 3.23,-4.45 11.94,7.57 2.09,-9.43l-42.72 -6.21c-15.14,-0.23 -35.36,0.67 -49.84,-0.63 -31.27,-2.8 -62.27,-16.32 -83.55,7.13z"/>
   <path class="fil2" d="M1753.83 1331.24c138.12,-13.93 236.98,-121.03 250.43,-250.43 -92.35,9.61 -182.24,69.86 -222.95,152.45 -14.27,28.94 -23.25,61.79 -27.48,97.98z"/>
   <path class="fil2" d="M2323.19 1331.26c-4,-36.09 -13.14,-69.04 -27.4,-98.05 -40.58,-82.53 -131.23,-143.1 -222.97,-152.3 6.9,67.36 47.59,138.13 80.15,171.2 36.78,37.36 95.05,71.14 170.22,79.15z"/>
   <path class="fil2" d="M2040.39 1448.82c19.01,-38.79 62.77,-72.01 61.78,-176.81 -0.52,-55.14 -31.84,-151.81 -65.42,-176.7 -6.85,14.56 -26.81,41.93 -41.37,76.21 -27.22,64.1 -26.65,138.33 -1.62,202.57 10.01,25.68 28.55,62.11 46.63,74.73z"/>
   <path class="fil2" d="M2004.56 1010.84c-22.7,-134.2 -110.5,-234.84 -250.52,-248.78 10.57,103.3 69.93,182.3 153.29,221.14 19.24,8.96 75.28,30.44 97.23,27.64z"/>
   <path class="fil2" d="M2072.69 1012.36c61.92,-6.59 127.75,-38.83 170.54,-79.63 44.13,-42.08 73.26,-106.58 79.82,-170.85 -133.14,15.04 -234.49,115.17 -250.36,250.48z"/>
   <path class="fil2" d="M2038.35 997.84c35.54,-53.3 61.87,-101.31 63.73,-172.09 2.82,-106.92 -45.69,-146.54 -60.5,-181.25 -11.81,5.52 -20.63,21.96 -27.65,34.19 -6.55,11.41 -13.71,24.45 -19.68,39.15 -26.09,64.18 -25.66,138.17 0.76,202.42 8.78,21.36 30.5,64.87 43.34,77.58z"/>
   <path class="fil2" d="M1636.67 1044.44l6.63 7.52c60.98,57.25 182.35,74.87 270.22,37.76 18.89,-7.98 67.14,-31.93 76.1,-43.63 -74.52,-56.12 -179.86,-83.88 -276.32,-45.08 -34.77,13.98 -51.23,28.13 -76.63,43.43z"/>
   <path class="fil2" d="M2087.46 1047.97c91.97,68.79 215.84,83.84 316.86,24.26 13.4,-7.91 28.76,-16.27 36.01,-27.86 -24.57,-14.74 -41.19,-28.89 -74.36,-42.54 -30.25,-12.44 -66.16,-19.29 -102.74,-18.87 -57.56,0.67 -153.55,35.07 -175.77,65.01z"/>
   <path class="fil5" d="M2105.15 950.13c19.88,-10.66 27.53,-32.63 65.65,-35.58 -2.26,24.49 -14.96,44.87 -28.77,54.03 6.84,-15.71 15.44,-21.24 18.05,-42.89 -32.66,0.71 -65.67,33.7 -68.32,67.85 19.68,-1.81 33.48,-10.2 42.92,-20.51l1.47 7.18c73.45,-15.55 163.51,-113.4 169.15,-199.81 -73.69,-1.72 -187.09,92.47 -200.15,169.73z"/>
   <path class="fil5" d="M2036.97 1216.01c19.74,-8.63 13.65,-40.01 21.59,-55.75 -1.45,37.7 -2.38,47.51 -18.84,73.77 -18.28,-15.42 -20.2,-41.94 -20.87,-71.48 -24.07,18.09 -31.23,107.21 -27.99,140.44 3.78,38.8 26.91,103.64 49.09,120.43 27.57,-47.68 47.75,-78.4 47.39,-151.41 -0.16,-31.1 -5.77,-59.42 -15.08,-84.73l-32.87 -66.25c-20.81,22.15 -23.46,68.55 -2.42,94.98z"/>
   <path class="fil5" d="M1943.92 980.46c-12.86,-18.98 -34.38,-28.82 -37.69,-66.04 34.62,2.88 46.42,24.53 66,35.94 -9.15,-45.09 -49.5,-91.47 -74.25,-112.77 -24.68,-21.25 -82.31,-57.51 -126.21,-57.29 6.14,86.73 101.11,191.44 172.15,200.16z"/>
   <path class="fil5" d="M2151.95 1026.9c31.13,0.91 51.91,1.87 73.35,18.84 -13.09,17.27 -42.84,20.11 -70.83,21.27 21.78,24.03 96.85,31.79 138.23,27.11 40.81,-4.61 104.68,-23.95 121.82,-48.38 -66.19,-57.58 -208.56,-61.99 -262.57,-18.84z"/>
   <path class="fil5" d="M1962.79 1147.93c-8.27,14.54 -31.95,29.31 -56.6,31.14 2.33,-33.6 22.87,-40.81 30.55,-63.45 -71.2,12.36 -158.63,113.02 -164.43,197.53 88.22,-7.25 189.54,-98.52 199.82,-171.28l-9.34 6.06z"/>
   <path class="fil5" d="M1662.89 1045.74c37.18,53.53 217.47,66.46 259.61,21.43 -28.28,-1.78 -57.06,-3.77 -70.74,-21.43 21.32,-16.57 40.92,-18.28 73.25,-18.86 -28.3,-23.15 -92.26,-31.25 -139.23,-28.05 -41.38,2.82 -99.25,24.66 -122.89,46.91z"/>
   <path class="fil5" d="M2170.71 1178.94c-34.8,-2.39 -45.79,-23.49 -65.43,-36.86 4.39,42.19 49.92,91.25 71.2,111.31 24.8,23.38 79.74,56.02 127.94,59.69 -4.34,-82.89 -93.51,-185.86 -163.78,-197.38 7.11,22.33 28.18,30.49 30.07,63.24z"/>
   <path class="fil5" d="M2013.24 927c11.95,-13.86 3.63,-54.51 26.83,-66.65 15.16,22.28 17.74,39.99 18.33,71 24.39,-24.95 32.25,-95.06 27.87,-139.51 -5.9,-59.77 -24.18,-80.87 -45.32,-121.6 -13.44,6.44 -25.66,34.58 -32.04,49.97 -31.25,75.37 -22,138.91 4.33,206.79z"/>
   <path class="fil4" d="M2010.43 3046.96l-0.06 0.69c13.68,-5.79 15.63,-14.5 25.37,-26.36 3.14,34.81 -3.91,65.39 -29.75,85.66 -7.78,6.1 -15.33,8.24 -22.25,16.71l1.63 1.72c34.43,-12.08 41.12,-36.53 50.83,-43.56 0.67,21.95 -0.42,42.87 -10.03,60.79 -14.82,27.63 -23.57,21.46 -35.39,37.13l0.6 1.36c23.68,-6.95 32.91,-28.45 44.6,-39.79 1,17.44 -0.28,34.61 -5.07,49.53 -6,18.7 -13.22,22.13 -20.41,35.95l-0.2 0.52c15.46,-6.37 14.57,-14.33 25.48,-26.15 5.09,56.26 -13.28,72.61 -45.32,94.91 -19.64,13.67 -13.67,58.91 -13.08,96.08 0.62,38.37 0.58,28.12 -5.49,30.31 10.08,17.45 14.78,10.15 13.58,26.5l0.47 0.92c13.7,1.05 3.57,-4.15 14.35,6.6 4.16,4.15 3.92,6.64 9.03,13.11l-1.27 -145.72c21.2,37.67 17.17,109.01 14.79,157.81l4.27 7.11c0.5,0.92 1.76,3.87 2.27,4.8 4.8,8.69 -3.66,1.56 7.57,10.09 -16,-27.05 0.02,-106.45 -7.16,-144.56 -3.96,-21 -17.09,-34.99 -13.16,-58.72 2.03,-12.24 17.49,-42.21 23.12,-51.66 4.99,20.21 18.03,34.32 20.79,51.35 3.67,22.62 -8.35,37.07 -12.44,56.81 -8.14,39.25 6.06,110.06 -4.91,143.68 11.03,-7.77 2.16,0.2 9.35,-10.59l3.95 -7.15c0.24,-1.38 0.82,-1.69 1.33,-2.48 -8.21,-7.69 -3.94,-81.89 -3.9,-94.57 0.06,-19.03 3.95,-44.67 14.3,-59.52l-0.45 143.32 10.67 -14.59 -1.55 -153.58c22.46,11.06 15.17,37.03 15.19,65.9 0.02,30.64 2.93,55.7 -5.68,79.41l23.83 -29.06 -10 5.61c-0.37,-22.88 -0.28,-45.66 -0.23,-68.36 0.06,-25.83 5.19,-46.09 -13.34,-59.04 -32.94,-23.03 -49.03,-37.89 -45.17,-94.43 11.9,14.32 13.18,21.22 29.56,29.44l-0.51 -1.44c-7.87,-11.32 -17.22,-18.78 -23.56,-36.48 -5.62,-15.69 -6.37,-33.59 -5.63,-51.22 11.86,11.04 4.95,14.77 22.64,22.8l0.43 -0.14c-5.93,-12.52 -14.55,-18.51 -19.46,-37.51 -3.49,-13.52 -4.86,-31.46 -3.02,-45.91 5.62,14.14 25.05,32.83 41.5,38.64l-0.57 -1.83c-10.6,-15.47 -25.01,-19.13 -33.65,-38.61 -7,-15.79 -9.18,-38.04 -7.64,-57.61 11.36,14.44 13.8,21.74 29.47,29.55l-0.41 -1.44c-13.05,-18.68 -24.98,-20.72 -29.14,-64.15 -0.38,-3.91 -0.82,-10.88 -0.3,-14.63l2.23 -7.01c0.12,-1.11 0.61,-1.41 1.07,-2 -7.12,-7.15 5.8,-2.38 -7.23,-4.21 -21.81,-3.06 4.98,-5.3 -4.92,3.94 4.45,5.17 1.01,-1.83 3.29,6.61 2.68,9.94 -0.81,30.71 -4.69,42.84 -5.79,18.08 -13.11,22.34 -20.52,35.88z"/>
   <path class="fil3" d="M1720.02 2254.57c8.64,15.58 19.09,12.79 14.35,34.99 -3.09,14.5 -8.47,26.63 -9.35,41.15 29.93,-32.63 104.41,-91.23 143.51,-120.55 25,-18.75 51.89,-37.52 78.4,-54.93 27.2,-17.87 55.69,-41.34 80.97,-54.85 -6.27,-8.53 -14.23,-13.82 -25.03,-18.63 -44.62,25.97 -89.1,61.34 -135.07,90.46 -44.82,28.39 -80.55,47.49 -127.84,70.54 -9.87,4.81 -13.59,5.99 -19.94,11.82z"/>
   <path class="fil3" d="M2006.14 1762.12c1.99,40.73 11.33,86.4 14.37,130.23 3.35,48.37 2.93,94.71 3.61,143.12l12.57 7.39 16.37 -7.72c0.92,-59.71 -0.29,-115.65 4.05,-176.38 3.23,-45.18 11.28,-88.54 15.36,-132.28 -8.22,4.14 -1.87,-0.23 -8.79,5.97l-18.87 21.71c-14.85,15.77 -11.79,9.01 -38.67,7.96z"/>
   <path class="fil3" d="M2036.95 3503.68c3.26,-3.32 1.53,-2.55 6.24,-3.1 10.97,-33.62 -3.23,-104.43 4.91,-143.68 4.09,-19.74 16.11,-34.19 12.44,-56.81 -2.76,-17.03 -15.8,-31.14 -20.79,-51.35 -5.63,9.45 -21.09,39.42 -23.12,51.66 -3.93,23.73 9.2,37.72 13.16,58.72 7.18,38.11 -8.84,117.51 7.16,144.56z"/>
   <path class="fil3" d="M904.81 1299.91c4.79,17.72 80.3,62.06 99.02,75.39 21.8,15.52 24.25,30.4 41.17,45.6 21.04,18.9 41,12.7 68.25,20.6 -10.31,-14.41 -18.99,-39.09 -34.47,-51.27 -15.51,-12.18 -43.56,-12.61 -64.2,-25.7 -30.59,-19.38 -93.02,-71.97 -109.77,-64.62z"/>
   <path class="fil3" d="M3165.52 1313.94c1.45,-2.16 3.36,-4.4 6.35,-7.85 0.25,-23.83 -33.94,6.8 -52.24,19.58 -18.63,13.01 -35.01,24.15 -53.4,36.46 -57.56,38.54 -59.28,-5.98 -100.09,77.85 96.58,-14.22 54.84,-23 101.65,-60.79l97.73 -65.25z"/>
   <path class="fil3" d="M2923.17 1464.32c66.03,-26.5 48.24,-91.64 56.32,-105.25 9.31,-15.68 75.54,-49.23 93.01,-68.37 -30.54,-3.32 -38.21,9.5 -57.7,23.07 -34.36,23.92 -76.3,43.22 -81.28,79.7 -4.73,34.67 -0.32,36.76 -10.35,70.85z"/>
   <path class="fil3" d="M2010.3 3227.31c-5.53,11.58 -15.96,9.38 -34.07,29.74 -19.85,22.33 -14,79.66 -14.11,116.47 -0.18,55.9 5.96,32.3 9.77,48.94 6.07,-2.19 6.11,8.06 5.49,-30.31 -0.59,-37.17 -6.56,-82.41 13.08,-96.08 32.04,-22.3 50.41,-38.65 45.32,-94.91 -10.91,11.82 -10.02,19.78 -25.48,26.15z"/>
   <path class="fil3" d="M1031.27 1289.72l-1.68 -0.07 -25.11 0.78c16.55,18.07 84.19,53.5 93.24,68.47 8.68,14.36 -10.54,77.66 56.51,105.38 -18.69,-50.13 3.85,-78.74 -35.16,-111.26l-65.9 -45.68c-8.56,-5.9 -16.12,-9.69 -21.9,-17.62z"/>
   <path class="fil3" d="M2110.23 3417.67c5.6,-22.29 5.16,-27.63 5.14,-56.55 -0.01,-19.53 0.45,-39.53 -0.19,-59 -1.97,-60.22 -36.36,-53.07 -44.13,-71.23 -16.38,-8.22 -17.66,-15.12 -29.56,-29.44 -3.86,56.54 12.23,71.4 45.17,94.43 18.53,12.95 13.4,33.21 13.34,59.04 -0.05,22.7 -0.14,45.48 0.23,68.36l10 -5.61z"/>
   <path class="fil3" d="M3129.11 1422.83c0.35,-0.46 1.04,-1.69 1.19,-1.27l7.57 -9.46c2.67,-4.63 3.35,-8.76 5.13,-13.02 -1.69,-5.87 4.54,-9.77 -21.77,8.73l-72.9 47.96c-22.77,6.47 -49.32,-33.3 -107.52,3.94l-12.21 11.5c79.93,-3.06 50.81,53.54 155.53,-19.9 11.3,-7.93 31.44,-22.85 44.98,-28.48z"/>
   <path class="fil3" d="M1148.74 1471.39l-10.62 -10.49c-4.27,-3 -9.83,-5.57 -13.91,-7.57 -52.48,-25.65 -70.86,7.05 -93.16,2.96 -15.95,-2.91 -75.77,-52.17 -96.68,-62.29 2.37,24.97 20.79,31.58 36.22,42.39 139.33,97.56 87.44,29.92 178.15,35z"/>
   <path class="fil3" d="M2828.85 1537.94c52.39,3.96 92.04,39.75 131.39,-2.46 -39.96,-25.21 -96.2,-37.51 -131.39,2.46z"/>
   <path class="fil3" d="M1962.04 3014.08c15.26,-7.47 46.72,-26.42 56.25,-37.4 13.73,-15.82 21.77,-47.38 17.18,-75.83 -39.2,60.04 -74.22,32 -73.43,113.23z"/>
   <path class="fil3" d="M1116.76 1535.48c12.99,13.82 37.42,25 62.21,19.15 30.77,-7.26 29.44,-13.63 69.34,-16.74 -35.59,-37.56 -92.81,-30.33 -131.55,-2.41z"/>
   <path class="fil3" d="M2010.43 3046.96c7.41,-13.54 14.73,-17.8 20.52,-35.88 3.88,-12.13 7.37,-32.9 4.69,-42.84 -2.28,-8.44 1.16,-1.44 -3.29,-6.61 -6.02,20.5 -27.17,30.92 -45.77,45.31 -20.72,16.04 -24.27,31.27 -24.37,67.6l48.22 -27.58z"/>
   <path class="fil3" d="M1991.38 3181.1c-5.87,10.12 -14.9,10.45 -23.22,27.59 -6.37,13.11 -6.03,29.3 -5.98,45.59l48.32 -27.49c7.19,-13.82 14.41,-17.25 20.41,-35.95 4.79,-14.92 6.07,-32.09 5.07,-49.53 -11.69,11.34 -20.92,32.84 -44.6,39.79z"/>
   <path class="fil3" d="M2115.23 3013.92c3.28,-78.03 -44.94,-63.39 -73.59,-113.01 -2.98,27.15 2.61,57.54 15.79,73.95 7.87,9.78 42.86,32.83 57.8,39.06z"/>
   <path class="fil3" d="M1166.4 1569.57c41.25,42.22 77.75,5.22 131.68,2.77 -11.49,-12.66 -40.11,-27.38 -63.89,-27.44 -19.34,-0.05 -56.67,15.51 -67.79,24.67z"/>
   <path class="fil3" d="M2070.64 3049.69c7.94,1.73 4.4,0.82 12.22,5.2 3.38,1.89 6.68,4.03 9.66,5.84 8.44,5.11 13.17,8.93 23.05,13.15 0.18,-37.39 -5.14,-52.82 -26.92,-68.25 -16.5,-11.69 -36.65,-23.35 -44.15,-43.73 -0.46,0.59 -0.95,0.89 -1.07,2l-2.23 7.01c-0.52,3.75 -0.08,10.72 0.3,14.63 4.16,43.43 16.09,45.47 29.14,64.15z"/>
   <path class="fil3" d="M2010.37 3047.65c-1.77,3.57 0.3,0.88 -3.37,4.77 -2.5,2.65 -0.25,0.71 -4.81,4.08 -10.89,8.07 -16.02,8.4 -27.57,22.25 -12.24,14.66 -14.14,33.56 -11.85,55.34 7.43,-3.61 12,-8.97 20.97,-10.43 6.92,-8.47 14.47,-10.61 22.25,-16.71 25.84,-20.27 32.89,-50.85 29.75,-85.66 -9.74,11.86 -11.69,20.57 -25.37,26.36z"/>
   <path class="fil3" d="M2729.27 1606.06c41.16,3.2 38.05,8.07 70.27,16.18 24.95,6.27 46.94,-5.45 61.81,-18.57 -12.83,-10.78 -53.01,-25.21 -68.08,-25.11 -22.44,0.15 -53.57,15.63 -64,27.5z"/>
   <path class="fil3" d="M2679.51 1640.09c61.57,3.7 84.55,38.51 132.04,-2.33l-30.4 -15.68c-37.31,-17.09 -73.02,-9.76 -101.64,18.01z"/>
   <path class="fil3" d="M2675.75 1633.93c65.4,-28.87 52.74,-83.24 51.76,-122.89 -48.5,24.97 -40.45,54.57 -42.3,86.53 -1.07,18.32 -5.18,21.87 -9.46,36.36z"/>
   <path class="fil3" d="M1215.59 1603.67c51.2,42.8 68.62,4.86 132.31,2.65 -9.82,-11.78 -41.53,-27.76 -64.15,-27.73 -16.42,0.03 -45.19,12.18 -60.58,20.29 -0.83,0.43 -3.25,1.85 -3.92,2.26l-3.66 2.53z"/>
   <path class="fil3" d="M2878.7 1505.26c54.35,-1.96 85.9,42.14 130.79,-3.88 -27.08,-20.01 -70.79,-31.13 -102.03,-15.99 -12.95,6.27 -18.38,8.41 -27.07,17.82 -0.42,0.46 -1.16,1.34 -1.69,2.05z"/>
   <path class="fil3" d="M1985.37 3125.38c-5.34,9.21 -13.24,12.99 -18.7,26.06 -5.3,12.69 -4.74,27.9 -4.59,42.32 11.48,-5.39 17.12,-12.63 28.7,-14.02 11.82,-15.67 20.57,-9.5 35.39,-37.13 9.61,-17.92 10.7,-38.84 10.03,-60.79 -9.71,7.03 -16.4,31.48 -50.83,43.56z"/>
   <path class="fil3" d="M1203.7 1498.41c-23.27,-65.35 10.6,-86.46 -51.63,-122.65 -1.75,26.02 -5.39,57.52 5.12,78.61 9.49,19.04 26.64,35.39 46.51,44.04z"/>
   <path class="fil3" d="M1265.35 1637.76c16.05,13.36 37.13,24.44 64,17.72 31.05,-7.77 26.91,-13.68 68.09,-15.25 -30.65,-28.1 -62.19,-35.52 -101.45,-18.13l-29.01 14.34c-0.34,0.24 -1.13,0.83 -1.63,1.32z"/>
   <path class="fil3" d="M2064.42 3164.41c5.43,1.67 0.81,-0.34 7.77,3.53 2.3,1.28 3.73,2.37 5.58,3.56l37.57 22.25c0.51,-17.56 0.34,-35.15 -8.06,-48.57 -2.83,-4.51 -9.05,-11.59 -12.9,-15.21 -6.1,-5.72 -8.54,-4.42 -10.94,-10.34 -16.45,-5.81 -35.88,-24.5 -41.5,-38.64 -1.84,14.45 -0.47,32.39 3.02,45.91 4.91,19 13.53,24.99 19.46,37.51z"/>
   <path class="fil3" d="M2725.05 1600.15c17.91,-8.11 36.42,-25.55 45.09,-41.36 13.68,-24.94 7.42,-51.22 7.01,-81.5 -48.11,20.61 -40.93,60.42 -42.56,86.16 -1.08,16.98 -5.69,23.3 -9.54,36.7z"/>
   <path class="fil3" d="M2070.54 3229.45c13.32,2.89 31.17,18.05 45.1,24.32 -0.25,-81.45 -39.21,-60.62 -51.65,-89.22 -17.69,-8.03 -10.78,-11.76 -22.64,-22.8 -0.74,17.63 0.01,35.53 5.63,51.22 6.34,17.7 15.69,25.16 23.56,36.48z"/>
   <path class="fil3" d="M2824.07 1532.24c62.89,-27.27 53.15,-81.72 51.78,-122.6 -48.49,23.41 -40.58,57.52 -42.35,85.58 -1.12,17.64 -4.78,22.73 -9.43,37.02z"/>
   <path class="fil3" d="M2774.77 1565.96c17.9,-7.96 36.01,-25 44.92,-41.28 12.66,-23.12 8.33,-52.86 6.53,-81.21 -48.37,25.87 -40.11,52.54 -42.22,85.84 -1.08,16.95 -5.41,23.15 -9.23,36.65z"/>
   <path class="fil3" d="M1067.53 1501.38c47.26,46.04 74.57,0.98 131,4.29l-12.78 -11.87c-41.66,-24.98 -76.34,-18.79 -118.22,7.58z"/>
   <path class="fil3" d="M2082.87 3117.8c13.95,1.69 17.61,10.17 32.75,15.64 -0.13,-22.99 -0.41,-39.82 -12.97,-54.95 -6.89,-8.3 -28.05,-18.9 -31.6,-27.36 -15.67,-7.81 -18.11,-15.11 -29.47,-29.55 -1.54,19.57 0.64,41.82 7.64,57.61 8.64,19.48 23.05,23.14 33.65,38.61z"/>
   <path class="fil3" d="M1253.21 1532.18c-19.49,-55.72 3.12,-96.66 -51.94,-122.62 -0.76,27.22 -5.6,56.83 5.45,78.9 8.42,16.85 27.98,36.26 46.49,43.72z"/>
   <path class="fil3" d="M2873.62 1498.26c59.3,-24.23 54.64,-77.89 51.41,-122.52 -48.21,31.55 -39.5,41.59 -42.09,85.45 -1.08,18.25 -4.91,22.58 -9.32,37.07z"/>
   <path class="fil3" d="M1401.52 1633.99c-20.87,-58.07 4.35,-94.71 -51.96,-123.18 -0.29,26.31 -6.16,59.62 5.32,80.62 8.68,15.86 29.92,34.58 46.64,42.56z"/>
   <path class="fil3" d="M2778.84 1572.26c62.69,5.09 33.56,7.48 70,16.05 23.37,5.49 48.82,-4.77 61.74,-18.74l-30.97 -15.12c-35.57,-16.04 -74.41,-9.93 -100.77,17.81z"/>
   <path class="fil3" d="M1302.63 1566.16c-21.37,-60.58 6.01,-91.33 -51.79,-122.93 -0.88,27.22 -5.9,57.1 5.48,79.33 9.26,18.09 27.35,35.08 46.31,43.6z"/>
   <path class="fil3" d="M1352.33 1600.1c-24.01,-62.44 9.57,-87.66 -52.17,-122.85 -0.55,27.74 -5.96,56.95 5.74,79.42 8.95,17.18 27.83,35.29 46.43,43.43z"/>
   <path class="fil5" d="M2159.17 1167.27c-2.84,-33.41 -34.82,-67.3 -68.54,-67.81 5.43,34.57 31.91,64.47 68.54,67.81z"/>
   <path class="fil5" d="M1962.79 1147.93c9.5,-14.66 21.2,-25.69 23.65,-48.76 -33.73,1.4 -65.42,34.01 -68.23,68.03 24.95,-2.23 27.42,-10.94 44.58,-19.27z"/>
   <path class="fil5" d="M1867.64 1046.29c19.38,19.82 62.97,20.54 85.2,8.31 9.23,-5.08 5.48,-2.43 9.73,-8.86 -25.86,-22.95 -70.11,-19.43 -94.93,0.55z"/>
   <path class="fil5" d="M1985.45 993.5c-2.99,-34.8 -32.23,-63.84 -67.34,-67.35 3.5,35.11 32.03,64.44 67.34,67.35z"/>
   <path class="fil5" d="M2112.63 1046.45c23.82,19.48 75.86,23.6 96.88,-0.52 -27.56,-21 -69.51,-21.56 -96.88,0.52z"/>
   <path class="fil5" d="M2040.02 971.19c19.77,-33.86 19.92,-61.57 -0.06,-95.4 -23.14,17.24 -23.29,79.39 0.06,95.4z"/>
   <path class="fil3" d="M3146.59 1383.2c1.48,-6.48 2.06,-1.53 4.52,-10.72 3.95,-14.7 2.43,-7.69 -1.19,-14.84 -0.51,0.67 -1.32,0.83 -1.6,1.96l-5.04 5.2c-3.28,2.8 -3.97,2.89 -7.33,5.18l-77.08 52.91c-10.67,7.23 -21.74,12.28 -29.41,21.88 22.78,7.66 23.23,0.31 58.83,-23.45 17.79,-11.87 38.83,-30.18 58.3,-38.12z"/>
   <path class="fil3" d="M968.07 1293.77c6.45,7.37 113.54,80.61 125.01,84.86 -1.46,-24.19 -22.53,-31.38 -54.44,-53.57 -20.11,-13.99 -53.56,-41.93 -70.57,-31.29z"/>
   <path class="fil3" d="M2984.29 1378.46c11.07,-3.97 118.89,-77.08 123.95,-84.75 -22.65,-6.61 -39.96,10.76 -68.01,30.07 -30.88,21.25 -54.56,30.77 -55.94,54.68z"/>
   <path class="fil3" d="M1047.79 1444.7c-6.43,-7.39 -116.78,-82.96 -124.97,-85.03 8.67,28.05 12.57,24.93 53.14,52.65 32.77,22.39 49.03,40.67 71.83,32.38z"/>
   <path class="fil3" d="M1032.82 1421.54c-15.38,-38.25 -85.88,-72.4 -119.85,-98.17 1.6,25.71 18.79,31.65 52.17,53.42 17.66,11.53 49.58,37.15 67.68,44.75z"/>
   <path class="fil3" d="M2078.44 3455l7.96 -8.27c8.61,-23.71 5.7,-48.77 5.68,-79.41 -0.02,-28.87 7.27,-54.84 -15.19,-65.9l1.55 153.58z"/>
   <path class="fil3" d="M932.45 1295.81c8.22,12.06 50.62,37.3 63.91,46.64 20.47,14.42 45.17,29.67 74.98,33.41 -26.23,-10.99 -106.51,-89.28 -138.89,-80.05z"/>
   <path class="fil3" d="M3009.97 1374.65c39.81,-9.27 45.04,-14.38 72.57,-33.46 11.72,-8.12 20.75,-13.75 31.44,-21.24 5.98,-4.19 8.02,-5.75 14.58,-10.13l11.1 -7.93c4.79,-4.55 1.23,-0.27 5.22,-6.07 -28,-2.87 -42.41,13.06 -71.37,33.35 -17.91,12.55 -50.39,32.11 -63.54,45.48z"/>
   <path class="fil3" d="M2009.32 3469.59c5.44,1.67 1.02,-0.37 6.74,5.35 4.18,4.17 1.79,3.04 6.78,6.74 2.38,-48.8 6.41,-120.14 -14.79,-157.81l1.27 145.72z"/>
   <path class="fil3" d="M1998.53 3452.45l1.38 -151c-12.73,6.63 -14.61,10.78 -14.99,28.46 -0.33,15.33 0.12,31.3 0.11,46.71 -0.01,35.73 -6.49,55.31 13.5,75.83z"/>
   <path class="fil3" d="M2057.82 3480.36l9.95 -10.77 0.45 -143.32c-10.35,14.85 -14.24,40.49 -14.3,59.52 -0.04,12.68 -4.31,86.88 3.9,94.57z"/>
   <path class="fil3" d="M3147.58 1354.44c6.22,-8.39 14.71,-7.43 17.07,-31.04l-97.54 67.47c-6.52,6.33 -21.64,25.57 -25.6,32.82 29.19,-15.86 84.03,-60.08 106.07,-69.25z"/>
  </g>
 </g>
</svg>
