<?xml version="1.0" encoding="UTF-8"?>
<!DOCTYPE svg PUBLIC "-//W3C//DTD SVG 1.1//EN" "http://www.w3.org/Graphics/SVG/1.1/DTD/svg11.dtd">
<!-- Creator: CorelDRAW 2020 (64-Bit) -->
<svg xmlns="http://www.w3.org/2000/svg" xml:space="preserve" width="150mm" height="34mm" version="1.1" style="shape-rendering:geometricPrecision; text-rendering:geometricPrecision; image-rendering:optimizeQuality; fill-rule:evenodd; clip-rule:evenodd"
viewBox="0 0 15000 3400"
 xmlns:xlink="http://www.w3.org/1999/xlink"
 xmlns:xodm="http://www.corel.com/coreldraw/odm/2003">
 <defs>
  <style type="text/css">
   <![CDATA[
    .fil0 {fill:#02BA02}
   ]]>
  </style>
 </defs>
 <g id="Слой_x0020_1">
  <metadata id="CorelCorpID_0Corel-Layer"/>
  <path class="fil0" d="M4660 913.34l1.32 1277.39c360.11,23.95 242.94,-354.61 263.49,-696.83 214.91,-14.99 495.52,20.96 697.18,-3.68 90.1,-11.01 170.26,-68.75 214.55,-129.95 70.34,-97.21 48.67,-273.55 48.67,-433.17 0,-417.85 -311.07,-358.05 -605.68,-358.05 -307.09,0 -619.53,-58.97 -619.53,344.29zm-4070.45 575.94l257.07 2.28 2.72 -713.27c65.95,45.22 517.53,510.02 628.94,620.14 42.05,41.56 77.19,89.64 153.64,94.19 395.5,23.55 331.38,8.46 332.01,-714.31 99.25,76.94 654.73,646.79 711.52,688.86 46.14,34.18 242.46,37.27 317.19,21.91 103.53,-21.27 85.65,-158.3 85.54,-273 -0.16,-162.82 -32.22,-583.37 64.44,-641.91 -217.61,-25.03 -314.52,-7.76 -313.38,173.47 1.01,161.13 8.94,349.58 -1.88,507.87 -40.09,-11.01 -278.17,-244.97 -323.98,-290.71 -108.66,-108.51 -207.95,-208.03 -316.47,-316.62 -91.65,-91.7 -70.09,-79 -237.56,-79.28 -116.8,-0.2 -196.24,2.83 -233.48,83.59 -36.35,78.81 -7.3,484.48 -18.37,615.97 -97.27,-74.5 -236.38,-232.01 -335.79,-330.86 -52.72,-52.43 -124.09,-113.83 -174.93,-170.41l-174.69 -168.66c-46.63,-40.88 -55.25,-30.78 -135.62,-30.01 -136.33,1.31 -290.89,-25.89 -289.93,234.21 0.81,219 -11.74,472.08 3.01,686.55zm3892.17 -493.38c0.06,-200.77 22.67,-232.32 -78.54,-334.63 -51.35,-51.92 -107.78,-92.22 -210.76,-92.22l-577.95 0c-144.33,0 -198.07,26.63 -272.54,99.33 -87.92,85.82 -71.86,142.39 -71.75,300 0.07,97.32 -17.97,276.8 17.68,353.29 31.44,67.46 127.42,145.18 209.85,162.8 70.63,15.1 648.85,15.89 734.96,6.15 90.87,-10.27 187.23,-91.63 221.57,-150.88 47.19,-81.42 27.44,-232.62 27.48,-343.84zm1582.05 -82.56c0,355.81 -50.03,578.48 399.2,578.48l399.06 0c246.77,0.1 412.86,-26.21 413.13,-330.79 0.18,-196.35 31.46,-427.32 -87.03,-518.73 -117.69,-90.78 -219.47,-73.41 -381.14,-73.23 -402.69,0.43 -743.22,-72.01 -743.22,344.27zm3880.7 1706.62c154.72,0 140.41,36.6 137.08,-204.97l-797.6 -2.12c-53.72,-0.1 -95.54,5.23 -126.06,-25.6 -29.05,-29.35 -32.72,-72.39 -4.71,-104.02 52.96,-59.81 497.89,-34.63 598.96,-34.38 346.61,0.86 417.99,-335.72 209.22,-499.22 -123.59,-96.79 -371.28,-66.26 -567.32,-66.19 -476.75,0.18 -523.45,83.22 -523.18,427.08 0.24,319.24 -31.01,509.06 440.61,509.27 210.99,0.09 422,-0.01 633,0.15zm-729.33 -1486.15l509.16 -0.09c71.97,-0.03 53.41,8.79 95.03,41.29 0.72,87.47 -2.38,56.01 -40.44,106.75l-900.61 6.16 -8.41 201.46c170.22,11.52 906.8,22.92 1015.38,-16.2 300.18,-108.14 274.67,-546.15 -160.95,-546.37l-385.31 -0.09c-156.17,0 -263.34,-7.13 -164.79,-149.05 44.11,-1.47 834.27,15.39 865.59,-15.59 15.12,-14.96 15.61,-56.72 15.98,-81.79 0.52,-34.36 -1.17,-74.17 -2.8,-108.7 -161.15,-12 -356.44,-2.55 -521.32,-2.54 -155.95,0 -370.63,-28.17 -491.28,31.3 -295.64,145.75 -189.26,534.89 174.77,533.46zm-3632.75 1348.27l-0.02 137.23c332.82,1.69 260.64,85.8 261.57,-467.49l1.47 -243.45c63.45,43.76 134.07,124.58 193.8,184.79 64.54,65.06 128.51,128.41 193.2,193.01 69.91,69.79 132.18,117.77 199.57,185.65 155.71,156.81 112.78,148.11 388.77,148.11 187.54,0 137.89,-265.35 137.89,-426.83l2.6 -410.19c10.25,-54.74 34.17,-57.58 56.55,-98.68 -424.68,-8.42 -303.3,90.72 -322.69,691.15l-200.57 -172.72c-120.64,-108.31 -388.22,-402 -482.82,-480.69 -49.2,-40.92 -73.51,-38.16 -154.22,-38.31 -203.35,0.01 -277.06,54.95 -275.64,261.53 1.23,178.97 -0.08,357.93 0.54,536.89zm6423.96 -109.93c-97.69,67.35 -245.39,40.81 -438.09,40.81 -161.78,0 -333.88,-5.81 -494.37,2.18l-0.47 202.05c214.3,15.17 470.34,2.75 687.49,2.74 247.25,-0.01 417.99,3.95 495.93,-192.01 40.56,-101.99 4.98,-207.28 -47.41,-270.6 -49.92,-60.35 -131.4,-102.86 -241.56,-102.4 -98.92,0.41 -243.95,-15.71 -322.3,-5.82 -57.6,7.27 -115.31,6.99 -174.41,6.78 -102.12,-0.36 -63.64,-4.03 -136.34,-39.96l-0.06 -85.99c129.94,-64.17 210.15,-39.21 426.15,-39.21 158.6,0 321.02,3.5 479.14,-1.91l2.78 -204.28c-161.3,-5.36 -870.85,-26.84 -1000.74,31 -224.92,100.16 -209.67,346.49 -90.86,454.25 175.58,159.26 602.37,32.88 795.62,85.85 64.57,17.69 62.27,42.89 59.5,116.52zm1956.3 247.78l589.31 2.11c9.92,307.24 -72.94,722.88 261.48,696.96 15.32,-381.83 8.5,-1212.37 0.83,-1619.41 -123.36,-1.7 -225.41,111.33 -248.76,216 -22.55,101.12 8.64,383.15 -15.83,437.26 -41.37,91.46 -258.92,60.18 -421.9,60.23 -337.24,0.1 -270.06,59.79 -275.73,-713.07 -100.64,-0.64 -185.02,80.24 -224.11,145.04 -48.42,80.28 -23.2,252.34 -23.21,361.81 -0.03,161.51 -17.06,221.99 71.33,314.06 62.75,65.34 163.58,98.99 286.59,99.01zm-9784.4 -619.48l0.08 275.22c-0.03,125.37 10.75,170.99 85.48,244.86 55.43,54.79 137.09,99.4 245.11,99.4l550.44 0c181.92,0 337.06,-108.72 344.45,-288.89 7.47,-182.38 9.75,-451.6 -2.3,-631.77 -136.14,0.18 -259.47,114.64 -259.47,314.94 0.02,458.46 58.98,398.76 -426.7,398.88 -337.94,0.08 -275.71,64.84 -274.81,-713.81 -148.94,0.39 -262.29,142.82 -262.28,301.17zm9342.62 618.39l0.77 -203.85c-414.3,-18.21 -376.72,20.69 -369.62,-522.66l299.87 -2.37 1.31 -205.14 -300.06 -1.8 -2.49 -549.14c-207.1,4.49 -262.67,128.4 -261.57,329.8 1.09,197.17 0.09,394.62 0.09,591.81 0,437.79 -35.22,596.32 631.7,563.35zm-4652.48 -932.37c-294.73,-20.36 -314.87,88.3 -426.82,256.05 -47.58,71.3 -247.54,386.38 -286.01,413.77 -99.46,-102.88 -326.27,-534.21 -421.11,-609.41 -68.73,-54.5 -178.7,-70.14 -291.56,-60.04 10.61,41.91 271.69,433.35 316.2,503.5 55.52,87.49 110.09,159.63 163,249.91 143.4,244.64 308.84,237.06 470.22,3.37 71.34,-103.31 467.06,-709.79 476.08,-757.15zm-1414.83 -1461.18l-0.26 935.74c0.11,110.84 4.55,154.3 65.34,223.65 127.8,145.78 304.99,106.75 499.31,107.14 33.57,0.07 124.17,4.24 151.45,-1.18 51.34,-10.2 27.55,-20.1 27.75,-150.72 0.09,-65.94 62.45,-55.65 -179.2,-55.65 -211.59,0 -302.2,21.25 -302.21,-205.8l-0.45 -1057.95c-174.92,-7.92 -261.73,116.62 -261.73,204.77zm-3935.04 701.81c-0.07,411.48 -40.05,357.17 384.92,357.17 361.9,-0.01 330.07,55.16 330.05,-370.93 0,-161.66 -85.64,-136.66 -233.72,-137.31l-426.9 0.53c-34.48,54.94 -54.33,52.38 -54.35,150.54zm2808.22 -110.96c-13.08,561.18 -93.42,468.13 521.53,468.13 215.01,0 178.44,-28.99 178.39,-370.93 -0.01,-140.13 -55.8,-137.36 -192.15,-137.36l-357.78 0c-96.75,0 -91.05,0.57 -149.99,40.16zm-703.3 262.33c-0.02,-357.42 58.34,-302.49 -467.75,-302.49 -199.87,0 -235.02,-32.77 -233.51,178.44 2.89,400.87 -62,327.38 495.01,329.91 212.27,0.97 206.25,5.15 206.25,-205.86zm4650.88 839.41l0.85 699.75c348.26,26.04 265.49,26.59 261.19,-507.28 -2.13,-262.93 109.99,-219.14 452.81,-220.56l0.58 -203.18 -453.56 -2.91c-161.71,-0.12 -262.55,74.13 -261.87,234.18zm-3135.19 700.6c303.56,17.6 260.25,7.93 259.81,-177.69l-3.21 -749.36c-83.64,-19.98 -169.31,28.26 -207.88,70.72 -64.11,70.56 -51.56,134.92 -51.17,252.05 0.64,192.87 -10.49,415.32 2.45,604.28zm5569.55 0.7l1.84 -933.96c-322.05,-8.01 -261.69,295.96 -261.69,466.6 -0.01,119.52 0.84,239.11 -0.94,358.6 -1.72,116.16 -35.04,121.31 260.79,108.76zm-12561.93 -1774.65l1.08 644.77 258.44 2.26 2.39 -920.46c-107.22,-5.78 -142.8,9.71 -198.11,62.61 -73.03,69.84 -63.14,93.48 -63.8,210.82zm8270.05 0l1.51 645.88 244.32 0.38 0.87 -919.55c-235.05,-11.65 -245.95,137.31 -246.7,273.29zm717.62 1208.58l548.59 2.02c185.42,-0.02 167.68,-164.41 27.53,-164.41 -484.69,0 -583.44,-56.99 -576.12,162.39z"/>
 </g>
</svg>
