<?xml version="1.0" encoding="UTF-8"?>
<!DOCTYPE svg PUBLIC "-//W3C//DTD SVG 1.1//EN" "http://www.w3.org/Graphics/SVG/1.1/DTD/svg11.dtd">
<!-- Creator: CorelDRAW 2020 (64-Bit) -->
<svg xmlns="http://www.w3.org/2000/svg" xml:space="preserve" width="51mm" height="51mm" version="1.1" style="shape-rendering:geometricPrecision; text-rendering:geometricPrecision; image-rendering:optimizeQuality; fill-rule:evenodd; clip-rule:evenodd"
viewBox="0 0 5100 5100"
 xmlns:xlink="http://www.w3.org/1999/xlink"
 xmlns:xodm="http://www.corel.com/coreldraw/odm/2003">
 <defs>
  <style type="text/css">
   <![CDATA[
    .fil0 {fill:white}
   ]]>
  </style>
 </defs>
 <g id="Слой_x0020_1">
  <metadata id="CorelCorpID_0Corel-Layer"/>
  <g>
   <path class="fil0" d="M2444.07 2930.33c-19.59,49.52 -9.16,109.7 5.38,163.99 39.91,149.12 70.42,339.44 -60.62,457.62 56.58,-95.14 55.43,-183.14 36.91,-283.92 -10.02,-54.54 -22.87,-108.68 -34.64,-162.86 -16.26,-74.82 -21.61,-163.54 40.38,-220.48 23.98,-22.03 50.1,-44.96 70.16,-72.56 16.93,-23.3 23.15,-41.25 23.15,-70.47l0 -95.83 18.27 -12.5 18.3 12.52 0 98.01c0,30.22 8.63,49.38 26.64,72.93 19.54,25.54 44.05,47.12 66.68,67.9 61.99,56.94 56.63,145.66 40.37,220.48 -11.77,54.18 -24.61,108.32 -34.63,162.86 -18.53,100.78 -19.68,188.78 36.91,283.92 -131.04,-118.18 -100.54,-308.5 -60.62,-457.62 14.52,-54.28 24.96,-114.43 5.39,-163.96 45.17,42.75 44.11,109.7 33.97,168.82 17.78,-68.26 17.09,-119.64 -14.62,-165.1 -14.46,-20.75 -36.53,-36.03 -54.07,-54.16 -18.46,-19.06 -35.53,-43.17 -46.02,-66.2l0 723.97c0,28.22 22.59,56.44 45.87,70.86 52.41,32.49 59.45,69.89 59,127.38l0 497.86 -17.13 21.44c1.05,-184.59 -0.87,-328.4 0.59,-512.97l0.05 -7.38c-0.1,1.64 -0.14,3.24 -0.16,4.79 0.34,-59.63 -86.18,-67.43 -100.4,-132.45 -1.53,-7.02 -10.64,-7.94 -12.18,0 -12.77,65.98 -95.34,69.75 -100.32,129.95l0.04 5.09c1.44,184.54 1.94,328.42 0.58,512.97l-17.13 -21.44c-1.17,-150.37 1.19,-347.5 0,-497.86 -0.46,-57.48 6.6,-94.91 59.01,-127.38 24.33,-15.08 45.61,-42.47 45.61,-71.59l0 -723.2c-11.04,24.21 -28.08,46.96 -46.81,66.68 -16.99,17.9 -39.32,33.59 -53.28,53.64 -31.71,45.46 -32.4,96.84 -14.62,165.1 -10.14,-59.13 -11.2,-126.07 33.99,-168.85zm-66.62 -568.5c-29.81,-44.14 -85.36,-69.51 -138.37,-88.17 -145.61,-51.27 -319.9,-133.57 -343.44,-308.46 46.57,100.43 119.84,149.17 213.48,190.8 50.66,22.53 102.6,42.51 153.96,63.38 70.93,28.84 147.17,74.52 159.15,157.84 4.64,32.23 8.82,66.74 20.27,98.88 9.67,27.13 20.97,42.4 45.08,58.9l198.1 135.56c76.05,52.03 155.8,97.66 239.67,135.91l-24.62 28.62 17.81 70.56c-76.87,-76.89 -164.8,-144.21 -254.42,-205.53l-199 -136.18c-24.95,-17.07 -45.64,-20.77 -75.24,-19.2 -32.11,1.7 -63.77,9.74 -93.69,16.68 -82,19 -152.19,-35.51 -204.76,-91.19 -38.06,-40.31 -75.49,-81.49 -114.84,-120.55 -72.71,-72.21 -144.69,-122.85 -255.17,-129.88 171.54,-41.4 311.38,91.25 411.91,208.4 36.59,42.64 80.33,85.23 132.26,97.04 -60.79,13.14 -115.43,-25.54 -158.5,-67.3 46.29,53.22 89.08,81.67 144.51,81.18 25.28,-0.22 50.36,-9.81 75.22,-14.04 26.17,-4.47 55.71,-4.95 80.63,-0.6l-597.47 -408.84c-23.3,-15.94 -59.34,-13.23 -84.39,-2.17 -56.41,24.91 -91.25,9.6 -138.44,-23.23l-410.88 -281.16 -8.01 -26.25c151.73,105.11 271.51,184.74 423.01,290.18l6.06 4.21c-1.3,-1.01 -2.59,-1.95 -3.87,-2.84 49.02,33.96 104.32,-33.05 166.01,-8.06 6.66,2.7 12.56,-4.3 6.88,-10.05 -47.24,-47.79 -3.73,-118.07 -50.59,-156.18l-4.22 -2.84c-153.12,-103.03 -272.14,-183.87 -423.67,-289.21l27.36 -2.03c124.75,83.95 286.11,197.22 410.87,281.16 47.7,32.08 74.61,59.04 71.81,120.63 -1.3,28.59 9.28,61.62 33.32,78.07l596.84 408.41c-13.75,-22.78 -22.9,-49.7 -28.59,-76.29 -5.18,-24.13 -5.52,-51.42 -14.18,-74.26 -19.62,-51.84 -61.63,-81.43 -128,-105.31 54.52,25.03 110.37,61.96 120.15,123.41zm331.24 -0.01c29.82,-44.13 85.37,-69.47 138.39,-88.16 145.61,-51.27 319.89,-133.57 343.44,-308.48 -46.58,100.45 -119.84,149.18 -213.48,190.83 -50.68,22.52 -102.6,42.48 -153.98,63.36 -70.93,28.84 -147.14,74.53 -159.16,157.84 -4.59,32.22 -8.81,66.77 -20.25,98.92 -9.65,27.1 -20.97,42.38 -45.08,58.88l-43.76 29.95 32.36 22.15 33.86 -23.17c24.92,-17.07 45.64,-20.75 75.25,-19.21 32.09,1.7 63.75,9.78 93.7,16.69 81.99,19 152.18,-35.51 204.73,-91.18 38.06,-40.32 75.51,-81.49 114.85,-120.55 72.71,-72.22 144.71,-122.88 255.16,-129.88 -171.52,-41.41 -311.36,91.23 -411.89,208.38 -36.58,42.66 -80.34,85.25 -132.28,97.04 60.81,13.15 115.44,-25.55 158.52,-67.29 -46.3,53.22 -89.09,81.66 -144.52,81.18 -25.28,-0.23 -50.35,-9.79 -75.2,-14.04 -26.19,-4.47 -55.72,-4.95 -80.66,-0.6l597.49 -408.85c23.3,-15.93 59.34,-13.21 84.37,-2.15 56.42,24.91 91.25,9.6 138.45,-23.24l410.89 -281.16 8.02 -26.22c-151.75,105.08 -271.51,184.73 -423.01,290.15l-6.07 4.2c1.29,-1.01 2.58,-1.94 3.86,-2.84 -49.03,33.95 -104.33,-33.05 -166.02,-8.04 -6.64,2.68 -12.52,-4.31 -6.86,-10.05 47.23,-47.8 3.73,-118.07 50.58,-156.18l4.21 -2.85c153.13,-103.03 272.18,-183.86 423.69,-289.19l-27.37 -2.05c-124.74,83.95 -286.13,197.23 -410.87,281.17 -47.7,32.06 -74.63,59.05 -71.8,120.62 1.29,28.59 -9.29,61.62 -33.34,78.06l-596.83 408.44c13.74,-22.81 22.91,-49.72 28.61,-76.29 5.16,-24.15 5.5,-51.44 14.14,-74.29 19.63,-51.83 61.66,-81.42 128.03,-105.3 -54.53,25.03 -110.38,61.95 -120.17,123.4zm-165.26 2443.97c-33.46,0 -60.58,-27.12 -60.58,-60.58 0,-33.45 27.12,-60.57 60.58,-60.57 33.45,0 60.57,27.12 60.57,60.57 0,33.46 -27.12,60.58 -60.57,60.58zm260.64 -116.69c5.83,24.27 12.53,54.38 20.18,90.36 0.28,-42.43 -0.07,-73.34 -1.01,-92.8l-19.17 2.44zm-12.21 143.52l-59.89 -213.01 57.69 -7.33 8.02 38.58 20.36 -2.58 -1.89 -39.37 58.42 -7.42 -1.05 220.76 -81.66 10.37zm181.43 -149.31l-10.79 -60.47c-7.67,1.65 -12.4,3.76 -14.14,6.37 -1.74,2.61 -1.8,8.28 -0.24,17l3.6 20.16c1.65,9.26 3.6,14.67 5.87,16.33 2.25,1.61 7.49,1.8 15.7,0.61zm14.55 81.45l-8.56 -47.94c-2.35,0.51 -4.15,0.88 -5.47,1.11 -5.36,0.96 -8.56,2.94 -9.54,5.88 -1.01,2.99 -0.35,10.88 1.93,23.64 1.21,6.76 2.64,11.38 4.35,13.88 1.71,2.46 3.6,3.91 5.68,4.28 2.08,0.33 5.96,0.06 11.61,-0.85zm62.68 26.75l-55.75 9.95c-17.61,3.15 -31.2,4.17 -40.78,3.03 -9.56,-1.11 -17.87,-5.38 -24.94,-12.74 -7.09,-7.4 -12.26,-20.39 -15.59,-39.01 -2.24,-12.57 -1.86,-21.68 1.21,-27.33 3.05,-5.71 10.19,-10.86 21.33,-15.62 -13.51,-0.63 -23.18,-3.92 -29.02,-9.86 -5.85,-5.98 -10.02,-15.96 -12.54,-30.03l-3.56 -19.98c-2.61,-14.57 -2.84,-25.63 -0.79,-33.26 2.07,-7.58 6.47,-13.33 13.27,-17.22 6.81,-3.89 21.47,-7.81 43.99,-11.84l64.69 -11.55 38.48 215.46zm81.38 -80.88c2.77,9.76 5.08,15.86 6.93,18.31 1.83,2.4 4.4,3.16 7.68,2.23 2.79,-0.79 4.61,-2.51 5.49,-5.15 0.84,-2.6 -0.26,-9.33 -3.33,-20.15l-27.9 -98.26c-3.47,-12.2 -6.1,-19.61 -7.88,-22.17 -1.79,-2.61 -4.46,-3.38 -8,-2.38 -3.65,1.04 -5.53,3.35 -5.62,6.92 -0.09,3.57 1.65,11.56 5.17,23.94l27.46 96.71zm-74.47 -53.59c-6.01,-21.16 -9.77,-36.25 -11.24,-45.33 -1.53,-9.1 -0.7,-18.01 2.46,-26.77 3.17,-8.77 8.69,-16.37 16.5,-22.81 7.8,-6.43 17.63,-11.33 29.47,-14.7 11.27,-3.19 21.87,-4.19 31.88,-3.05 10,1.13 18.8,4.58 26.3,10.41 7.55,5.81 13.07,12.92 16.59,21.27 3.49,8.41 8.33,23.43 14.48,45.08l10.23 36.02c6,21.16 9.76,36.25 11.23,45.32 1.53,9.11 0.71,18.02 -2.46,26.78 -3.17,8.76 -8.68,16.37 -16.49,22.8 -7.81,6.44 -17.63,11.34 -29.48,14.7 -11.27,3.2 -21.87,4.2 -31.87,3.06 -10.01,-1.14 -18.8,-4.58 -26.31,-10.41 -7.54,-5.82 -13.06,-12.93 -16.58,-21.27 -3.49,-8.41 -8.33,-23.43 -14.48,-45.08l-10.23 -36.02zm121.58 -129.88l53.99 -18.27 56.14 165.91 15.72 -5.32 -39.71 -117.38c-5.23,-15.46 -6.98,-27.24 -5.28,-35.31 1.73,-8.13 6.34,-14.36 13.84,-18.8 7.55,-4.45 20.14,-9.69 37.88,-15.69l8.43 -2.85 12.06 35.64c-6.6,2.23 -10.82,4.58 -12.76,7.05 -1.94,2.46 -1.29,8.42 1.92,17.89l51.63 152.59 -123.71 41.86 -70.15 -207.32zm152.22 -55.01l43.37 -19.61 41.01 90.72 -14.03 -102.92 45.13 -20.4 90.16 199.44 -43.37 19.6 -40.69 -90.01 11.7 103.12 -43.11 19.49 -90.17 -199.43zm245.56 -8.38l-28 -54.67c-6.85,3.82 -10.76,7.22 -11.66,10.22 -0.9,3 0.7,8.45 4.74,16.33l9.33 18.22c4.29,8.38 7.74,12.99 10.39,13.91 2.63,0.88 7.69,-0.47 15.2,-4.01zm37.71 73.64l-22.2 -43.34c-2.09,1.17 -3.71,2.05 -4.9,2.66 -4.84,2.48 -7.33,5.31 -7.41,8.41 -0.09,3.15 2.85,10.51 8.76,22.04 3.13,6.12 5.85,10.11 8.22,12.01 2.35,1.85 4.58,2.68 6.68,2.43 2.08,-0.29 5.72,-1.69 10.85,-4.21zm67.76 7.26l-50.4 25.82c-15.92,8.15 -28.62,13.1 -38.11,14.8 -9.48,1.75 -18.67,0.08 -27.59,-4.88 -8.93,-5.01 -17.68,-15.92 -26.3,-32.75 -5.82,-11.37 -8.12,-20.2 -6.84,-26.5 1.26,-6.34 6.58,-13.36 15.84,-21.17 -13.1,3.35 -23.31,3.03 -30.64,-0.94 -7.33,-4.01 -14.24,-12.34 -20.76,-25.06l-9.25 -18.06c-6.75,-13.18 -10.21,-23.68 -10.47,-31.58 -0.25,-7.85 2.29,-14.65 7.66,-20.35 5.37,-5.7 18.24,-13.75 38.6,-24.17l58.49 -29.96 99.77 194.8zm2.9 -169.39c15.68,19.42 34.66,43.74 57.01,72.96 -17.96,-38.45 -31.55,-66.22 -40.74,-83.39l-16.27 10.43zm50.58 134.87l-145.53 -166.68 48.95 -31.39 23.81 31.41 17.28 -11.07 -18.6 -34.75 49.57 -31.78 93.82 199.84 -69.3 44.42zm99.74 -212.4l-35.6 -50.06c-6.23,4.77 -9.6,8.7 -10.06,11.79 -0.46,3.11 1.92,8.26 7.05,15.48l11.86 16.69c5.46,7.66 9.53,11.73 12.29,12.26 2.72,0.49 7.54,-1.57 14.46,-6.16zm47.95 67.43l-28.22 -39.69c-1.91,1.46 -3.38,2.57 -4.47,3.34 -4.44,3.16 -6.49,6.32 -6.12,9.39 0.37,3.13 4.33,9.99 11.84,20.55 3.99,5.6 7.26,9.16 9.87,10.69 2.59,1.5 4.92,1.99 6.97,1.45 2.01,-0.59 5.41,-2.5 10.13,-5.73zm68.09 -2.6l-46.15 32.82c-14.58,10.37 -26.43,17.1 -35.58,20.16 -9.12,3.09 -18.45,2.77 -27.99,-0.87 -9.57,-3.66 -19.8,-13.19 -30.76,-28.6 -7.4,-10.41 -10.94,-18.81 -10.59,-25.23 0.33,-6.46 4.58,-14.18 12.62,-23.24 -12.48,5.2 -22.63,6.36 -30.45,3.49 -7.84,-2.91 -15.88,-10.15 -24.16,-21.8l-11.76 -16.54c-8.58,-12.06 -13.52,-21.96 -14.92,-29.74 -1.37,-7.73 0.15,-14.82 4.64,-21.24 4.49,-6.42 16.07,-16.24 34.71,-29.49l53.56 -38.08 126.83 178.36zm-48.92 -187.89l-29.17 -33.67 31.16 -27 29.17 33.68 -31.16 26.99zm15.13 -70.9l34.44 -32.84 68.7 72.07 -47.27 -92.49 35.85 -34.18 151.02 158.41 -34.44 32.84 -68.17 -71.49 45.14 93.45 -34.25 32.65 -151.02 -158.42zm134.81 -68.74l-32.24 -30.74 28.45 -29.84 32.24 30.74 -28.45 29.84zm173.67 71.17l-165.43 -143.3 37.32 -43.08 69.43 60.15 10.88 -12.56 -69.44 -60.14 37.32 -43.08 165.43 143.3 -37.32 43.08 -59.19 -51.27 -10.87 12.55 59.19 51.27 -37.32 43.08zm-35.74 -298.6l27.58 -38.78 81.14 57.7 -63.98 -81.83 28.7 -40.36 178.37 126.84 -27.58 38.78 -80.5 -57.24 62.06 83.17 -27.42 38.56 -178.37 -126.84zm277.45 -12.46l-189.74 -109.11 28.41 -49.41 79.64 45.79 8.28 -14.39 -79.64 -45.79 28.41 -49.41 189.74 109.1 -28.41 49.41 -67.88 -39.03 -8.28 14.39 67.88 39.03 -28.41 49.42zm123.83 -224.19l-43.26 84.47 -38.91 -19.93 17.28 -33.74 -37.19 -19.05 -16.15 31.53 -36.94 -18.92 16.15 -31.53 -42.85 -21.95 -19.05 37.19 -38.91 -19.93 45.03 -87.92 194.8 99.78zm14.71 -30.19l-199.43 -90.16 20.52 -45.39 134.69 60.75 -126.48 -78.9 14.36 -31.77 140.21 40.46 -131.55 -59.62 20.52 -45.38 199.43 90.16 -30.3 67.02c-12.92,-3.56 -28.05,-7.92 -45.28,-13.02l-53.96 -15.54 87.78 53.9 -30.51 67.49zm-122.77 -273.07l15.25 -45.08 94.32 31.91 -84.83 -59.95 15.88 -46.92 207.32 70.15 -15.26 45.08 -93.56 -31.66 83.37 61.8 -15.17 44.82 -207.32 -70.15zm58.69 -189.55l10.7 -46.37 97.01 22.39 -90.35 -51.23 11.13 -48.27 213.27 49.22 -10.71 46.38 -96.25 -22.22 89.1 53.22 -10.64 46.1 -213.26 -49.22zm34.02 -145.92l6 -47.21 98.78 12.55 -95.05 -41.92 6.25 -49.13 217.12 27.58 -6 47.22 -97.99 -12.45 93.98 44.01 -5.96 46.94 -217.13 -27.59zm204.8 -193.46l-55.59 -4.23c-0.22,1.61 -0.37,2.98 -0.46,4.13 -0.39,5.2 0.62,8.88 3.05,11.1 2.38,2.17 7.63,3.59 15.73,4.21l17.97 1.36c7.46,0.57 12.42,-0.21 14.85,-2.38 2.42,-2.13 3.9,-6.88 4.45,-14.19zm41.57 -54l-4.34 57.16c-1.18,15.45 -3.28,27.22 -6.35,35.36 -3.06,8.09 -7.03,14.07 -11.9,17.91 -4.92,3.84 -10.7,6.23 -17.3,7.24 -6.64,0.98 -16.77,0.95 -30.42,-0.09l-18.99 -1.44c-13.89,-1.06 -23.94,-3.25 -30.07,-6.63 -6.17,-3.34 -10.69,-9 -13.51,-16.89 -2.82,-7.94 -3.76,-18.1 -2.82,-30.46l1.15 -15.23 -88.01 -6.69 4.32 -56.83 218.24 16.59zm3.39 -125.99l-2.4 94.87 -43.7 -1.1 0.96 -37.89 -41.77 -1.06 -0.9 35.4 -41.49 -1.04 0.9 -35.41 -48.13 -1.22 -1.06 41.77 -43.7 -1.11 2.49 -98.74 218.8 5.53zm-1.1 -34.08l-218.79 5.54 -1.45 -56.98 91.84 -2.32 -0.42 -16.6 -91.84 2.32 -1.44 -56.98 218.8 -5.54 1.44 56.99 -78.28 1.97 0.42 16.6 78.28 -1.98 1.44 56.98zm-19.98 -266.75l11.96 94.15 -43.37 5.51 -4.78 -37.61 -41.45 5.27 4.47 35.13 -41.17 5.24 -4.47 -35.14 -47.76 6.07 5.26 41.45 -43.37 5.51 -12.45 -97.99 217.13 -27.59zm-147.65 -129.02c-2.38,-11.75 -8.47,-16.75 -18.32,-15l-56.71 10.13c-7.53,1.35 -13.04,1.49 -16.47,0.37 -3.42,-1.08 -5.23,-2.02 -5.35,-2.7l-8.26 -46.26c6.48,2.96 15.41,3.43 26.76,1.4l48.4 -8.64c10.3,-1.84 18.66,-0.38 25.09,4.37 6.43,4.75 12.04,13.92 16.84,27.4l0.27 -0.05c-3.18,-25.43 6.29,-40.1 28.35,-44.04l45.62 -8.15c11.26,-2.01 19.31,-5.51 24.17,-10.5l8.27 46.26c-0.31,1.42 -1.98,3.12 -5.05,5.07 -3.12,1.92 -7.86,3.47 -14.35,4.63l-53.57 9.56c-9.85,1.76 -13.9,8.48 -12.19,20.17l89.35 -15.96 10.02 56.12 -89.34 15.95c2.43,11.56 8.56,16.46 18.41,14.7l53.57 -9.57c7.44,-1.33 12.85,-1.45 16.23,-0.41 3.42,1.07 5.18,2.03 5.33,2.84l8.25 46.22c-6.29,-3 -15.05,-3.5 -26.31,-1.49l-45.62 8.15c-22.07,3.94 -36.03,-6.59 -41.87,-31.64l-0.27 0.05c0.17,14.35 -1.92,24.89 -6.3,31.62 -4.37,6.73 -11.71,10.99 -22.02,12.84l-48.39 8.64c-11.35,2.03 -19.57,5.55 -24.63,10.58l-8.25 -46.22c0.38,-1.56 2.13,-3.28 5.25,-5.2 3.13,-1.91 7.96,-3.43 14.41,-4.59l56.7 -10.12c9.85,-1.76 13.84,-8.56 12,-20.42l-92.61 16.55 -10.02 -56.12 92.61 -16.54zm99.25 -127.02l-210.55 59.78 -15.57 -54.83 88.37 -25.1 -4.53 -15.97 -88.37 25.1 -15.57 -54.83 210.54 -59.79 15.57 54.83 -75.32 21.39 4.53 15.97 75.33 -21.39 15.57 54.84zm-254.26 -87.4l-15.25 -45.08 94.31 -31.92 -103.8 3.87 -15.87 -46.91 207.32 -70.15 15.25 45.08 -93.57 31.66 103.77 -1.52 15.17 44.82 -207.33 70.15zm-71.34 -185.1l-19.61 -43.37 90.72 -41.01 -102.92 14.04 -20.4 -45.13 199.43 -90.17 19.61 43.37 -90.01 40.7 103.12 -11.71 19.49 43.12 -199.43 90.16zm-88.91 -177.34l-23.72 -41.26 86.31 -49.62 -101.07 23.96 -24.69 -42.94 189.74 -109.1 23.72 41.26 -85.63 49.24 101.5 -21.66 23.58 41.02 -189.74 109.1zm-77.27 -128.2l-27.58 -38.78 81.14 -57.71 -98.3 33.58 -28.7 -40.37 178.36 -126.83 27.59 38.78 -80.51 57.25 98.95 -31.32 27.41 38.56 -178.36 126.84zm54.47 -223.22l-25.82 -32.85 -137.71 108.22 -35.22 -44.82 172.09 -135.24 61.03 77.67 -34.37 27.02zm-133.54 -139.95c7.35,-6.99 11.67,-11.88 12.98,-14.66 1.27,-2.74 0.75,-5.36 -1.61,-7.83 -2,-2.1 -4.37,-2.91 -7.12,-2.46 -2.68,0.46 -8.13,4.58 -16.27,12.34l-73.94 70.48c-9.17,8.75 -14.5,14.53 -15.94,17.3 -1.46,2.81 -0.91,5.53 1.63,8.2 2.62,2.73 5.54,3.33 8.74,1.74 3.2,-1.59 9.46,-6.85 18.77,-15.73l72.76 -69.38zm-12.7 90.87c-15.92,15.18 -27.52,25.54 -34.86,31.07 -7.34,5.6 -15.61,9.02 -24.84,10.3 -9.23,1.28 -18.53,-0.05 -27.86,-3.96 -9.33,-3.91 -18.25,-10.32 -26.75,-19.23 -8.08,-8.48 -13.9,-17.39 -17.56,-26.77 -3.65,-9.39 -4.7,-18.77 -3.04,-28.13 1.62,-9.38 5.34,-17.58 11.09,-24.59 5.8,-7 16.84,-18.29 33.13,-33.82l27.1 -25.84c15.92,-15.18 27.52,-25.53 34.86,-31.06 7.35,-5.6 15.61,-9.03 24.84,-10.31 9.23,-1.27 18.53,0.05 27.86,3.97 9.34,3.9 18.25,10.31 26.75,19.22 8.08,8.48 13.9,17.4 17.56,26.78 3.65,9.38 4.7,18.77 3.05,28.12 -1.63,9.39 -5.35,17.59 -11.09,24.59 -5.82,7.01 -16.85,18.29 -33.14,33.82l-27.1 25.84zm-170.77 -47.84l-41.25 -39.33 120.86 -126.77 -12.02 -11.46 -85.51 89.69c-11.26,11.81 -20.88,18.83 -28.81,21.07 -8.01,2.25 -15.67,1.06 -23.08,-3.52 -7.45,-4.62 -17.94,-13.34 -31.49,-26.26l-6.44 -6.14 25.97 -27.24c5.04,4.81 9.08,7.45 12.16,8.03 3.08,0.58 8.06,-2.77 14.96,-10.01l111.15 -116.59 94.53 90.12 -151.03 158.41zm-61.28 -272.78c6.27,-7.98 9.86,-13.43 10.75,-16.37 0.87,-2.89 -0.02,-5.41 -2.71,-7.52 -2.28,-1.8 -4.73,-2.26 -7.39,-1.42 -2.6,0.84 -7.4,5.69 -14.35,14.53l-63.12 80.32c-7.83,9.97 -12.28,16.45 -13.31,19.39 -1.05,2.99 -0.11,5.6 2.79,7.88 2.97,2.34 5.95,2.51 8.89,0.48 2.94,-2.03 8.38,-8.13 16.34,-18.25l62.11 -79.04zm0.4 91.74c-13.59,17.3 -23.6,29.21 -30.08,35.73 -6.46,6.59 -14.16,11.16 -23.11,13.74 -8.95,2.59 -18.34,2.59 -28.14,0.06 -9.8,-2.54 -19.53,-7.61 -29.22,-15.22 -9.2,-7.24 -16.24,-15.23 -21.2,-23.99 -4.96,-8.77 -7.33,-17.91 -7.02,-27.41 0.26,-9.52 2.77,-18.16 7.46,-25.92 4.75,-7.76 14.06,-20.5 27.97,-38.2l23.14 -29.44c13.58,-17.29 23.59,-29.2 30.07,-35.73 6.47,-6.59 14.16,-11.15 23.11,-13.74 8.95,-2.58 18.34,-2.59 28.14,-0.05 9.8,2.53 19.54,7.6 29.22,15.21 9.21,7.24 16.24,15.23 21.2,24 4.96,8.76 7.34,17.91 7.03,27.4 -0.27,9.52 -2.78,18.17 -7.47,25.92 -4.75,7.77 -14.06,20.51 -27.97,38.2l-23.13 29.44zm-49.72 -200.94l-126.84 178.37 -46.45 -33.04 53.24 -74.86 -13.53 -9.62 -53.24 74.86 -46.45 -33.03 126.84 -178.37 46.45 33.03 -45.38 63.82 13.53 9.62 45.38 -63.81 46.45 33.03zm-139.97 -96.42l-65.52 73.99 -34.71 120.85 -45.57 -26.2c5.46,-22.08 13.69,-48.04 24.72,-77.98 -8.38,11.35 -17.51,23.08 -27.48,35.22l-22.19 28.41 -47.97 -27.58 78.83 -95.48 30.27 -94.26 47.73 27.45c-2.01,5.81 -5.37,15.53 -10,29.14 -3.37,10.4 -6.64,19.96 -9.79,28.58l40.42 -45.86 41.26 23.72zm-211.14 -115.7l84.47 43.26 -19.93 38.92 -33.73 -17.28 -19.05 37.18 31.52 16.15 -18.92 36.94 -31.52 -16.15 -21.95 42.86 37.19 19.04 -19.93 38.91 -87.92 -45.03 99.77 -194.8zm-21.39 -10.13l-18.01 39.83 -30.5 -13.79 -72.16 159.6 -51.94 -23.48 72.16 -159.6 -30.76 -13.91 18.01 -39.83 113.2 51.18zm-215.88 -29.26c3.25,-9.61 4.81,-15.95 4.67,-19.01 -0.14,-3.02 -1.82,-5.1 -5.06,-6.19 -2.75,-0.93 -5.22,-0.55 -7.44,1.13 -2.17,1.65 -5.08,7.82 -8.69,18.48l-32.73 96.76c-4.07,12.01 -6.1,19.6 -6.09,22.72 0,3.17 1.76,5.32 5.25,6.5 3.58,1.21 6.45,0.38 8.54,-2.51 2.1,-2.9 5.2,-10.46 9.32,-22.65l32.23 -95.23zm30.94 86.37c-7.05,20.84 -12.51,35.4 -16.44,43.7 -3.9,8.37 -9.63,15.24 -17.21,20.67 -7.58,5.41 -16.43,8.56 -26.52,9.43 -10.08,0.87 -20.95,-0.67 -32.61,-4.61 -11.1,-3.76 -20.39,-8.95 -27.99,-15.56 -7.6,-6.61 -12.88,-14.43 -15.76,-23.49 -2.92,-9.07 -3.43,-18.06 -1.6,-26.93 1.89,-8.9 6.42,-24.02 13.64,-45.33l12 -35.48c7.05,-20.83 12.51,-35.39 16.44,-43.7 3.91,-8.37 9.64,-15.24 17.22,-20.66 7.57,-5.42 16.43,-8.56 26.51,-9.43 10.08,-0.88 20.95,0.66 32.62,4.61 11.09,3.75 20.39,8.94 27.98,15.55 7.6,6.61 12.89,14.44 15.76,23.5 2.92,9.06 3.44,18.05 1.6,26.92 -1.89,8.91 -6.42,24.02 -13.63,45.34l-12.01 35.47zm-173.65 36.65l-45.78 -13 27.2 -95.78 -55.68 87.69 -47.64 -13.53 59.78 -210.54 45.79 13 -26.98 95.03 57.58 -86.34 45.52 12.93 -59.79 210.54zm-187.14 -108.05l5.56 -31.15c1.62,-9.08 1.7,-14.73 0.23,-17.01 -1.47,-2.28 -6.45,-4.29 -14.93,-6.09l-12.65 70.82c7.13,1.28 12.1,1.23 14.92,-0.14 2.87,-1.36 5.16,-6.86 6.87,-16.43zm54.95 16.51c-2.86,16.02 -7.01,27.18 -12.43,33.43 -5.39,6.3 -12.52,9.52 -21.28,9.78 -8.81,0.25 -22.46,-1.25 -40.97,-4.55l-64.79 -11.57 38.48 -215.46 109.77 19.6 -6.66 37.32 -53.66 -9.59 -6.52 36.51 8.67 1.55c17.25,3.08 30.19,6.42 38.68,10.04 8.49,3.63 14.31,9.3 17.47,17.08 3.16,7.74 3.39,19.06 0.73,33.96l-7.49 41.9zm-198.42 -25.26l-2.47 19.44c-1.3,10.2 -3.55,18.42 -6.8,24.61 -3.21,6.24 -8.12,11.24 -14.6,15.07 -6.52,3.77 -13.6,5.99 -21.29,6.54l1.99 -15.64c5.73,-2.34 9.27,-5.98 10.59,-10.93l-9.06 -1.15 5.41 -42.54 36.23 4.6zm-58.01 34.94l-47.46 -3.6 7.55 -99.28 -37.07 97.03 -49.39 -3.75 16.6 -218.24 47.45 3.6 -7.48 98.5 39.21 -96.08 47.18 3.58 -16.59 218.24zm-269.15 -231.97l56.98 1.44 -2.06 92.39c10.57,-0.01 16.16,-5.81 16.82,-17.42l2.14 -42.67c0.77,-15.71 4.08,-26.28 9.93,-31.62l52.56 1.33c-5.21,5.17 -7.98,16.13 -8.3,32.77l-0.67 37.54c-0.39,22.68 -13.49,35.31 -39.34,37.8 25.69,3.78 38.13,17.24 37.36,40.29l-1.16 34.8c-0.51,16.59 1.68,28.46 6.58,35.59l-52.56 -1.33c-5.95,-5.64 -8.72,-16.36 -8.32,-32.13l1.08 -42.64c0.13,-5.44 -1.37,-9.82 -4.51,-13.17 -3.19,-3.36 -7.34,-5.17 -12.46,-5.39l-2.62 92.66 -56.98 -1.44 5.53 -218.8zm-28.59 219.79l-47.45 3.61 -7.55 -99.28 -21.97 101.53 -49.39 3.75 -16.59 -218.24 47.45 -3.61 7.49 98.5 24.24 -100.91 47.18 -3.58 16.59 218.23zm-166.93 -206.67l5.51 43.37 -33.21 4.22 22.08 173.75 -56.55 7.18 -22.07 -173.75 -33.49 4.26 -5.51 -43.37 123.24 -15.66zm-237.65 36.68l93.43 -16.68 7.68 43.04 -37.31 6.66 7.34 41.13 34.87 -6.23 7.3 40.86 -34.87 6.23 8.47 47.4 41.13 -7.35 7.68 43.04 -97.24 17.36 -38.48 -215.46zm-44.28 8.13l59.78 210.54 -54.83 15.57 -25.09 -88.37 -15.97 4.54 25.09 88.37 -54.83 15.57 -59.79 -210.55 54.84 -15.57 21.38 75.33 15.98 -4.54 -21.39 -75.32 54.83 -15.57zm-245.37 74.25l89.9 -30.42 14.01 41.41 -35.91 12.15 13.39 39.58 33.56 -11.35 13.3 39.31 -33.55 11.36 15.43 45.6 39.58 -13.39 14.01 41.41 -93.57 31.66 -70.15 -207.32zm-8.59 49.16l-38.87 15.32 64.24 162.94 -53.02 20.91 -80.28 -203.61 91.89 -36.23 16.04 40.67zm-184.73 27.73l19.93 38.92 -29.81 15.26 79.85 155.89 -50.73 25.98 -79.85 -155.89 -30.04 15.39 -19.93 -38.91 110.58 -56.64zm-211.61 113.38l82.27 -47.3 21.8 37.9 -32.87 18.89 20.83 36.22 30.7 -17.65 20.69 35.98 -30.7 17.65 24 41.74 36.22 -20.83 21.79 37.9 -85.63 49.24 -109.1 -189.74zm-20.3 11.96l23.6 36.8 -28.19 18.07 94.52 147.45 -47.98 30.76 -94.53 -147.45 -28.42 18.22 -23.59 -36.81 104.59 -67.04zm1.6 257.62l-37.42 29.41 -61.52 -78.29 38.25 96.58 -38.95 30.61 -135.23 -172.09 37.42 -29.41 61.03 77.67 -36.02 -97.33 37.21 -29.24 135.23 172.09zm-196.88 -2.88l-43.08 37.32 -24.88 -28.72c-7.25,-8.36 -12.2,-13.16 -14.92,-14.47 -2.69,-1.27 -5.61,-0.57 -8.71,2.12 -3.49,3.02 -4.63,6.21 -3.4,9.53 1.26,3.36 5.49,9.22 12.73,17.59l66.49 76.75c6.97,8.05 11.99,12.86 15.08,14.52 3.05,1.63 6.23,1.01 9.51,-1.83 3.17,-2.75 4.21,-5.78 3.04,-9.1 -1.14,-3.29 -5.66,-9.5 -13.54,-18.6l-18.03 -20.81 43.08 -37.32 5.59 6.45c14.85,17.15 24.17,30.37 27.96,39.6 3.81,9.27 3.88,20.19 0.3,32.75 -3.62,12.59 -11.47,24.09 -23.6,34.6 -12.58,10.9 -24.93,17.63 -37.08,20.16 -12.11,2.5 -23.01,0.9 -32.67,-4.89 -9.65,-5.79 -21.49,-16.77 -35.53,-32.98l-41.85 -48.32c-10.32,-11.92 -17.63,-21.2 -21.99,-27.86 -4.33,-6.68 -6.91,-14.52 -7.6,-23.56 -0.73,-9.01 1.11,-18.23 5.54,-27.62 4.43,-9.39 11.34,-18.12 20.68,-26.21 12.65,-10.96 25.22,-17.58 37.74,-19.82 12.45,-2.24 23.14,-0.82 32.1,4.23 8.92,5.09 20.05,15.33 33.43,30.77l13.61 15.72zm-209.48 112.33l40.35 38.47c1.18,-1.11 2.17,-2.08 2.96,-2.91 3.6,-3.77 5.15,-7.26 4.68,-10.52 -0.47,-3.18 -3.64,-7.61 -9.52,-13.21l-13.04 -12.44c-5.42,-5.15 -9.75,-7.69 -13.01,-7.55 -3.22,0.11 -7.36,2.85 -12.42,8.16zm-66.37 15.48l39.55 -41.49c10.7,-11.22 19.77,-19 27.3,-23.36 7.49,-4.32 14.36,-6.44 20.56,-6.32 6.24,0.14 12.22,1.95 17.97,5.34 5.76,3.45 13.58,9.89 23.49,19.33l13.79 13.15c10.08,9.61 16.47,17.68 19.07,24.17 2.66,6.49 2.58,13.74 -0.23,21.63 -2.85,7.93 -8.55,16.38 -17.11,25.36l-10.53 11.05 63.88 60.91 -39.33 41.25 -158.41 -151.02zm-83.67 93.37l62.14 -71.74 33.04 28.63 -24.81 28.65 31.58 27.35 23.19 -26.77 31.37 27.18 -23.19 26.77 36.39 31.52 27.36 -31.58 33.04 28.62 -64.68 74.67 -165.43 -143.3zm27.73 156.87l48.3 37.96c4.62,-6.34 6.75,-11.06 6.31,-14.16 -0.44,-3.1 -4.17,-7.38 -11.13,-12.85l-16.1 -12.65c-7.4,-5.82 -12.45,-8.56 -15.25,-8.29 -2.75,0.3 -6.78,3.64 -12.13,9.99zm-65.05 -51.12l38.29 30.1c1.41,-1.95 2.51,-3.43 3.34,-4.48 3.36,-4.28 4.44,-7.89 3.21,-10.73 -1.24,-2.9 -6.98,-8.36 -17.17,-16.36 -5.4,-4.25 -9.54,-6.74 -12.49,-7.48 -2.91,-0.7 -5.28,-0.51 -7.09,0.59 -1.77,1.13 -4.49,3.92 -8.09,8.36zm-64.59 21.74l34.99 -44.53c11.05,-14.06 20.52,-23.87 28.43,-29.38 7.88,-5.55 16.92,-7.88 27.1,-7.1 10.21,0.81 22.72,7.07 37.59,18.75 10.04,7.89 15.81,14.95 17.29,21.21 1.51,6.29 -0.39,14.89 -5.54,25.86 10.5,-8.52 19.91,-12.51 28.22,-11.96 8.35,0.57 18.11,5.25 29.35,14.08l15.95 12.54c11.64,9.15 19.18,17.24 22.72,24.31 3.5,7.03 4.04,14.26 1.55,21.68 -2.49,7.43 -10.83,20.12 -24.96,38.11l-40.61 51.67 -172.08 -135.24zm158.12 153.6l-25.68 40.06 -83.82 -53.73 67.84 78.66 -26.73 41.69 -184.26 -118.12 25.69 -40.06 83.16 53.31 -65.99 -80.1 25.53 -39.83 184.26 118.12zm-270.36 17.07l189.73 109.1 -28.41 49.41 -79.64 -45.79 -8.27 14.39 79.64 45.8 -28.42 49.41 -189.73 -109.1 28.41 -49.42 67.88 39.04 8.28 -14.39 -67.89 -39.04 28.42 -49.41zm-80.84 142.03l125.67 73.87c19.83,11.64 33.42,20.67 40.68,26.99 7.25,6.36 11.03,14 11.36,22.9 0.31,8.95 -3.32,21.78 -10.86,38.47l-13.68 30.25 -25.71 -11.63 1.4 -3.11c3.1,-6.85 4.47,-11.34 4.06,-13.45 -0.37,-2.09 -1.67,-3.69 -3.98,-4.73 -0.17,-0.08 -6.26,-1.62 -18.25,-4.66l-162.42 -40.48 20.38 -45.09 131.71 39.91 -120.82 -63.99 20.46 -45.25zm-140.82 205.4l8.43 -21.36c11.25,5.03 19.13,11.95 23.69,20.89 4.55,8.93 4.66,18.84 0.33,29.82 -4.36,11.07 -11.26,18.26 -20.7,21.58 -9.39,3.33 -19.86,2.98 -31.43,-0.99l8.42 -21.37c11.9,3.51 19.52,1.05 22.86,-7.44 3.37,-8.54 -0.49,-15.61 -11.6,-21.13zm265.71 53.31l-17.46 44.27 -92.62 -36.52 81.76 64.07 -18.17 46.07 -203.61 -80.28 17.46 -44.27 91.9 36.23 -80.23 -65.83 17.36 -44.02 203.61 80.28zm-51.63 138.16l-15.57 54.83 -210.55 -59.78 15.57 -54.83 210.55 59.78zm-92.02 112.51l-30.43 -8.64c-8.87,-2.52 -14.49,-3.15 -16.91,-1.92 -2.41,1.23 -4.91,5.99 -7.54,14.25l69.2 19.65c1.98,-6.96 2.43,-11.92 1.35,-14.86 -1.07,-2.99 -6.31,-5.82 -15.67,-8.48zm21.92 -53.03c15.65,4.45 26.34,9.69 32.02,15.71 5.73,5.99 8.22,13.41 7.61,22.16 -0.63,8.78 -3.48,22.21 -8.62,40.31l-17.98 63.3 -210.54 -59.78 15.57 -54.84 72.13 20.49 2.41 -8.48c4.79,-16.85 9.4,-29.4 13.85,-37.48 4.46,-8.09 10.69,-13.32 18.74,-15.68 8.01,-2.37 19.31,-1.46 33.86,2.67l40.95 11.62zm-203.38 126.5l215.46 38.48 -10.02 56.11 -90.44 -16.15 -2.92 16.35 90.44 16.15 -10.02 56.11 -215.46 -38.48 10.02 -56.11 77.08 13.76 2.92 -16.34 -77.08 -13.77 10.02 -56.11zm-29.59 173.27l218.24 16.59 -4.32 56.83 -91.6 -6.96 -1.26 16.55 91.6 6.97 -4.32 56.83 -218.24 -16.59 4.32 -56.83 78.08 5.93 1.26 -16.55 -78.08 -5.94 4.32 -56.83zm-14.6 256.14l2.4 -94.87 43.7 1.1 -0.96 37.9 41.77 1.05 0.9 -35.4 41.49 1.05 -0.9 35.41 48.14 1.21 1.05 -41.76 43.71 1.1 -2.5 98.75 -218.8 -5.54zm121.68 103.8l61.4 -1.56c-0.47,-7.83 -1.84,-12.82 -4.16,-14.93 -2.31,-2.11 -7.91,-3.03 -16.76,-2.81l-20.47 0.52c-9.41,0.24 -15.05,1.35 -17.03,3.34 -1.94,1.98 -2.91,7.13 -2.98,15.44zm-82.71 2.09l48.69 -1.23c-0.16,-2.4 -0.25,-4.24 -0.29,-5.58 -0.13,-5.44 -1.6,-8.91 -4.36,-10.32 -2.81,-1.44 -10.71,-1.98 -23.66,-1.66 -6.87,0.18 -11.65,0.9 -14.39,2.21 -2.68,1.31 -4.4,2.97 -5.08,4.97 -0.64,2 -0.96,5.89 -0.91,11.61zm-35.9 57.92l-1.43 -56.61c-0.45,-17.89 0.59,-31.47 3.16,-40.77 2.54,-9.29 8.02,-16.85 16.36,-22.74 8.39,-5.88 22.01,-9.04 40.91,-9.52 12.77,-0.32 21.71,1.43 26.84,5.32 5.18,3.88 9.2,11.71 12.22,23.44 2.66,-13.26 7.37,-22.32 14.12,-27.2 6.8,-4.88 17.3,-7.5 31.59,-7.86l20.28 -0.51c14.8,-0.38 25.77,1.05 33,4.24 7.18,3.18 12.21,8.41 15.02,15.72 2.82,7.31 4.49,22.4 5.07,45.26l1.66 65.7 -218.8 5.53zm1.14 35.26l43.38 -5.52 4.21 33.22 173.76 -22.08 7.18 56.54 -173.75 22.08 4.26 33.49 -43.37 5.51 -15.67 -123.24zm111.13 128.19l10.02 56.11 -37.4 6.68c-10.9,1.95 -17.56,3.75 -20.07,5.42 -2.47,1.65 -3.36,4.53 -2.64,8.57 0.82,4.54 2.97,7.16 6.45,7.8 3.54,0.63 10.73,0 21.63,-1.95l99.96 -17.85c10.49,-1.87 17.19,-3.72 20.19,-5.52 2.96,-1.8 4.06,-4.85 3.29,-9.12 -0.73,-4.13 -2.81,-6.57 -6.26,-7.26 -3.41,-0.71 -11.06,0 -22.9,2.12l-27.11 4.84 -10.02 -56.11 8.4 -1.5c22.33,-3.99 38.47,-5.23 48.33,-3.76 9.91,1.46 19.33,6.99 28.29,16.5 8.97,9.54 14.83,22.18 17.65,37.97 2.93,16.39 2.4,30.45 -1.65,42.18 -4.05,11.68 -11,20.23 -20.91,25.56 -9.92,5.33 -25.41,9.88 -46.52,13.65l-62.92 11.24c-15.53,2.77 -27.25,4.31 -35.2,4.65 -7.96,0.29 -16.01,-1.5 -24.13,-5.53 -8.11,-3.99 -15.09,-10.28 -20.9,-18.9 -5.79,-8.61 -9.76,-19.01 -11.93,-31.17 -2.95,-16.48 -2.2,-30.67 2.28,-42.57 4.44,-11.85 11.13,-20.31 20.05,-25.41 8.94,-5.07 23.44,-9.39 43.55,-12.98l20.47 -3.66zm-13.65 229.68l54.33 -12.53c-0.27,-1.6 -0.54,-2.96 -0.8,-4.08 -1.17,-5.08 -3.24,-8.29 -6.21,-9.69 -2.92,-1.36 -8.36,-1.15 -16.27,0.68l-17.57 4.05c-7.28,1.68 -11.78,3.91 -13.46,6.71 -1.68,2.75 -1.67,7.72 -0.02,14.86zm-23.58 63.94l-12.89 -55.85c-3.48,-15.1 -4.99,-26.96 -4.49,-35.64 0.52,-8.64 2.52,-15.54 6.03,-20.65 3.54,-5.13 8.35,-9.13 14.35,-12.07 6.05,-2.91 15.72,-5.91 29.06,-8.98l18.56 -4.29c13.58,-3.13 23.82,-4.03 30.68,-2.63 6.89,1.35 12.89,5.4 17.94,12.09 5.05,6.74 8.98,16.15 11.77,28.24l3.43 14.88 86.01 -19.85 12.81 55.53 -213.26 49.22zm161.18 45.04c-22.63,10.54 -50.81,23.09 -84.56,37.72 41.65,-8.15 71.87,-14.63 90.75,-19.41l-6.19 -18.31zm-143.09 16.53l196.89 -100.99 18.64 55.09 -36.23 15.52 6.57 19.43 38.21 -9.66 18.88 55.79 -216.58 42.8 -26.38 -77.98zm226.46 120.43l-120.73 47.6 6.19 15.7 1.51 -0.59c38.99,-15.38 80.38,-26.84 124.19,-34.4l-11.16 -28.31zm52.57 -94.49l14.41 36.55 -35.01 13.81 33.7 85.46 35 -13.81 14.42 36.55 -77.48 30.55 -4.27 -10.8c-18.94,0.87 -42.72,4.79 -71.36,11.87 -28.63,7.08 -59.09,16.95 -91.31,29.66l-6.18 2.44 -46.28 -117.38 160.88 -63.44 -4.26 -10.81 77.74 -30.65zm-164.64 275.12l136.09 -52.24c21.47,-8.26 36.99,-13.25 46.46,-14.99 9.49,-1.71 17.82,0.09 24.99,5.38 7.19,5.34 14.96,16.17 23.31,32.47l15.14 29.55 -25.12 12.87 -1.56 -3.04c-3.42,-6.69 -6.08,-10.56 -7.98,-11.55 -1.87,-1.02 -3.94,-1 -6.19,0.16 -0.17,0.08 -5.16,3.88 -15.01,11.36l-132.89 101.8 -22.56 -44.04 113.3 -78.14 -125.34 54.62 -22.64 -44.21zm148.28 80.15l28.41 49.41 -32.94 18.94c-9.59,5.52 -15.25,9.47 -17.05,11.89 -1.76,2.39 -1.63,5.4 0.42,8.96 2.3,4 5.2,5.73 8.71,5.15 3.53,-0.6 10.09,-3.63 19.69,-9.14l88.03 -50.62c9.23,-5.31 14.91,-9.32 17.13,-12.03 2.18,-2.69 2.17,-5.93 0.01,-9.69 -2.09,-3.64 -4.87,-5.23 -8.35,-4.72 -3.44,0.49 -10.4,3.75 -20.84,9.75l-23.86 13.72 -28.42 -49.41 7.4 -4.26c19.67,-11.3 34.42,-17.93 44.21,-19.88 9.82,-1.98 20.56,0.04 32.2,5.95 11.67,5.96 21.46,15.86 29.46,29.77 8.3,14.43 12.55,27.84 12.71,40.25 0.15,12.36 -3.5,22.76 -11.03,31.13 -7.53,8.37 -20.57,17.89 -39.16,28.58l-55.41 31.86c-13.67,7.86 -24.18,13.27 -31.55,16.28 -7.38,2.97 -15.57,4.01 -24.57,2.96 -8.99,-1.01 -17.68,-4.57 -26.06,-10.71 -8.37,-6.14 -15.62,-14.59 -21.78,-25.3 -8.34,-14.51 -12.44,-28.11 -12.25,-40.83 0.17,-12.65 3.6,-22.87 10.27,-30.7 6.7,-7.78 18.88,-16.76 36.59,-26.94l18.03 -10.37zm84.67 212.8c-8.27,5.88 -13.25,10.1 -14.94,12.66 -1.65,2.53 -1.5,5.2 0.47,7.98 1.69,2.37 3.91,3.51 6.7,3.45 2.72,-0.07 8.7,-3.36 17.87,-9.88l83.24 -59.2c10.34,-7.35 16.43,-12.31 18.25,-14.84 1.86,-2.57 1.7,-5.34 -0.44,-8.34 -2.19,-3.09 -5,-4.09 -8.4,-2.98 -3.39,1.12 -10.33,5.43 -20.82,12.89l-81.93 58.26zm25.55 -88.11c17.93,-12.75 30.89,-21.35 38.95,-25.77 8.07,-4.5 16.74,-6.7 26.06,-6.65 9.31,0.05 18.33,2.7 27,7.9 8.69,5.2 16.59,12.82 23.73,22.86 6.78,9.54 11.27,19.19 13.55,29 2.28,9.82 1.98,19.25 -1,28.28 -2.95,9.05 -7.8,16.64 -14.49,22.75 -6.75,6.1 -19.29,15.69 -37.62,28.74l-30.52 21.7c-17.93,12.75 -30.89,21.34 -38.95,25.76 -8.07,4.5 -16.74,6.7 -26.05,6.65 -9.32,-0.05 -18.33,-2.7 -27.01,-7.9 -8.68,-5.2 -16.59,-12.82 -23.72,-22.85 -6.79,-9.55 -11.28,-19.21 -13.56,-29.02 -2.28,-9.8 -1.97,-19.25 1,-28.27 2.96,-9.06 7.81,-16.63 14.5,-22.75 6.75,-6.1 19.28,-15.69 37.62,-28.73l30.51 -21.7zm20.06 174l25.81 32.85 137.72 -108.23 35.22 44.82 -172.09 135.24 -61.04 -77.67 34.38 -27.01zm84.53 243.45l-15.85 -16.63c9.29,-8.09 18.89,-12.33 28.91,-12.72 10.02,-0.37 19.06,3.69 27.21,12.24 8.2,8.61 11.83,17.89 10.88,27.85 -0.93,9.92 -5.65,19.27 -14.11,28.1l-15.85 -16.62c8.18,-9.32 9.15,-17.26 2.85,-23.87 -6.33,-6.64 -14.37,-6.12 -24.04,1.65zm160.03 -218.71l32.84 34.45 -72.07 68.7 92.5 -47.27 34.17 35.84 -158.41 151.03 -32.84 -34.45 71.49 -68.16 -93.45 45.13 -32.65 -34.24 158.42 -151.03zm103.98 107.66l34.44 32.84 -68.7 72.06 90.13 -51.63 35.85 34.18 -151.03 158.41 -34.44 -32.84 68.16 -71.5 -91.19 49.54 -34.25 -32.65 151.03 -158.41zm73.12 351.38l-44.82 -35.21 56.88 -72.84c-8.47,-6.31 -16.42,-4.99 -23.9,3.92l-27.22 32.92c-10,12.13 -18.98,18.63 -26.87,19.41l-41.33 -32.48c7.27,-1.04 16.03,-8.16 26.25,-21.31l22.97 -29.69c13.88,-17.95 31.93,-20.25 54.14,-6.78 -18.33,-18.4 -20.26,-36.63 -5.86,-54.64l21.73 -27.2c10.33,-13 15.66,-23.82 16.01,-32.47l41.33 32.49c1.4,8.07 -2.79,18.33 -12.54,30.73l-26.35 33.54c-3.37,4.28 -4.78,8.68 -4.26,13.25 0.55,4.6 2.79,8.53 6.76,11.77l57.5 -72.71 44.81 35.22 -135.23 172.08zm80.28 -59.63l46.45 33.03 -22.02 30.97c-6.42,9.02 -9.91,14.97 -10.54,17.92 -0.6,2.91 0.78,5.59 4.13,7.97 3.75,2.67 7.12,3.03 10.06,1.04 2.97,-2.02 7.66,-7.51 14.07,-16.53l58.85 -82.75c6.18,-8.69 9.66,-14.7 10.54,-18.09 0.86,-3.35 -0.5,-6.3 -4.03,-8.81 -3.42,-2.43 -6.61,-2.72 -9.56,-0.8 -2.92,1.89 -7.89,7.75 -14.86,17.56l-15.96 22.44 -46.45 -33.04 4.94 -6.95c13.15,-18.49 23.8,-30.67 31.87,-36.53 8.1,-5.9 18.7,-8.55 31.74,-8.04 13.09,0.54 26.12,5.45 39.2,14.75 13.57,9.64 23.03,20.05 28.37,31.25 5.29,11.18 6.31,22.15 2.97,32.9 -3.35,10.75 -11.22,24.85 -23.65,42.33l-37.04 52.08c-9.14,12.86 -16.43,22.16 -21.86,27.97 -5.47,5.79 -12.48,10.14 -21.1,12.95 -8.58,2.84 -17.97,3.23 -28.15,1.15 -10.17,-2.08 -20.28,-6.73 -30.35,-13.89 -13.64,-9.7 -23.05,-20.35 -28.19,-31.98 -5.13,-11.57 -6.27,-22.29 -3.48,-32.19 2.83,-9.87 10.15,-23.11 21.99,-39.76l12.06 -16.95zm213.76 109.66l30.62 -53.25c-6.93,-3.67 -11.91,-5.1 -14.92,-4.22 -3,0.88 -6.7,5.19 -11.12,12.87l-10.2 17.74c-4.69,8.16 -6.68,13.56 -6.01,16.29 0.69,2.68 4.58,6.19 11.63,10.57zm-41.24 71.72l24.28 -42.22c-2.13,-1.11 -3.75,-1.99 -4.91,-2.66 -4.72,-2.71 -8.45,-3.26 -11.08,-1.64 -2.7,1.64 -7.27,8.11 -13.73,19.35 -3.42,5.95 -5.3,10.41 -5.6,13.43 -0.27,2.98 0.25,5.3 1.6,6.93 1.38,1.59 4.53,3.88 9.44,6.81zm30.79 60.79l-49.09 -28.22c-15.51,-8.92 -26.57,-16.88 -33.17,-23.92 -6.62,-6.99 -10.22,-15.61 -10.91,-25.79 -0.67,-10.23 3.72,-23.5 13.15,-39.9 6.37,-11.07 12.52,-17.8 18.5,-20.16 6.01,-2.39 14.79,-1.76 26.39,1.77 -9.95,-9.17 -15.24,-17.91 -15.89,-26.21 -0.63,-8.35 2.59,-18.67 9.72,-31.07l10.11 -17.59c7.38,-12.83 14.31,-21.45 20.79,-25.97 6.46,-4.48 13.53,-6.05 21.24,-4.65 7.71,1.4 21.47,7.82 41.29,19.22l56.97 32.76 -109.1 189.73zm104.95 -9.63c-4.62,9.03 -7.1,15.07 -7.41,18.12 -0.3,3.01 1.06,5.31 4.1,6.86 2.58,1.33 5.08,1.31 7.53,-0.03 2.38,-1.31 6.16,-6.99 11.29,-17l46.57 -90.92c5.78,-11.29 8.9,-18.5 9.35,-21.58 0.46,-3.14 -0.96,-5.53 -4.24,-7.2 -3.37,-1.73 -6.32,-1.32 -8.82,1.23 -2.5,2.55 -6.67,9.59 -12.54,21.04l-45.83 89.48zm-17.96 -89.97c10.03,-19.58 17.57,-33.18 22.68,-40.83 5.08,-7.7 11.76,-13.66 20.05,-17.91 8.29,-4.26 17.51,-6.06 27.61,-5.45 10.1,0.62 20.63,3.73 31.59,9.34 10.42,5.34 18.85,11.84 25.4,19.49 6.55,7.65 10.63,16.17 12.15,25.55 1.56,9.4 0.75,18.36 -2.36,26.87 -3.18,8.53 -9.88,22.82 -20.14,42.85l-17.07 33.33c-10.02,19.58 -17.56,33.18 -22.67,40.82 -5.09,7.71 -11.76,13.67 -20.05,17.92 -8.29,4.25 -17.51,6.06 -27.61,5.44 -10.1,-0.61 -20.63,-3.73 -31.59,-9.34 -10.43,-5.34 -18.86,-11.84 -25.41,-19.49 -6.54,-7.65 -10.63,-16.17 -12.15,-25.55 -1.55,-9.4 -0.74,-18.36 2.37,-26.87 3.18,-8.53 9.87,-22.81 20.13,-42.84l17.07 -33.33zm88.98 186.39l16.04 -40.67 31.15 12.28 64.24 -162.94 53.03 20.9 -64.25 162.95 31.4 12.38 -16.03 40.67 -115.58 -45.57zm230.27 -63.66c-5.37,24.37 -12.51,54.38 -21.38,90.09 18.81,-38.04 32.02,-65.99 39.69,-83.9l-18.31 -6.19zm-73.75 123.73l39.31 -217.76 55.08 18.64 -9.66 38.21 19.43 6.58 15.52 -36.23 55.79 18.87 -97.49 198.07 -77.98 -26.38zm201.48 22.19l12.54 -54.33c-1.55,-0.45 -2.89,-0.81 -4.01,-1.07 -5.08,-1.17 -8.88,-0.72 -11.43,1.34 -2.5,2.02 -4.7,7 -6.52,14.92l-4.06 17.56c-1.68,7.29 -1.65,12.31 0.13,15.04 1.74,2.72 6.21,4.89 13.35,6.54zm47.14 49.21l-55.85 -12.89c-15.1,-3.48 -26.43,-7.33 -34.01,-11.59 -7.54,-4.24 -12.86,-9.07 -15.92,-14.46 -3.05,-5.44 -4.54,-11.51 -4.56,-18.19 0.04,-6.71 1.59,-16.72 4.67,-30.06l4.28 -18.56c3.13,-13.57 6.82,-23.18 11.08,-28.73 4.23,-5.6 10.5,-9.22 18.73,-10.82 8.27,-1.59 18.45,-0.99 30.54,1.79l14.87 3.44 19.85 -86.01 55.54 12.82 -49.22 213.26zm106.48 -121.6c-1.68,24.91 -4.27,55.65 -7.71,92.27 12.93,-40.41 21.82,-70.02 26.74,-88.87l-19.03 -3.4zm-54.49 133.34l6.43 -221.18 57.24 10.22 -3.86 39.22 20.2 3.61 9.95 -38.13 57.97 10.35 -66.9 210.38 -81.03 -14.47zm139.75 -72.93l56.55 7.19 -4.79 37.69c-1.4,10.99 -1.67,17.88 -0.83,20.77 0.85,2.85 3.33,4.56 7.4,5.08 4.57,0.58 7.71,-0.69 9.36,-3.83 1.66,-3.18 3.21,-10.24 4.61,-21.22l12.79 -100.74c1.35,-10.56 1.58,-17.51 0.76,-20.92 -0.83,-3.35 -3.42,-5.31 -7.72,-5.86 -4.16,-0.52 -7.11,0.73 -8.8,3.81 -1.69,3.04 -3.3,10.56 -4.81,22.5l-3.48 27.31 -56.54 -7.19 1.08 -8.46c2.86,-22.51 6.49,-38.27 10.83,-47.25 4.36,-9.02 12.45,-16.36 24.19,-22.07 11.79,-5.71 25.6,-7.54 41.52,-5.52 16.51,2.1 29.77,6.81 39.76,14.17 9.94,7.35 16.03,16.54 18.15,27.59 2.13,11.06 1.85,27.2 -0.85,48.47l-8.06 63.41c-1.99,15.65 -4.02,27.29 -6.07,34.98 -2.09,7.68 -6.21,14.83 -12.48,21.38 -6.23,6.55 -14.32,11.33 -24.27,14.3 -9.95,2.97 -21.06,3.65 -33.32,2.09 -16.61,-2.11 -29.92,-7.06 -39.94,-14.89 -9.99,-7.77 -16.06,-16.68 -18.27,-26.72 -2.17,-10.04 -1.96,-25.17 0.61,-45.43l2.62 -20.64zm411.85 -801.01c-18.74,-16.07 -39.97,-23.96 -57.43,-37.6 -33.32,-26.02 -38.02,-68.27 -35.65,-107.69 0.11,-1.91 0.37,-2.77 1.44,-0.1 8.84,21.85 25.53,36.61 45.17,48.78 44,27.27 46.85,48.32 46.47,96.61zm0 75.18c-18.74,-16.07 -39.97,-23.95 -57.43,-37.59 -33.32,-26.02 -38.02,-68.27 -35.65,-107.69 0.11,-1.91 0.36,-2.77 1.44,-0.1 8.84,21.85 25.53,36.61 45.17,48.78 44,27.27 46.85,48.32 46.47,96.6zm0 75.19c-18.74,-16.07 -39.97,-23.96 -57.43,-37.6 -33.32,-26.01 -38.02,-68.27 -35.65,-107.69 0.11,-1.91 0.37,-2.76 1.44,-0.09 8.84,21.84 25.53,36.6 45.17,48.78 43.99,27.27 46.85,48.31 46.47,96.6zm-193.1 -150.37c18.74,-16.07 39.98,-23.96 57.44,-37.6 33.32,-26.02 38.02,-68.27 35.65,-107.69 -0.11,-1.91 -0.37,-2.77 -1.45,-0.1 -8.84,21.85 -25.53,36.61 -45.17,48.78 -43.99,27.27 -46.85,48.32 -46.47,96.61zm0 75.18c18.74,-16.07 39.98,-23.95 57.44,-37.59 33.32,-26.02 38.02,-68.27 35.65,-107.69 -0.11,-1.91 -0.37,-2.77 -1.45,-0.1 -8.84,21.85 -25.52,36.61 -45.17,48.78 -43.99,27.27 -46.85,48.32 -46.47,96.6zm0 75.19c18.74,-16.07 39.98,-23.96 57.44,-37.6 33.32,-26.01 38.02,-68.27 35.65,-107.69 -0.11,-1.91 -0.37,-2.76 -1.45,-0.09 -8.84,21.84 -25.52,36.6 -45.17,48.78 -43.99,27.27 -46.85,48.31 -46.47,96.6zm0 -225.56c18.74,-16.07 39.98,-23.96 57.44,-37.59 33.31,-26.03 38.02,-68.27 35.65,-107.69 -0.11,-1.91 -0.37,-2.77 -1.45,-0.1 -8.84,21.84 -25.53,36.6 -45.17,48.78 -43.99,27.26 -46.85,48.31 -46.47,96.6zm0 -75.18c18.74,-16.07 39.98,-23.96 57.44,-37.6 17.44,-13.63 31.15,-30.65 34.87,-69.69 0.35,-3.61 1.52,-25.62 0.78,-38 -0.11,-1.91 -0.37,-2.77 -1.45,-0.1 -8.84,21.85 -25.53,36.61 -45.17,48.78 -43.99,27.27 -46.85,48.32 -46.47,96.61zm193.1 75.18c-18.74,-16.07 -39.97,-23.96 -57.43,-37.59 -33.32,-26.03 -38.02,-68.27 -35.65,-107.69 0.11,-1.91 0.37,-2.77 1.44,-0.1 8.84,21.84 25.53,36.6 45.17,48.78 44,27.26 46.85,48.31 46.47,96.6zm0 -75.18c-18.74,-16.07 -39.97,-23.96 -57.43,-37.6 -17.45,-13.63 -31.16,-30.65 -34.88,-69.69 -0.34,-3.61 -1.52,-25.62 -0.77,-38 0.11,-1.91 0.37,-2.77 1.44,-0.1 8.84,21.85 25.53,36.61 45.17,48.78 44,27.27 46.85,48.32 46.47,96.61zm-1195.29 -1816.05c23.83,-6.42 42.34,-19.47 63.46,-26.2 40.29,-12.77 77.85,7.2 109.01,31.43 1.52,1.14 2.06,1.84 -0.73,1.2 -23.03,-5.01 -44.62,0.41 -65.78,9.76 -47.34,20.9 -66.32,11.39 -105.96,-16.19zm-62.05 -42.46c23.83,-6.42 42.32,-19.49 63.47,-26.19 40.29,-12.81 77.82,7.17 108.98,31.4 1.53,1.16 2.1,1.84 -0.73,1.27 -23.01,-5.08 -44.64,0.34 -65.76,9.7 -47.35,20.9 -66.32,11.39 -105.96,-16.18zm-62.04 -42.49c23.84,-6.4 42.35,-19.45 63.44,-26.15 40.3,-12.83 77.82,7.16 109.01,31.39 1.53,1.16 2.08,1.85 -0.73,1.25 -23.04,-5.06 -44.63,0.39 -65.76,9.71 -47.34,20.9 -66.32,11.39 -105.96,-16.2zm233.14 -74.43c2.68,24.53 -2.84,46.53 -1.41,68.62 2.66,42.23 34.88,69.94 68.74,90.24 1.6,0.98 2.5,1.27 0.9,-1.14 -13.05,-19.65 -15.79,-41.72 -14.73,-64.83 2.31,-51.71 -13.47,-65.92 -53.5,-92.89zm-62.05 -42.5c2.66,24.58 -2.8,46.55 -1.41,68.68 2.68,42.18 34.88,69.93 68.73,90.21 1.61,1.01 2.5,1.28 0.92,-1.11 -13.08,-19.65 -15.84,-41.76 -14.76,-64.82 2.36,-51.71 -13.42,-65.96 -53.48,-92.96zm-62.07 -42.42c2.69,24.54 -2.78,46.5 -1.4,68.65 2.66,42.17 34.88,69.92 68.75,90.22 1.65,1.01 2.49,1.27 0.92,-1.14 -13.06,-19.64 -15.83,-41.73 -14.77,-64.83 2.36,-51.72 -13.44,-65.95 -53.5,-92.9zm186.18 127.38c2.67,24.55 -2.82,46.52 -1.43,68.63 2.66,42.2 34.87,69.93 68.77,90.24 1.6,0.97 2.47,1.26 0.87,-1.15 -13.03,-19.62 -15.78,-41.74 -14.75,-64.81 2.36,-51.71 -13.41,-65.95 -53.46,-92.91zm62.05 42.45c2.67,24.56 -2.83,46.54 -1.44,68.62 1.41,22.11 7.72,43.05 37.84,68.16 2.78,2.3 20.3,15.72 30.91,22.1 1.64,1 2.5,1.25 0.88,-1.15 -13.01,-19.61 -15.77,-41.73 -14.73,-64.83 2.38,-51.71 -13.4,-65.95 -53.46,-92.9zm-171.12 116.91c23.87,-6.39 42.36,-19.46 63.47,-26.17 40.27,-12.81 77.81,7.17 109,31.39 1.51,1.15 2.1,1.86 -0.72,1.24 -23.03,-5.02 -44.64,0.41 -65.79,9.74 -47.33,20.88 -66.32,11.4 -105.96,-16.2zm62.07 42.47c23.82,-6.4 42.32,-19.48 63.46,-26.18 21.1,-6.7 42.87,-8.41 77.18,10.59 3.19,1.73 22.02,13.2 31.81,20.8 1.52,1.18 2.07,1.86 -0.74,1.22 -23.03,-5 -44.63,0.43 -65.77,9.77 -47.33,20.89 -66.34,11.38 -105.94,-16.2zm2073.12 -84.91c-23.83,-6.42 -42.34,-19.47 -63.46,-26.2 -40.29,-12.77 -77.84,7.2 -109,31.43 -1.53,1.14 -2.07,1.84 0.72,1.2 23.03,-5.01 44.62,0.41 65.78,9.76 47.35,20.9 66.33,11.39 105.96,-16.19zm62.06 -42.46c-23.84,-6.42 -42.33,-19.49 -63.48,-26.19 -40.29,-12.81 -77.82,7.17 -108.98,31.4 -1.53,1.16 -2.1,1.84 0.73,1.27 23.01,-5.08 44.64,0.34 65.76,9.7 47.35,20.9 66.32,11.39 105.97,-16.18zm62.03 -42.49c-23.84,-6.4 -42.34,-19.45 -63.44,-26.15 -40.3,-12.83 -77.81,7.16 -109.01,31.39 -1.52,1.16 -2.08,1.85 0.74,1.25 23.03,-5.06 44.62,0.39 65.76,9.71 47.33,20.9 66.32,11.39 105.95,-16.2zm-233.13 -74.43c-2.68,24.53 2.84,46.53 1.4,68.62 -2.66,42.23 -34.88,69.94 -68.73,90.24 -1.61,0.98 -2.5,1.27 -0.91,-1.14 13.05,-19.65 15.79,-41.72 14.73,-64.83 -2.31,-51.71 13.47,-65.92 53.51,-92.89zm62.04 -42.5c-2.66,24.58 2.8,46.55 1.41,68.68 -2.68,42.18 -34.88,69.93 -68.73,90.21 -1.61,1.01 -2.5,1.28 -0.92,-1.11 13.08,-19.65 15.84,-41.76 14.76,-64.82 -2.35,-51.71 13.42,-65.96 53.48,-92.96zm62.07 -42.42c-2.69,24.54 2.78,46.5 1.4,68.65 -2.66,42.17 -34.88,69.92 -68.75,90.22 -1.64,1.01 -2.49,1.27 -0.92,-1.14 13.06,-19.64 15.83,-41.73 14.77,-64.83 -2.35,-51.72 13.44,-65.95 53.5,-92.9zm-186.18 127.38c-2.67,24.55 2.82,46.52 1.44,68.63 -2.67,42.2 -34.88,69.93 -68.77,90.24 -1.61,0.97 -2.48,1.26 -0.88,-1.15 13.03,-19.62 15.78,-41.74 14.76,-64.81 -2.37,-51.71 13.41,-65.95 53.45,-92.91zm-62.04 42.45c-2.68,24.56 2.82,46.54 1.43,68.62 -1.41,22.11 -7.72,43.05 -37.84,68.16 -2.78,2.3 -20.29,15.72 -30.91,22.1 -1.63,1 -2.49,1.25 -0.88,-1.15 13.02,-19.61 15.78,-41.73 14.73,-64.83 -2.38,-51.71 13.4,-65.95 53.47,-92.9zm171.11 116.91c-23.86,-6.39 -42.36,-19.46 -63.47,-26.17 -40.27,-12.81 -77.8,7.17 -109,31.39 -1.5,1.15 -2.09,1.86 0.73,1.24 23.02,-5.02 44.63,0.41 65.78,9.74 47.34,20.88 66.33,11.4 105.96,-16.2zm-62.06 42.47c-23.83,-6.4 -42.33,-19.48 -63.46,-26.18 -21.1,-6.7 -42.87,-8.41 -77.18,10.59 -3.19,1.73 -22.03,13.2 -31.82,20.8 -1.51,1.18 -2.07,1.86 0.74,1.22 23.03,-5 44.63,0.43 65.78,9.77 47.32,20.89 66.34,11.38 105.94,-16.2zm-842.24 -854.16c20.66,-20.66 33.01,-46.46 37.17,-73.27 -26.89,4.1 -52.66,16.47 -73.31,37.11 -16.24,16.23 -22.96,30.96 -27.18,50.35 5.16,-15.38 13.87,-29.82 26.16,-42.11 16.78,-16.79 37.67,-26.92 59.35,-30.4 -3.51,21.66 -13.63,42.55 -30.43,59.33 -12.23,12.22 -26.6,20.92 -41.87,26.1 19.28,-4.22 33.94,-10.95 50.11,-27.11zm29.24 121.68c29.2,0 56.16,-9.5 78.08,-25.54 -21.92,-16.09 -48.88,-25.58 -78.08,-25.58 -22.96,0 -38.12,5.64 -54.82,16.39 14.51,-7.23 30.91,-11.28 48.26,-11.28 23.76,0 45.67,7.58 63.47,20.47 -17.8,12.81 -39.71,20.44 -63.47,20.44 -17.28,0 -33.61,-4.03 -48.06,-11.16 16.61,10.65 31.74,16.26 54.62,16.26zm-65.39 106.72c20.66,20.65 46.46,33 73.27,37.16 -4.1,-26.89 -16.47,-52.66 -37.12,-73.31 -16.22,-16.23 -30.95,-22.95 -50.34,-27.17 15.38,5.15 29.83,13.87 42.1,26.15 16.8,16.78 26.93,37.67 30.41,59.35 -21.66,-3.51 -42.55,-13.63 -59.33,-30.42 -12.22,-12.23 -20.92,-26.61 -26.09,-41.88 4.2,19.28 10.94,33.94 27.1,50.12zm-121.68 29.23c0,29.2 9.5,56.17 25.54,78.08 16.09,-21.91 25.58,-48.88 25.58,-78.08 0,-22.96 -5.65,-38.11 -16.39,-54.81 7.23,14.5 11.28,30.9 11.28,48.26 0,23.75 -7.58,45.67 -20.47,63.46 -12.82,-17.79 -20.43,-39.71 -20.43,-63.46 0,-17.29 4.01,-33.62 11.15,-48.07 -10.65,16.61 -16.26,31.74 -16.26,54.62zm-106.72 -65.39c-20.65,20.66 -33.01,46.46 -37.15,73.27 26.88,-4.1 52.65,-16.47 73.3,-37.11 16.25,-16.23 22.95,-30.96 27.17,-50.35 -5.15,15.38 -13.87,29.83 -26.16,42.11 -16.77,16.79 -37.65,26.92 -59.34,30.4 3.51,-21.66 13.63,-42.55 30.42,-59.33 12.23,-12.22 26.6,-20.92 41.89,-26.1 -19.29,4.21 -33.95,10.95 -50.13,27.11zm-29.24 -121.68c-29.19,0 -56.16,9.5 -78.07,25.54 21.91,16.09 48.88,25.58 78.07,25.58 22.97,0 38.12,-5.64 54.83,-16.39 -14.51,7.23 -30.91,11.29 -48.26,11.29 -23.76,0 -45.68,-7.59 -63.48,-20.48 17.8,-12.81 39.72,-20.43 63.48,-20.43 17.28,0 33.6,4.02 48.06,11.15 -16.61,-10.65 -31.75,-16.26 -54.63,-16.26zm65.39 -106.72c-20.65,-20.64 -46.45,-33 -73.27,-37.14 4.1,26.87 16.47,52.64 37.12,73.3 16.23,16.24 30.96,22.94 50.35,27.16 -15.38,-5.15 -29.83,-13.87 -42.11,-26.14 -16.79,-16.79 -26.92,-37.67 -30.4,-59.36 21.66,3.51 42.55,13.63 59.32,30.42 12.23,12.23 20.93,26.61 26.11,41.9 -4.22,-19.27 -10.95,-33.96 -27.12,-50.14zm121.69 -29.24c0,-29.19 -9.5,-56.16 -25.54,-78.07 -16.1,21.91 -25.58,48.88 -25.58,78.07 0,22.97 5.64,38.12 16.38,54.83 -7.22,-14.51 -11.27,-30.91 -11.27,-48.26 0,-23.76 7.58,-45.68 20.47,-63.48 12.81,17.8 20.43,39.72 20.43,63.48 0,17.28 -4.02,33.61 -11.16,48.06 10.65,-16.61 16.27,-31.75 16.27,-54.63zm-10.56 40.64c29.89,-48.75 47.14,-106.07 47.14,-167.41 0,-71 -23.11,-136.6 -62.16,-189.76 -39.05,53.16 -62.11,118.76 -62.11,189.76 0,61.37 17.24,118.72 47.13,167.48 3.5,10.61 8.6,20.48 15.02,29.32 6.4,-8.86 11.48,-18.76 14.98,-29.39zm81.1 46.02c55.57,-13.34 108.3,-41.69 151.68,-85.06 50.22,-50.2 80.25,-112.91 90.23,-178.11 -65.2,9.96 -127.89,40.03 -178.09,90.24 -43.41,43.4 -71.76,96.15 -85.1,151.76 -5.02,9.98 -8.39,20.57 -10.14,31.36 10.8,-1.76 21.43,-5.15 31.42,-10.19zm24.78 89.86c48.74,29.89 106.07,47.14 167.41,47.14 71,0 136.59,-23.11 189.75,-62.15 -53.16,-39.06 -118.75,-62.12 -189.75,-62.12 -61.37,0 -118.72,17.24 -167.48,47.13 -10.61,3.51 -20.48,8.61 -29.32,15.02 8.85,6.4 18.76,11.48 29.39,14.98zm-46.02 81.1c13.33,55.58 41.68,108.3 85.06,151.69 50.2,50.21 112.91,80.25 178.11,90.22 -9.98,-65.2 -40.03,-127.89 -90.25,-178.09 -43.38,-43.39 -96.15,-71.75 -151.76,-85.1 -9.97,-5.02 -20.56,-8.39 -31.35,-10.13 1.76,10.8 5.14,21.42 10.19,31.41zm-89.88 24.78c-29.87,48.75 -47.11,106.07 -47.11,167.42 0,70.99 23.09,136.58 62.14,189.74 39.06,-53.16 62.13,-118.75 62.13,-189.74 0,-61.38 -17.25,-118.73 -47.15,-167.49 -3.5,-10.61 -8.6,-20.48 -15.01,-29.32 -6.4,8.86 -11.48,18.76 -15,29.39zm-81.08 -46.02c-55.57,13.33 -108.3,41.69 -151.69,85.06 -50.21,50.2 -80.25,112.91 -90.23,178.11 65.2,-9.97 127.9,-40.03 178.1,-90.24 43.41,-43.39 71.76,-96.15 85.1,-151.77 5.01,-9.97 8.39,-20.56 10.14,-31.35 -10.8,1.76 -21.42,5.15 -31.42,10.19zm-24.79 -89.88c-48.74,-29.87 -106.06,-47.11 -167.4,-47.11 -71,0 -136.6,23.09 -189.76,62.14 53.16,39.06 118.76,62.13 189.76,62.13 61.37,0 118.71,-17.25 167.48,-47.15 10.61,-3.5 20.47,-8.6 29.32,-15.01 -8.86,-6.4 -18.76,-11.48 -29.4,-15zm46.03 -81.08c-13.35,-55.57 -41.66,-108.3 -85.06,-151.69 -50.2,-50.21 -112.91,-80.25 -178.11,-90.23 9.96,65.22 40.03,127.9 90.24,178.1 43.4,43.41 96.15,71.76 151.76,85.1 9.98,5.02 20.57,8.39 31.36,10.14 -1.76,-10.8 -5.15,-21.42 -10.19,-31.42zm-1203.89 622.34l-109.57 -74.98 8.85 28.97 86.31 59.06c43.56,29.8 61.41,46.03 114.36,22.64 21.13,-9.33 42.75,-14.76 65.76,-9.72 2.81,0.61 2.25,-0.08 0.74,-1.25 -31.19,-24.22 -68.72,-44.2 -109.01,-31.4 -25.33,8.05 -33.22,23.26 -57.44,6.68zm87.05 -127.2l-109.58 -74.98 30.21 -2.24 86.3 59.06c43.56,29.8 65.15,40.58 62.53,98.4 -1.05,23.08 1.72,45.19 14.75,64.82 1.6,2.39 0.74,2.13 -0.9,1.14 -33.87,-20.31 -66.08,-48.05 -68.74,-90.24 -1.68,-26.53 9.65,-39.38 -14.57,-55.96zm-232.69 -65.84l15.11 -1.12 124.72 85.34c28.09,19.22 49.27,13.73 73.29,27.05 31.28,17.35 27.66,49.87 56.11,72.96 -31.85,-18.28 -60.83,-2.99 -88.34,-25.87 -21.1,-17.57 -23.66,-39.3 -51.75,-58.52l-124.72 -85.34 -4.42 -14.5zm183.04 183.68l-160.47 -109.8 8.85 28.97 119.38 81.69c11.98,8.2 19.92,4.74 32.24,-0.86zm-59.54 -75.67l-114.43 -78.3 8.85 28.96 163.37 111.79c-9.48,-8.17 -17.5,-14.77 -24.82,-24.95 -9.53,-13.24 -17.73,-27.08 -32.97,-37.5zm114 -3.93l-160.46 -109.8 30.21 -2.24 119.38 81.69c11.98,8.2 11.63,16.85 10.87,30.35zm-92.1 -28.08l-114.42 -78.3 30.2 -2.24 163.37 111.78c-10.71,-5.69 -20,-10.89 -31.74,-13.96 -15.96,-4.16 -32.01,-6.74 -47.41,-17.28zm2557.73 117.03l109.57 -74.97 -8.81 28.99 -86.35 59.04c-43.53,29.83 -61.4,46.04 -114.37,22.66 -21.15,-9.35 -42.74,-14.79 -65.75,-9.75 -2.81,0.65 -2.24,-0.08 -0.75,-1.23 31.22,-24.24 68.73,-44.2 109.04,-31.41 25.33,8.05 33.19,23.26 57.42,6.67zm-87.04 -127.17l109.58 -75 -30.21 -2.23 -86.33 59.03c-43.54,29.83 -65.13,40.63 -62.52,98.4 1.08,23.09 -1.71,45.21 -14.72,64.84 -1.61,2.38 -0.76,2.12 0.88,1.14 33.88,-20.3 66.09,-48.04 68.75,-90.25 1.68,-26.52 -9.66,-39.4 14.57,-55.93zm232.68 -65.86l-15.11 -1.11 -124.7 85.33c-28.12,19.23 -49.32,13.75 -73.31,27.04 -31.27,17.35 -27.65,49.89 -56.11,72.98 31.85,-18.28 60.83,-3.03 88.34,-25.88 21.14,-17.56 23.65,-39.3 51.75,-58.5l124.73 -85.35 4.41 -14.51zm-183.03 183.67l160.46 -109.78 -8.86 28.94 -119.36 81.72c-11.99,8.17 -19.93,4.74 -32.24,-0.88zm59.52 -75.68l114.43 -78.26 -8.83 28.95 -163.36 111.79c9.46,-8.18 17.47,-14.76 24.79,-24.96 9.55,-13.26 17.74,-27.08 32.97,-37.52zm-114.01 -3.89l160.49 -109.81 -30.22 -2.25 -119.37 81.67c-12,8.22 -11.63,16.89 -10.9,30.39zm92.11 -28.08l114.44 -78.31 -30.21 -2.26 -163.37 111.81c10.72,-5.73 19.98,-10.89 31.74,-13.97 15.97,-4.2 32.02,-6.75 47.4,-17.27zm-1323.06 906.54l-98.94 67.7c-76.04,52.03 -155.79,97.64 -239.67,135.88l24.62 28.64 -17.79 70.55c76.86,-76.88 164.79,-144.18 254.4,-205.51l109.75 -75.11 -32.37 -22.15zm121.28 1555.38l0 132.77 18.9 -23.66 0 -104.58c0,-52.78 3.31,-76.68 -45.89,-107.17 -19.64,-12.17 -36.33,-26.94 -45.17,-48.78 -1.07,-2.67 -1.33,-1.81 -1.44,0.1 -2.38,39.42 2.33,81.67 35.65,107.69 20.94,16.36 37.95,14.28 37.95,43.63zm-154.14 0l0 132.77 -18.9 -23.66 0 -104.58c0,-52.78 -3.3,-76.68 45.89,-107.17 19.64,-12.17 36.33,-26.94 45.17,-48.78 1.07,-2.67 1.34,-1.81 1.45,0.1 2.37,39.42 -2.33,81.67 -35.65,107.69 -20.95,16.36 -37.95,14.28 -37.96,43.63zm77.07 229.22l-9.46 -11.85 0 -151.12c0,-34.03 -16.49,-48.42 -19.07,-75.76 -3.35,-35.61 25.54,-50.99 28.53,-87.5 2.91,36.6 31.88,51.89 28.54,87.5 -2.58,27.34 -19.07,41.73 -19.07,75.76l0 151.12 -9.47 11.85zm48.23 -254.79l0 194.43 18.91 -23.66 0 -144.66c0,-14.52 -7.34,-19.12 -18.91,-26.11zm-28.84 91.86l0 138.66 18.91 -23.66 0 -197.95c-1.39,12.43 -2.31,22.78 -6.58,34.57 -5.54,15.34 -12.33,29.92 -12.33,48.38zm-67.62 -91.86l0 194.43 -18.91 -23.66 0 -144.66c0,-14.52 7.35,-19.12 18.91,-26.11zm28.84 91.86l0 138.66 -18.91 -23.66 0 -197.95c1.34,12.05 2.31,22.65 6.4,34.07 5.58,15.53 12.51,30.22 12.51,48.88zm0.98 -1680.41l0 -67.02c0,-92.15 -7.38,-183.73 -23.18,-274.55l37.52 4.16 48.18 -54.54c-20.05,106.86 -25.95,217.43 -25.95,326.03l0 65.93 -18.28 12.51 -18.29 -12.52zm18.29 1954.69c-1068.87,0 -1935.69,-866.82 -1935.69,-1935.69 0,-1068.86 866.82,-1935.68 1935.69,-1935.68 1068.86,0 1935.68,866.82 1935.68,1935.68 0,1068.87 -866.82,1935.69 -1935.68,1935.69zm0 500.77c-1345.39,0 -2436.46,-1091.07 -2436.46,-2436.46 0,-1345.39 1091.07,-2436.45 2436.46,-2436.45 1345.39,0 2436.45,1091.06 2436.45,2436.45 0,1345.39 -1091.06,2436.46 -2436.45,2436.46zm1261.64 -3819.53c-332.82,-303.77 -775.63,-489.07 -1261.64,-489.07 -485.51,0 -927.92,184.92 -1260.62,488.14l1260.61 865.33 1261.65 -864.4zm-796.04 3196.83c808.6,-207.03 1406.54,-940.7 1406.54,-1813.76 0,-219.03 -37.64,-429.29 -106.79,-624.66l-1299.75 897.64 0 1540.78zm-931.2 0l0 -1540.78 -1299.76 -897.63c-69.15,195.37 -106.78,405.62 -106.78,624.65 0,873.06 597.93,1606.73 1406.54,1813.76l0 0zm465.6 686.24c-1380.46,0 -2500,-1119.54 -2500,-2500 0,-1380.46 1119.54,-2500 2500,-2500 1380.46,0 2500,1119.54 2500,2500 0,1380.46 -1119.54,2500 -2500,2500z"/>
  </g>
 </g>
</svg>
