<?xml version="1.0" encoding="UTF-8"?>
<!DOCTYPE svg PUBLIC "-//W3C//DTD SVG 1.1//EN" "http://www.w3.org/Graphics/SVG/1.1/DTD/svg11.dtd">
<!-- Creator: CorelDRAW 2020 (64-Bit) -->
<svg xmlns="http://www.w3.org/2000/svg" xml:space="preserve" width="142mm" height="30mm" version="1.1" style="shape-rendering:geometricPrecision; text-rendering:geometricPrecision; image-rendering:optimizeQuality; fill-rule:evenodd; clip-rule:evenodd"
viewBox="0 0 14200 3000"
 xmlns:xlink="http://www.w3.org/1999/xlink"
 xmlns:xodm="http://www.corel.com/coreldraw/odm/2003">
 <defs>
  <style type="text/css">
   <![CDATA[
    .fil0 {fill:#727271;fill-rule:nonzero}
    .fil4 {fill:#E3EAEF;fill-rule:nonzero}
    .fil1 {fill:#65C5EE;fill-rule:nonzero}
    .fil2 {fill:#2F89C3;fill-rule:nonzero}
    .fil3 {fill:#1A628B;fill-rule:nonzero}
   ]]>
  </style>
 </defs>
 <g id="лого">
  <metadata id="CorelCorpID_0Corel-Layer"/>
  <g id="_2386326612464">
   <path class="fil0" d="M1459.71 1614.26c-12.63,-5.68 -25.26,-11.96 -37.71,-18.63 6.81,-4.34 13.3,-8.5 19.61,-12.45l31.93 21.76 -13.83 9.32zm-69.96 47.37l-39.44 -26.91c13.83,-6.49 26.92,-13.34 39.44,-20.15 12.6,6.81 25.76,13.66 39.73,20.15l-39.73 26.91zm81.6 103.09l-81.6 56.37 -81.31 -56.37 81.31 -55.18 81.6 55.18zm-165.1 -159.78l31.79 -21.76c6.13,3.95 12.63,8.11 19.58,12.45 -12.46,6.67 -24.95,12.95 -37.54,18.63l-13.83 -9.32zm83.5 -57.36l22.93 15.63c-7.16,4.66 -14.99,9.31 -22.93,14.15 -7.83,-4.84 -15.48,-9.49 -22.82,-14.15l22.82 -15.63zm302.26 -82.62c-0.7,-0.85 -17.32,-17.99 -46.39,-17.99 -15.13,0 -30.94,4.87 -46.74,14 -2.82,1.49 -4.52,4.63 -3.99,7.8 0.18,0.85 11.47,78.63 2.83,112.04 -6.46,25.16 -27.77,54.58 -66.54,54.58 -8.29,0 -16.76,-1.34 -25.72,-3.85 0,0 -0.35,0 -0.35,-0.17l29.25 -19.8c2.18,-1.48 3.52,-3.81 3.52,-6.45 0,-2.65 -1.34,-5.01 -3.52,-6.49l-58 -39.9c18.27,-13.8 29.92,-23.6 31.4,-24.94 1.69,-1.48 2.82,-3.46 2.82,-5.68 0,-2.15 -0.81,-4.31 -2.47,-5.79l-10.34 -10.48c-1.48,-1.48 -3.63,-2.32 -5.43,-2.32 -1.69,0 -3.53,0.67 -4.87,1.65 -0.63,0.32 -15.98,12.14 -39.23,28.26l-23.24 -16.12 91.12 -62.65 7.12 18.09c1.17,2.83 3.64,4.8 6.99,4.98l0.32 0c2.85,0 5.5,-1.66 6.81,-4.13l43.42 -79.83c1.48,-2.65 1.13,-5.82 -0.53,-8.29 -1.48,-2.16 -3.95,-3.35 -6.49,-3.35l-1.16 0 -89.78 13.47c-3,0.32 -5.65,2.47 -6.46,5.5 -0.67,2.83 0.18,5.97 2.33,8.12l14.6 12.84 -103.54 71.12 -103.29 -71.12 14.5 -12.84c2.15,-2.15 3.14,-5.29 2.15,-8.12 -0.67,-3.03 -3.14,-5.18 -6.31,-5.5l-89.79 -13.47 -1.16 0c-2.65,0 -5.19,1.19 -6.49,3.35 -1.69,2.47 -1.84,5.64 -0.53,8.29l43.25 79.83c1.52,2.47 4.16,4.13 6.99,4.13l0.52 0c2.97,-0.18 5.61,-2.15 6.81,-4.98l7.13 -18.09 91.09 62.65 -23.25 16.12c-23.46,-16.12 -38.74,-27.94 -39.09,-28.26 -1.48,-0.98 -3.14,-1.65 -4.8,-1.65 -2.15,0 -4.16,0.84 -5.68,2.32l-10.47 10.48c-1.49,1.48 -2.3,3.64 -2.3,5.79 0.18,2.22 1.17,4.2 2.65,5.68 1.66,1.34 13.12,11.14 31.57,24.94l-58.17 39.9c-2.01,1.48 -3.35,3.84 -3.35,6.49 0.17,2.64 1.34,4.97 3.49,6.45l29.28 19.8c0,0.17 -0.18,0.17 -0.32,0.17 -8.99,2.51 -17.46,3.85 -25.61,3.85 -38.73,0 -60.15,-29.42 -66.67,-54.58 -8.65,-33.41 2.85,-111.19 2.85,-112.04 0.5,-3.17 -1.02,-6.31 -3.84,-7.8 -15.95,-9.13 -31.79,-14 -46.74,-14 -29.07,0 -45.87,17.14 -46.54,17.99 -1.34,1.16 -2.15,2.96 -2.15,4.66 -0.49,4.79 -9.35,117.22 42.72,174.06 19.27,20.95 44.38,31.61 74.83,31.61 5.32,0 11.11,-0.18 16.79,-0.99 29.6,-3.53 58.49,-11.36 86.43,-21.31l48.26 32.6 -106.96 72.32c-2.15,1.65 -3.46,3.98 -3.46,6.63 0,2.54 1.13,5.01 3.46,6.49l107.24 74.15 -91.4 63.33 -6.99 -17.75c-1.2,-2.68 -3.84,-4.65 -6.81,-4.83 -0.17,-0.18 -0.17,-0.18 -0.52,-0.18 -2.83,0 -5.47,1.66 -6.99,4.17l-43.25 79.97c-1.31,2.51 -1.16,5.82 0.53,8.15 1.3,2.15 3.84,3.32 6.49,3.32l1.16 0 89.79 -13.3c3.17,-0.5 5.64,-2.65 6.31,-5.47 0.99,-3 0,-6.18 -2.15,-8.33l-14.82 -13.12 103.61 -71.68 103.72 71.68 -14.78 13.12c-2.33,2.15 -3.18,5.33 -2.33,8.33 0.81,2.82 3.32,4.97 6.46,5.47l89.78 13.3 1.16 0c2.54,0 5.01,-1.17 6.49,-3.32 1.66,-2.33 1.84,-5.64 0.53,-8.15l-43.42 -79.97c-1.31,-2.51 -3.96,-4.17 -6.81,-4.17 -0.18,0 -0.32,0 -0.32,0.18 -3.35,0.18 -5.82,2.15 -6.99,4.83l-7.12 17.75 -91.3 -63.33 107.21 -74.15c2.19,-1.48 3.49,-3.95 3.49,-6.49 0,-2.65 -1.3,-4.98 -3.49,-6.63l-106.86 -72.32 48.37 -32.6c27.76,9.95 56.83,17.78 86.29,21.31 5.82,0.81 11.46,0.99 16.79,0.99 30.44,0 55.7,-10.66 74.82,-31.61 52.18,-56.84 43.18,-169.27 42.73,-174.06 -0.18,-1.7 -1.03,-3.5 -2.16,-4.66z"/>
   <path class="fil0" d="M1635.79 2042.55c-84.49,164.08 -239.26,297.74 -241.06,295.77 -1.87,1.97 -156.63,-131.69 -241.12,-295.77 -84.45,-163.94 -138.64,-421.5 -141.64,-544.51 -3,-123.05 21.13,-175.76 21.13,-175.76 0,0 105.55,-5.78 190.04,-35.24 71.65,-24.76 149.62,-87.59 171.59,-105.9 21.74,18.31 99.91,81.14 171.74,105.9 84.31,29.46 189.86,35.24 189.86,35.24 0,0 24.13,52.71 20.96,175.76 -3,123.01 -57.19,380.57 -141.5,544.51zm8.01 557.99c10.93,21.09 17.28,62.33 -16.3,65.47 -18.84,-49.21 -41.38,-77.96 -69.36,-117.68 -25.96,-30.59 -54.5,-62.2 -74.96,-96.81 45.89,53.87 138,107.6 160.62,149.02zm-160.62 250.22c6.31,-48.26 -6.18,-155.96 -25.79,-229.13 -13.44,-49.21 -58.18,-178.4 -38.24,-224.61 7.79,60.85 32.13,155.93 67.2,233.93 24.91,56.02 61.49,186.23 -3.17,219.81zm-151.31 -229.13c-18.63,73.17 -31.93,180.87 -25.61,229.13 -64.84,-33.58 -28.12,-163.79 -3.18,-219.81 34.96,-78 59.2,-173.08 67.03,-233.93 20.11,46.21 -24.62,175.4 -38.24,224.61zm-99.77 -73.3c-28.92,39.72 -51.54,68.47 -70.16,117.68 -33.59,-3.14 -27.24,-44.38 -16.3,-65.47 22.61,-41.42 114.58,-95.15 160.62,-149.02 -20.46,34.61 -49.04,65.69 -74.16,96.81zm-345.47 -534.21c1.69,10.79 3.17,17.1 7.8,24.27 -60.05,9.31 -85.62,32.73 -107.43,70.83 -30.58,51.37 1.38,117.69 -7.3,145.14 -6.1,17.14 -26.24,33.58 -58.21,18.62 15.49,68.69 101.29,60.86 123.9,22.62 7.65,31.92 0,68.68 -15.66,82.62 26.63,1.51 49.24,-9.32 63.18,-30.41 3.17,6.31 3.17,14.96 4.69,22.58 14.78,-7.62 24.27,-16.27 30.41,-24.1 2.33,7.69 5.33,25.61 1.66,40.25 -11.47,7.83 -24.45,14.96 -44.56,25.26 -32.07,15.63 -90.27,38.24 -123.86,42.9 -27.41,4.66 -74.96,-10.97 -87.45,-49.21 -10.97,-36.59 -41.24,-48.23 -65.51,-25.76 -6.14,-4.65 -23.25,-7.83 -30.41,3.32 0,0 -7.66,-17.29 -17.15,-25.79 6.32,-18.77 1.48,-41.38 -15.63,-49.03 -1.48,-36.73 -24.09,-36.73 -31.92,-49.22 -4.62,-7.79 -4.62,-17.28 6.31,-18.76 -4.62,-6.99 -14.11,-8.51 -15.63,-8.51 3.04,-15.62 -1.65,-35.06 -22.61,-41.41l-184.89 -381.21c11.82,-12.49 5.68,-30.41 -7.76,-36.76l0 -3c1.13,-3 1.31,-5.33 1.62,-7.62 5.01,-0.85 11.01,-2.01 16.3,-3.35 36.58,-8.61 93.63,-62.34 142.84,-95.92 -17.32,17.95 -88.97,70.16 -120.9,100.57 -29.74,29.6 -17.28,59.2 -12.45,85.83l6.99 14.79c27.09,1.65 67.66,17.95 98.07,-7.02 9.49,-9.28 142.84,-174.74 160.62,-191 -6.81,14.78 -91.09,120.83 -129.19,181.72 -28.26,45.89 13.16,76.3 17.99,102.73 30.24,-9.28 71.62,8.67 93.42,-27.91 21.13,-35.1 85.79,-160.62 109.89,-195.86 -9.32,27.41 -78,170.07 -82.62,182.53 -16.3,48.4 24.94,57.71 41.38,89.81 24.94,-17.95 70.02,-3.98 87.28,-50.06 10.83,-31.11 38.24,-139.48 52.35,-168.41 -1.59,32.1 -10.94,74.96 -17.25,122.38 -6.32,47.52 38.2,46.03 61.52,73.48 22.61,-18.8 64,-14.15 70.17,-57.04 6.28,-38.21 7.8,-131.03 7.8,-131.03 6.31,5.51 9.48,6.99 16.47,13.34 15.45,-17.99 47.55,-17.99 58.35,-39.76 4.8,1.48 6.31,4.66 10.97,7.8 35.07,58.38 38.07,171.45 -10.97,211.35 14.15,0 32.1,-1.7 42.9,-6.35 -21.77,44.41 -70.17,60.04 -125.52,39.76zm-561.16 -408.52c-8.15,3.31 -17.64,7.48 -25.12,10.65l0 -2.18c7.65,-2.83 17.14,-5.65 25.12,-8.47zm799.74 -959.17c87.46,-18.77 176.21,-67.84 216.11,-109.04 33.13,1.97 75.85,2.29 108.27,0.49 39.41,41.56 127.04,89.78 214.46,108.55 -50.73,0 -139.46,-4.66 -150.46,-17.11 3.17,31.93 71.01,67.98 115.39,77.97 -36.76,4.65 -70.84,0 -99.91,-13.13 15.77,22.61 33.55,39.72 63.15,49.88 -31.08,38.25 -94.93,63.01 -158.29,56.84 15.66,18.8 44.59,30.44 69.71,27.27 -56.87,90.8 -99.13,183.9 -109.08,291.81l-0.35 -0.17 -0.18 0.35c-9.46,-108.09 -51.37,-201.19 -108.06,-291.99 25.61,3.17 53.87,-8.47 68.51,-27.27 -63.85,6.17 -125.52,-18.59 -157.48,-56.84 29.78,-10.16 47.56,-27.27 63.22,-49.88 -28.12,13.13 -63.22,17.78 -99.8,13.13 44.41,-9.99 113.06,-46.04 116.06,-77.97 -11.64,12.45 -100.4,17.11 -151.27,17.11zm583.29 2064c19.54,33.58 -7.7,57.68 -45.94,57.68 0,-13.13 0,-17.82 -3.17,-33.59 17.81,-1.66 38.63,-8.32 49.11,-24.09zm-581.66 57.68c-38.21,0 -65.48,-24.1 -46.01,-57.68 10.13,15.13 30.24,22.26 47.52,24.09 -1.51,15.77 -1.51,20.46 -1.51,33.59zm-884.31 -1139.23l-6.18 0c-0.35,-0.49 -0.67,-0.99 -1.16,-1.52 2.86,-0.63 5.86,-0.63 8.5,-1.48 -0.18,1.03 -0.67,2.01 -1.16,3zm-45.9 97.44l-15.45 -9.14c6.1,-7.16 12.28,-7.16 18.45,-3.17 0,4.65 0,9.31 -3,12.31zm-30.44 -65.34c-1.49,0 -1.49,1.49 -2.97,3 -9.49,-1.51 -9.49,-12.49 -7.83,-21.8 4.52,0 7.83,-1.52 10.8,-4.66l1.51 1.66 -4.48 3c1.48,6.32 1.48,12.49 2.97,18.8zm2580.92 -408.69c-33.45,-20.11 -88.83,-27.27 -144.96,-21.76 88.09,-30.45 148.1,-95.93 151.24,-154.49 -45.86,-13.12 -93.59,-6.1 -134.83,3.18 42.72,-31.93 112.92,-90.45 104.38,-176.25 -41.2,-10.12 -117.01,18.77 -148.94,32.95 101.42,-57.04 138.01,-191.88 84.28,-268.36 -31.89,18.77 -177.03,166.76 -200.48,184.05 75,-85.8 110.06,-147.46 130.35,-205.18 24.13,-63.01 25.61,-172.9 -52.21,-209.65 -36.73,84.31 -165.42,300.1 -237.07,389.89 -7.87,-6.99 -14.11,-16.48 -24.31,-17.96 -17.11,54.71 -67.8,127.21 -113.87,162.14 -2.33,-4.66 -6.95,-17.18 -14.82,-30.48 -49.04,73.34 -176.21,173.95 -217.45,235.62 -32.07,45.86 -32.07,87.31 12.45,130.17 17.96,17.96 52.21,49.88 22.61,94.3 -40.25,58.84 -121.18,65.65 -165.27,31.08 0,-10.48 -0.32,-20.46 -0.81,-29.78 51.89,-20.1 64.02,-90.77 25.78,-134.65 -8.5,16.12 -22.26,27.94 -38.91,33.72 -4.48,-18.27 -8.46,-27.23 -8.82,-28.08l-2.01 -4.34 -4.51 -0.14c-0.46,-0.17 -17.43,-1.02 -42.83,-3.98 28.75,-9.49 47.17,-36.09 43.18,-72.01 -44.38,38.25 -88.9,1.66 -99.06,-8.46 -27.94,-32.78 -35.74,-69.5 -24.8,-125.7 9.31,-49.07 60.04,-127.03 93.48,-151.97 4.8,4.62 12.46,13.97 28.72,12.48 9.49,-2.99 25.12,-11 36.76,-15.66 33.58,-10.12 66.32,-2.33 87.45,11.01 38.07,23.25 34.93,49 33.59,67.8 58.17,-32.74 38.06,-87.28 -38.24,-107.56 52.17,0 95.11,47.52 105.9,53.69 28.93,21.13 70.17,16.48 94.3,4.84 46.21,-21.98 55.53,-76.49 43.04,-87.46 -4.66,19.62 -19.44,36.76 -46.22,39.9 -39.58,4.66 -77.96,-12.66 -108.23,-25.93 -25.61,-10.83 -67.2,-18.62 -95.11,-16.97 52.21,-28.92 133.35,-25.75 162.1,18.63 17.29,-13.97 28.12,-26.6 32.95,-55.35 14.78,-77.86 -46.07,-117.76 -110.91,-117.76 1.66,-18.77 -11.64,-28.08 -28.75,-21.76 0,-7.98 -2.15,-14.12 -6.53,-17.29 1.52,-0.14 3.53,-0.81 4.87,-0.81 65.48,-4.52 127.14,-24.8 160.55,-59.87 58.6,-62.51 -34.89,-141.99 -1.48,-203.52 32.1,13.97 55.56,31.93 99.8,38.1 4.62,9.49 8.64,28.09 10.12,38.25 14.11,69.49 -54.36,81.1 -36.58,155.08 7.8,33.62 32.91,45.26 41.38,85.16 0,0 3.18,27.9 -21.09,52.21 56.23,1.48 85.79,-46.07 68.5,-90.45 -7.65,-17.96 -27.27,-35.25 -27.27,-56.2 28.93,38.24 54.72,36.72 99.06,22.61 20.32,-6.17 21.98,21.94 9.35,44.56 30.41,-18.17 38.42,-47.73 38.42,-60.86 0,-31.25 -24.31,-46.03 -47.77,-39.76 -13.12,1.52 -39.72,19.48 -41.2,-6.27 -5.5,-44.42 64.66,-42.9 50.55,-114.55 -7.65,-35.95 -47.55,-55.56 -109.89,-63.22 -6.17,-6.28 -21.8,-21.1 -30.3,-33.58 -34.22,-56.84 -69.46,-71.65 -90.59,-60.01 -24.95,12.45 -38.07,23.46 -58.35,34.25 -16.48,8.61 -33.59,13.3 -44.56,25.76 -27.27,33.58 -1.52,85.79 12.45,117.89 9.49,18.6 32.11,61.53 21.98,93.46 -11,38.2 -74.19,62.33 -112.25,70.16 -2.51,0 -3.99,0.85 -6.49,0.85l0 -14.85c10.97,-19.62 20.42,-42.9 28.29,-64 25.75,-68.68 -12.63,-96.59 -69.36,-109.89 -7.16,-4.65 -14.95,-6.31 -24.23,-3.17l-1.7 0 -1.48 11.64 -7.83 -2.33 1.66 -13.97 -3.35 0c6.52,-4.65 9.52,-12.45 9.52,-20.25 0,-8.5 -3,-14.81 -6.17,-19.47l7.65 0 -3.17 -3.18c-1.31,-3.14 -4.48,-6.13 -9.31,-10.97 -1.49,-1.48 -3,-4.62 -3,-6.14 1.51,1.52 3,3.14 6.17,4.66 3.14,3.14 7.83,6.32 9.31,9.31l4.66 3.14 0 -63.85 -4.66 3.81c-1.48,1.55 -6.17,4.69 -9.31,7.83 -3.17,3.18 -4.66,3.18 -6.17,4.69 0,-1.51 1.51,-3.21 3,-6.35 4.83,-2.96 8,-7.79 9.31,-9.98l3.17 -4.8 -63.85 0 3.18 4.8c2.96,2.19 6.95,7.02 10.12,9.98 1.52,3.14 3,4.84 4.66,6.35 -1.66,-1.51 -4.66,-1.51 -6.35,-4.69 -5.47,-3.14 -8.43,-6.28 -11.61,-7.83l-3.14 -3.81 0 63.85 3.14 -3.14c3.18,-2.99 6.14,-6.17 11.61,-9.31 1.69,-1.52 4.69,-3.14 6.35,-4.66 -1.66,1.52 -3.14,4.66 -4.66,6.14 -3.17,4.84 -7.16,7.83 -10.12,10.97l-3.18 3.18 10.13 0c-5.47,4.66 -6.95,10.97 -6.95,19.47 0,7.8 2.96,15.6 8.43,20.25l-1.48 0 1.48 13.97 -8.43 2.33 -1.7 -11.64 -1.48 0c-9.31,-3.14 -17.11,-1.48 -23.46,3.17 -57.68,13.3 -95.88,41.21 -70.13,109.89 7.83,21.1 17.29,44.38 28.89,64l0 10.16c-57.82,-18.81 -161.61,-81.99 -189.51,-120.23 -3.17,-3.81 -5.5,-6.95 -6.98,-9.28l-0.32 0.14 1.16 -41.38c20.11,-33.58 38.1,-75 52.21,-113.06 36.59,-99.1 -17.32,-140.34 -102.94,-157.62 -8.64,-6.14 -19.61,-9.32 -33.58,-4.66l-3 15.63 -17.92 -1.48 1.48 -20.29c-3.18,1.48 -6.17,1.48 -9.31,1.48 12.27,-6.13 20.95,-21.13 20.95,-36.58 0,-10.94 -5.5,-24.27 -14.82,-30.41l14.82 0c-8.68,-7.83 -22.61,-24.31 -25.61,-35.1 10.79,3 27.27,17.81 34.92,25.79l0 -81.14c-7.65,6.17 -24.13,21.77 -34.92,23.28 3,-9.17 16.93,-24.94 25.61,-32.77l-81.14 0c6.32,7.83 21.91,23.6 23.43,32.77 -9.46,-1.51 -24.94,-17.11 -33.59,-23.28l0 81.14c8.65,-7.98 24.13,-22.79 33.59,-25.79 -1.52,10.79 -17.11,27.27 -23.43,35.1l13.97 0c-9.31,6.14 -13.97,19.47 -13.97,30.41 0,15.45 7.8,30.45 20.29,36.58 -3.14,0 -6.32,0 -10.97,-1.48l1.65 20.29 -17.95 1.48 -1.7 -15.63c-13.93,-4.66 -24.73,-1.48 -34.22,4.66 -84.8,17.28 -138.81,58.52 -102.09,157.62 12.49,38.06 30.45,79.48 52.21,113.06l0 42.9c-1.48,1.48 -3.14,4.66 -6.14,7.62 -27.27,38.24 -131.86,101.42 -189.54,120.23l0 -10.16c11.64,-19.62 21.09,-42.9 28.92,-64 25.76,-68.68 -12.48,-96.59 -70.16,-109.89 -6.49,-4.65 -13.97,-6.31 -23.43,-3.17l-1.48 0 -1.69 11.64 -7.8 -2.33 1.48 -13.97 -1.48 0c4.62,-4.65 7.8,-12.45 7.8,-20.25 0,-8.5 -1.48,-14.81 -6.32,-19.47l9.49 0 -3.17 -3.18c-3.18,-3.14 -6.32,-6.13 -9.32,-10.97 -1.48,-1.48 -3.81,-4.62 -5.46,-6.14 1.65,1.52 5.46,3.14 6.98,4.66 4.62,3.14 7.8,6.32 10.97,9.31l3.14 3.14 0 -63.85 -3.14 3.81c-3.17,1.55 -6.35,4.69 -10.97,7.83 -1.52,3.18 -5.33,3.18 -6.98,4.69 1.65,-1.51 3.98,-3.21 5.46,-6.35 3,-2.96 6.14,-7.79 9.32,-9.98l3.17 -4.8 -63.89 0 3.04 4.8c1.48,2.19 5.47,7.02 8.64,9.98 3,3.14 4.48,4.84 4.48,6.35 -1.48,-1.51 -3,-1.51 -6,-4.69 -3.98,-3.14 -8.78,-6.28 -10.16,-7.83l-4.79 -3.81 0 63.85 4.79 -3.14c1.38,-2.99 6.18,-6.17 10.16,-9.31 3,-1.52 4.52,-3.14 6,-4.66 0,1.52 -1.48,4.66 -4.48,6.14 -3.17,4.84 -7.16,7.83 -8.64,10.97l-3.04 3.18 8.51 0c-3.99,4.66 -7.13,10.97 -7.13,19.47 0,7.8 3.14,15.6 10.3,20.25l-3.17 0 1.65 13.97 -8.78 2.33 -1.38 -11.64 -1.65 0c-9.46,-3.14 -17.08,-1.48 -23.43,3.17 -57.71,13.3 -95.92,41.21 -70.17,109.89 7.84,21.1 17.29,44.38 28.93,64l0 14.85c-2.47,0 -4.65,-0.85 -6.31,-0.85 -38.24,-7.83 -102.1,-31.96 -113.07,-70.16 -10.16,-31.93 12.67,-74.86 21.84,-93.46 14.78,-32.1 39.83,-84.31 13.4,-117.89 -11.78,-12.46 -28.92,-17.15 -45.4,-25.76 -20.11,-10.79 -32.7,-21.8 -58.31,-34.25 -20.46,-11.64 -55.39,3.17 -90.6,60.01 -7.65,12.48 -24.13,27.3 -30.48,33.58 -61.48,7.66 -101.24,27.27 -109.71,63.22 -14.29,71.65 56.06,70.13 51.36,114.55 -1.65,25.75 -28.75,7.79 -41.41,6.27 -24.24,-6.27 -48.37,8.51 -48.37,39.76 0,13.13 8.65,42.69 38.42,60.86 -12.49,-22.62 -11.01,-50.73 9.95,-44.56 44.45,14.11 69.35,15.63 98.28,-22.61 0,20.95 -18.62,38.24 -27.09,56.2 -17.29,44.38 11.46,91.93 68.51,90.45 -25.79,-24.31 -20.46,-52.21 -20.46,-52.21 8.01,-39.9 32.95,-51.54 41.41,-85.16 17.29,-73.98 -51.36,-85.59 -36.58,-155.08 1.48,-10.16 4.66,-28.76 9.28,-38.25 44.59,-6.17 68.68,-24.13 99.8,-38.1 32.07,61.53 -60.04,141.01 -1.52,203.52 33.59,35.07 95.92,55.35 160.59,59.87 1.34,0 3.52,0.81 5.18,0.99 -4.48,2.99 -6.81,9.13 -6.81,17.11 -16.96,-6.32 -30.26,2.99 -27.94,21.76 -67.02,0 -126.22,39.9 -111.58,117.76 4.66,28.75 15.63,41.38 33.62,55.35 28.08,-44.38 109.22,-47.55 162.1,-18.63 -28.78,-1.65 -70.17,6.14 -95.81,16.97 -29.74,13.27 -67.77,30.59 -107.53,25.93 -27.48,-3.14 -41.42,-20.28 -46.88,-39.9 -12.49,10.97 -3.14,65.48 43.56,87.46 23.43,11.64 64.85,16.29 93.6,-4.84 10.97,-6.17 53.87,-53.69 106.25,-53.69 -75.84,20.28 -96.94,74.82 -37.6,107.56 -2.33,-18.8 -5.33,-44.55 32.77,-67.8 21.13,-13.34 54.54,-21.13 87.45,-11.01 11.65,4.66 27.1,12.67 36.59,15.66 16.3,1.49 24.06,-7.86 28.71,-12.48 33.62,24.94 82.66,102.9 93.67,151.97 11.64,56.2 3.1,92.92 -24.95,125.7 -9.34,10.12 -54.54,46.71 -98.91,8.46 -4.17,35.74 14.25,62.38 43.07,72.01 -25.82,2.82 -43.07,3.81 -43.6,3.98l-4.52 0.14 -1.8 4.34c-0.49,0.85 -4.34,9.81 -8.96,27.94 -16.16,-6.17 -29.77,-17.64 -38.1,-33.58 -38.24,43.71 -26.42,113.87 24.98,134.34 -0.53,9.63 -0.85,19.96 -0.85,30.58 -44.06,33.9 -124.21,26.95 -163.79,-31.57 -30.41,-44.42 4.65,-76.34 21.97,-94.3 44.35,-42.86 44.35,-84.31 12.28,-130.17 -41.24,-61.67 -168.38,-162.28 -217.31,-235.62 -7.97,13.3 -12.59,25.82 -14.29,30.48 -45.89,-34.93 -97.44,-107.43 -114.37,-162.14 -9.49,1.48 -16.47,10.97 -24.27,17.96 -71.01,-89.79 -200.38,-305.58 -236.96,-389.89 -77.29,36.75 -75.81,146.64 -52.18,209.65 20.78,57.72 56.02,119.38 130,205.18 -23.28,-17.29 -168.24,-165.28 -200.34,-184.05 -53.69,76.48 -17.15,211.32 84.1,268.36 -31.04,-14.18 -107.52,-43.07 -148.76,-32.95 -7.8,85.8 61.52,144.32 104.42,176.25 -41.24,-9.28 -88.8,-16.3 -134.87,-3.18 3.18,58.56 63.85,124.04 149.65,154.49 -54.54,-5.51 -109.89,1.65 -143.51,21.76 6.35,60.86 75,113.24 157.48,125.73 -55.35,6.1 -104.42,30.41 -130.03,63.82 30.26,39.76 74.68,70.17 142.62,68.65 -15.59,5.5 -33.55,16.3 -49,31.11 -1.69,-1.51 -4.83,-2.99 -7.83,-2.99 -3.32,1.48 -4.66,6.13 -3.32,9.31l0 2.33c-6.49,4.65 -10.16,9.95 -10.79,15.63 -6.35,8.99 -12.81,19.61 -16.33,28.75 1.69,0.84 3.03,2.33 4.69,3.17 -0.67,5.33 0.49,11.29 4.48,17.11 -3,3.18 -4.48,7.83 -6.14,12.45l-39.76 -15.59c-2.15,36.09 5.82,65.83 24.1,84.28 14.32,16.3 30.44,13.97 25.78,19.47l43.08 26.43c7.62,16.44 23.28,16.44 34.04,11.78l0 3.17c0,17.11 11.82,31.08 27.31,36.59 -3,14.14 3.14,23.42 22.75,29.74l162.1 392.89c-6.31,18.62 0,35.1 14.11,41.2 -3.28,4.69 -6.28,9.49 -6.28,18.84 6.28,-4.66 15.63,-6.32 20.29,6.98 3,9.28 -14.01,39.73 11.82,60.01 -3.35,17.96 6.14,36.58 24.76,44.56 0,9.31 8.65,39.72 10.13,50.51 -11.61,16.48 -38.24,41.42 -34.89,68.69 3.17,19.61 10.79,25.79 26.42,30.41 -6.31,35.1 13.16,50.73 42.9,52.39 0,25.61 24.09,34.92 39.72,36.4 14.82,10.98 21.1,15.63 38.28,24.28 -15.67,18.62 -4.69,42.89 24.06,50.72 3.17,10.8 11,20.29 27.3,24.1 9.46,15.63 26.46,15.63 36.58,10.97 6.32,-3.14 17.26,-21.1 7.8,-36.72 6.32,-7.84 3.14,-22.65 -1.48,-31.97 9.28,-17.1 1.48,-38.2 -11.68,-44.34 1.66,-9.49 -3.14,-24.27 -6.28,-33.44 22.58,-14.15 50.66,-32.07 60.82,-38.24 55.39,-39.73 117.72,-74.97 188.74,-79.66 17.95,-1.62 51.36,-3.11 70.31,-1.62 28.78,3.14 68.51,11.78 91.79,-6.18 7.13,-4.65 11.82,-12.49 10.3,-20.28 -3.17,-17.96 -22.61,-33.59 -28.93,-49.88 -1.66,-4.98 -4.65,-12.14 -7.65,-18.6 20.28,3.64 38.91,0.64 50.52,-4.86 12.52,-4.63 42.93,-27.24 41.41,-60.68 -24.23,11.64 -82.8,27.27 -88.93,-32.07 -6.32,-52.21 39.75,-96.59 111.54,-77.12 49.08,12.46 120.72,116.88 55.21,162.25 -31.92,21.8 -80.96,42.72 -74.64,99.76 20.95,-25.79 48.89,-38.24 85.47,-35.1 -53.72,39.76 -94.96,44.38 -151.13,74.82 -49.07,28.79 -85.61,76.49 -124.03,78 -29.6,1.48 -45.93,-33.58 -17.15,-60.85 -28.78,-6.17 -66.99,16.44 -77.96,46.71 -13.97,41.38 -3.18,70.98 22.61,87.45 -34.92,18.63 -60.68,55.35 -48.4,107.56 11.82,42.9 54.72,42.9 38.42,97.44 24.13,-6.35 39.58,-22.61 46.71,-46.07 3.17,-16.27 6.17,-33.41 14.14,-41.24 -3.31,32.77 15.45,80.96 60.05,102.94 30.19,14.78 77.96,20.92 114.54,-17.15 14.78,42.9 65.3,79.48 117.69,77.97 24.09,0 47.55,-10.3 65.51,-20.92 12.49,31.75 44.38,63.85 76.31,79.3 32.73,-15.45 64.84,-47.55 77.99,-79.3 17.29,10.62 41.39,20.92 64.85,20.92 50.55,1.51 103.57,-35.07 117.68,-77.97 36.58,38.07 84.17,31.93 114.55,17.15 44.59,-21.98 63.22,-70.17 60.18,-102.94 8.5,7.83 11.47,24.97 14.82,41.24 6.17,23.46 21.59,39.72 45.9,46.07 -16.3,-54.54 27.44,-54.54 38.24,-97.44 12.45,-52.21 -13.3,-88.93 -47.56,-107.56 24.94,-16.47 36.76,-46.07 21.77,-87.45 -10.8,-30.27 -49,-52.88 -77.97,-46.71 28.97,27.27 13.3,62.33 -17.14,60.85 -38.24,-1.51 -74.79,-49.21 -124,-78 -56.02,-30.44 -97.4,-35.06 -151.17,-74.82 36.59,-3.14 65.55,9.31 85.66,35.1 6.31,-57.04 -42.72,-77.96 -74.83,-99.76 -64.66,-45.37 6.32,-149.79 56.2,-162.25 70.84,-19.47 117.72,24.91 110.7,77.12 -7.76,59.34 -64.66,43.71 -90.41,32.07 0,33.44 30.23,56.05 42.89,60.68 14.64,7.02 41.56,10.65 65.83,0.35 -0.81,5.82 -1.83,12.13 -1.83,13.83 -4.77,50.69 -32.07,55.35 -22.76,76.27 13.3,15.66 100.58,12.49 124,17.32 41.42,5.47 76.52,20.95 116.24,28.75 44.42,9.31 91.94,9.31 131.87,25.79 25.58,10.97 54.51,31.89 79.45,44.38 38.1,6.31 31.93,21.8 56.2,21.8 21.76,0 30.26,-18.63 58.38,-26.46 19.44,-4.62 41.21,3.14 60.64,-3.14 14.19,-3.17 20.46,-17.81 33.76,-25.61 15.67,-9.49 37.43,-9.49 52.25,-22.79 7.8,-6.84 9.28,-20.14 8.11,-29.42l0.32 2.15c29.78,-20.95 52.35,-51.36 64.88,-86.61 7.79,-1.51 13.93,-8.5 13.93,-16.29l0 -3c7.83,-6.35 12.49,-15.81 12.49,-24.94 0,-11.82 -4.66,-21.1 -12.49,-28.93l0 -3.18c0,-6.14 -3.14,-10.79 -6.14,-14.78 -12.45,-67.84 -64.02,-122.38 -130.35,-139.52l0 -3.14 -1.48 0c0,-3.14 -1.52,-4.8 -3.84,-4.8 -9.49,-9.31 -20.47,-23.95 -21.77,-33.44 10.79,3.17 28.75,20.28 38.06,27.27l0 -89.61c-9.31,6.99 -27.27,24.13 -38.06,27.27 1.3,-11.01 18.45,-30.44 27.09,-38.24l-91.12 0c8.54,7.8 25.61,27.23 27.13,38.24 -10.83,-3.14 -28.79,-20.28 -38.07,-27.27l0 89.61c9.28,-6.99 27.24,-24.1 38.07,-27.27 -1.52,10.97 -18.59,30.41 -27.13,38.24l3.18 1.51c-67.84,15.6 -122.52,71.83 -135.01,141.15 -4.66,3.99 -7.83,8.64 -7.83,14.78l0 3.18c-7.8,7.83 -12.46,17.11 -12.46,28.93 0,9.13 4.66,18.59 12.46,24.94l0 3c0,10.12 6.35,14.78 14,16.29 3.18,8.65 6.95,17.29 10.94,25.09 0,-0.82 0,-0.82 1.02,-1.66 -5.64,25.79 -36.76,41.38 -43.78,41.38 -55.49,7.83 -117.02,-15.59 -173.21,-36.55 -24.77,-9.49 -58.35,-20.28 -74.83,-44.55 -10.12,-17.61 -14.43,-28.79 -9.28,-44.42 6.14,7.83 16.44,16.48 30.41,24.1 1.52,-7.62 1.52,-16.27 4.52,-22.58 14.25,21.09 36.72,31.92 63.96,30.41 -16.27,-13.94 -24.06,-50.7 -16.27,-82.62 22.62,38.24 108.41,46.07 124.04,-22.62 -32.1,14.96 -52.39,-1.48 -58.52,-18.62 -9.49,-27.45 21.76,-93.77 -6.32,-145.14 -22.65,-38.1 -48.19,-61.52 -108.23,-70.83 4.62,-7.17 6.14,-13.48 7.62,-24.27 -55.18,20.28 -102.94,4.65 -125.52,-39.76 10.97,4.65 27.27,6.35 42.9,6.35 -49.04,-39.9 -46.04,-152.97 -10.8,-211.35 4.66,-3.14 6.14,-6.32 10.8,-7.8 10.79,21.77 42.9,21.77 59.16,39.76 6.35,-6.35 9.49,-7.83 15.84,-13.34 0,0 1.34,92.82 7.62,131.03 6.14,42.89 47.73,38.24 68.68,57.04 24.95,-27.45 70.17,-25.96 63.19,-73.48 -6.32,-47.42 -15.63,-90.28 -17.15,-122.38 13.97,28.93 41.24,137.3 52.25,168.41 17.78,46.08 62.3,32.11 87.28,50.06 16.44,-32.1 57.67,-41.41 41.2,-89.81 -4.62,-12.46 -72.32,-155.12 -82.44,-182.53 24.09,35.24 89.6,160.76 109.89,195.86 22.61,36.58 63.85,18.63 93.45,27.91 5.64,-26.43 45.36,-56.84 16.47,-102.73 -36.58,-60.89 -122.41,-166.94 -127.07,-181.72 17.15,16.26 150.32,181.72 160.62,191 31.12,27.3 76.31,6.17 102.91,6.17 0,-30.27 24.13,-64.67 -10.76,-99.77 -32.14,-30.41 -105.45,-82.62 -120.9,-100.57 48.86,33.58 106.71,87.31 141,95.92 60.82,15.62 82.63,-8.61 105.38,-17.96 -18.77,-55.35 6.17,-80.96 -122.52,-134.83 111.41,39.76 160.58,20.14 200.34,-10.97 -15.63,-39.73 -55.35,-73.17 -87.45,-84.14 67.98,1.52 113.24,-28.89 142.84,-68.65 -24.98,-33.41 -74.86,-57.72 -131.69,-63.82 84.1,-12.49 151.13,-64.87 158.96,-125.73z"/>
   <polygon class="fil0" points="5647.36,585.57 5668.32,372.24 5660.7,372.24 5578.82,556.99 5207.31,1147.51 5150.19,1147.51 4759.67,555.09 4681.56,374.11 4672.07,374.11 4702.55,583.66 4702.55,1444.69 4523.48,1444.69 4523.48,111.26 4666.32,111.26 5117.81,791.31 5188.26,936.09 5192.1,936.09 5258.74,787.5 5687.37,111.26 5837.86,111.26 5837.86,1444.69 5647.36,1444.69 "/>
   <polygon class="fil0" points="6773.15,873.21 6799.82,675.09 6778.86,675.09 6685.55,861.78 6216.92,1444.68 6081.67,1444.68 6081.67,444.62 6256.93,444.62 6256.93,1035.14 6243.59,1210.4 6264.55,1210.4 6352.14,1040.85 6811.25,444.62 6948.41,444.62 6948.41,1444.68 6773.15,1444.68 "/>
   <polygon class="fil0" points="7868.48,1008.47 7365.6,1008.47 7365.6,1444.68 7190.34,1444.68 7190.34,444.62 7365.6,444.62 7365.6,852.26 7868.48,852.26 7868.48,444.62 8043.74,444.62 8043.74,1444.68 7868.48,1444.68 "/>
   <polygon class="fil0" points="9280.01,1696.13 9161.9,1696.13 9129.51,1444.7 8285.63,1444.7 8285.63,444.61 8460.89,444.61 8460.89,1296.11 8942.82,1296.11 8942.82,444.61 9118.08,444.61 9118.08,1296.11 9280.01,1296.11 "/>
   <polygon class="fil0" points="10083.85,873.21 10110.52,675.09 10089.57,675.09 9996.26,861.78 9527.63,1444.68 9392.37,1444.68 9392.37,444.62 9567.63,444.62 9567.63,1035.14 9554.3,1210.4 9575.25,1210.4 9662.85,1040.85 10121.95,444.62 10259.11,444.62 10259.11,1444.68 10083.85,1444.68 "/>
   <path class="fil0" d="M11285.84 566.53c-20.32,0 -37.46,0.67 -51.43,1.91 -13.97,1.27 -31.75,5.08 -53.34,11.43l0 742.91c19.01,3.81 37.78,6.04 56.2,6.67 18.41,0.67 38.38,0.95 59.97,0.95 93.98,0 164.46,-34.92 211.45,-104.77 46.96,-69.82 70.49,-170.18 70.49,-300.99 0,-54.58 -5.08,-104.11 -15.24,-148.59 -10.16,-44.42 -26.67,-82.2 -49.53,-113.31 -22.86,-31.12 -53.02,-54.93 -90.49,-71.44 -37.43,-16.51 -83.5,-24.77 -138.08,-24.77zm-386.71 763.87c16.51,0 33.34,-0.63 50.48,-1.9 17.15,-1.27 38.42,-4.45 63.82,-9.53l0 -739.1c-22.86,-5.08 -41.91,-8.57 -57.15,-10.48 -15.21,-1.9 -33.02,-2.86 -53.34,-2.86 -91.41,0 -162.24,30.8 -212.37,92.4 -50.2,61.59 -75.29,157.12 -75.29,286.66 0,54.61 5.44,105.45 16.2,152.4 10.79,46.99 27.94,87.63 51.43,121.92 23.5,34.29 53.02,61.28 88.58,80.97 35.56,19.72 78.11,29.52 127.64,29.52zm110.49 120.02c-30.48,10.12 -59.37,16.19 -86.68,18.06 -27.34,1.94 -51.75,2.86 -73.34,2.86 -132.08,0 -234,-43.46 -305.72,-130.46 -71.75,-86.99 -107.63,-218.72 -107.63,-395.29 0,-166.33 39.33,-294.6 118.11,-384.77 78.7,-90.17 193,-135.26 342.86,-135.26 17.78,0 35.88,0.64 54.3,1.91 18.41,1.27 37.78,4.48 58.1,9.52l0 -325.75 175.26 0 0 327.66c32.98,-6.35 60.29,-10.16 81.91,-11.43 21.56,-1.27 40.61,-1.91 57.15,-1.91 143.48,0 251.75,39.37 324.77,118.11 72.99,78.74 109.54,205.74 109.54,380.97 0,81.31 -9.88,155.61 -29.53,222.88 -19.72,67.31 -48.26,124.78 -85.72,172.41 -37.47,47.62 -83.82,84.77 -139.03,111.44 -55.28,26.67 -117.83,39.97 -187.68,39.97 -13.97,0 -34.26,-1.59 -60.93,-4.73 -26.67,-3.21 -50.2,-7.97 -70.48,-14.32l0 373.38 -175.26 0 0 -375.25z"/>
   <path class="fil0" d="M12377.36 564.62c-75.68,0 -134.94,19.05 -177.84,57.15 -42.9,38.1 -73.8,96.52 -92.67,175.26l0 460.98c28.96,20.32 60.53,36.19 94.58,47.62 34.07,11.43 77.57,17.15 130.56,17.15 102.13,0 182.21,-33.62 240.24,-100.97 58.03,-67.27 87.03,-167.64 87.03,-300.95 0,-107.95 -21.45,-194.31 -64.31,-259.08 -42.9,-64.77 -115.43,-97.16 -217.59,-97.16zm-445.77 -120.01l118.11 0 34.29 127.63 17.14 0c34.29,-49.53 78.71,-87.91 133.32,-115.25 54.61,-27.31 116.2,-40.96 184.78,-40.96 144.78,0 252.73,40.36 323.85,120.97 71.12,80.64 106.68,209.23 106.68,385.73 0,83.82 -11.75,159.73 -35.24,227.64 -23.5,67.95 -57.19,125.73 -100.97,173.36 -43.81,47.62 -97.15,84.14 -160.02,109.54 -62.86,25.36 -133.03,38.1 -210.5,38.1 -25.4,0 -48.58,-0.96 -69.5,-2.86 -20.95,-1.91 -40.35,-5.08 -58.1,-9.53 -17.81,-4.48 -35.59,-9.52 -53.37,-15.24 -17.75,-5.71 -36.16,-12.38 -55.21,-20l0 401.92 -175.26 0 0 -1381.05z"/>
   <path class="fil0" d="M13996.48 444.61l175.26 0 0 1000.09 -175.26 0 0 -1000.09zm-782.89 851.5c52.81,7.62 106.93,11.43 162.28,11.43 90.59,0 154.13,-15.88 190.64,-47.63 36.48,-31.75 54.72,-76.83 54.72,-135.25 0,-50.76 -17.93,-93.35 -53.8,-127.64 -35.88,-34.25 -97.79,-51.43 -185.88,-51.43 -23.92,0 -50.63,0.99 -80.22,2.86 -29.6,1.9 -58.81,6.07 -87.74,12.38l0 335.28zm0 -468.59c40.61,-6.35 78.35,-10.48 113.35,-12.42 34.89,-1.87 66.36,-2.86 94.3,-2.86 73.59,0 135.5,7.66 185.7,22.86 50.16,15.24 90.49,36.19 120.97,62.9 30.48,26.63 52.03,58.1 64.77,94.26 12.66,36.2 19.05,75.25 19.05,117.16 0,120.69 -36.87,208.6 -110.49,263.84 -73.66,55.25 -193.68,82.87 -360.05,82.87 -53.34,0 -104.77,-0.67 -154.27,-1.91 -49.53,-1.27 -99.09,-3.81 -148.59,-7.62l0 -1001.99 175.26 0 0 382.91z"/>
   <path class="fil0" d="M4889.2 1783.79c-34.29,0 -67.59,0.64 -99.98,1.87 -32.38,1.23 -57.5,4.41 -75.28,9.42l0 505.07c6.35,2.51 16.86,4.09 31.47,4.73 14.57,0.63 29.81,1.52 45.72,2.79 15.84,1.23 31.11,1.86 45.72,1.86l33.3 0c45.75,0 90.8,-3.42 135.25,-10.33 44.45,-6.85 84.78,-20.32 120.97,-40.36 36.2,-20.04 65.41,-48.19 87.63,-84.49 22.19,-36.3 33.34,-83.26 33.34,-140.83 0,-50.06 -10.8,-91.37 -32.39,-123.93 -21.62,-32.53 -49.53,-58.17 -83.82,-76.98 -34.29,-18.76 -72.7,-31.6 -115.25,-38.52 -42.54,-6.84 -84.77,-10.3 -126.68,-10.3zm-365.73 -137.16c53.34,-11.43 111.45,-19.37 174.28,-23.81 62.86,-4.41 124.77,-6.67 185.77,-6.67 64.77,0 130.46,5.72 197.13,17.15 66.68,11.43 127.32,32.38 181.93,62.86 54.57,30.48 99.34,72.71 134.3,126.68 34.93,53.98 52.39,123.51 52.39,208.6 0,80.01 -15.91,148.27 -47.66,204.75 -31.75,56.52 -73.94,102.55 -126.65,138.11 -52.74,35.56 -113.06,61.6 -180.97,78.11 -67.95,16.51 -138.08,24.76 -210.47,24.76 -7.66,0 -19.4,-0.31 -35.24,-0.95 -15.91,-0.63 -32.39,-1.27 -49.53,-1.9 -17.18,-0.64 -33.69,-1.59 -49.57,-2.86 -15.87,-1.23 -27.59,-2.54 -35.24,-3.81l0 499.07 -190.47 0 0 -1320.09z"/>
   <path class="fil0" d="M5683.57 2467.64c0,47.02 5.32,93.06 15.98,138.11 10.65,45.09 27.87,85.41 51.71,120.97 23.82,35.56 54.54,64.13 92.15,85.69 37.64,21.62 84,32.38 139.21,32.38 195.58,0 293.37,-125.69 293.37,-377.15 0,-49.53 -5.3,-97.16 -15.98,-142.88 -10.66,-45.72 -27.59,-86 -50.8,-120.96 -23.22,-34.89 -53.59,-63.15 -91.23,-84.74 -37.61,-21.59 -82.73,-32.39 -135.36,-32.39 -97.83,0 -172.09,31.44 -222.89,94.3 -50.76,62.83 -76.16,158.43 -76.16,286.67zm-190.47 0c0,-82.52 10.73,-156.49 32.39,-221.93 21.55,-65.37 53.3,-120.94 95.21,-166.66 41.91,-45.72 92.99,-80.64 153.32,-104.77 60.32,-24.1 129.26,-36.2 206.73,-36.2 81.24,0 152.36,13.34 213.36,40.01 60.92,26.67 111.72,63.82 152.36,111.44 40.61,47.63 70.8,103.51 90.45,167.61 19.72,64.17 29.53,134.3 29.53,210.5 0,81.28 -11.11,154.3 -33.3,219.07 -22.26,64.77 -53.98,120.02 -95.25,165.74 -41.28,45.72 -92.08,80.64 -152.37,104.74 -60.36,24.13 -128.62,36.19 -204.78,36.19 -83.82,0 -156.21,-13.33 -217.17,-39.97 -60.96,-26.67 -111.45,-63.5 -151.45,-110.49 -40.01,-46.99 -69.85,-102.55 -89.5,-166.68 -19.72,-64.1 -29.53,-133.64 -29.53,-208.6z"/>
   <path class="fil0" d="M7426.55 2898.16c-44.49,31.75 -96.52,55.56 -156.21,71.43 -59.69,15.88 -122.56,23.82 -188.56,23.82 -83.82,0 -155.3,-12.74 -214.35,-38.1 -59.02,-25.4 -107,-60.96 -143.79,-106.68 -36.87,-45.72 -63.54,-100.97 -80.01,-165.74 -16.51,-64.73 -24.77,-136.49 -24.77,-215.26 0,-168.88 40.96,-299.34 122.87,-391.45 81.92,-92.07 199.68,-138.11 353.35,-138.11 67.31,0 125.73,6.07 175.26,18.1 49.56,12.1 93.94,26.99 133.35,44.77l-45.44 142.87c-34.04,-17.78 -70.94,-31.71 -110.74,-41.91 -39.76,-10.16 -82.97,-15.24 -129.61,-15.24 -205.7,0 -308.54,127 -308.54,380.97 0,48.29 5.65,94.96 17.01,140.01 11.39,45.09 29.66,85.13 54.92,120.02 25.26,34.96 58.35,63.18 99.38,84.77 40.99,21.63 91.19,32.39 150.53,32.39 53.02,0 99.38,-7.31 139.14,-21.91 39.75,-14.57 72.92,-32.07 99.44,-52.39l56.77 127.64z"/>
   <path class="fil0" d="M8314.24 2898.16c-44.48,31.75 -96.52,55.56 -156.21,71.43 -59.69,15.88 -122.55,23.82 -188.55,23.82 -83.82,0 -155.3,-12.74 -214.35,-38.1 -59.02,-25.4 -107,-60.96 -143.79,-106.68 -36.87,-45.72 -63.54,-100.97 -80.01,-165.74 -16.51,-64.73 -24.77,-136.49 -24.77,-215.26 0,-168.88 40.96,-299.34 122.87,-391.45 81.92,-92.07 199.67,-138.11 353.34,-138.11 67.31,0 125.73,6.07 175.26,18.1 49.57,12.1 93.95,26.99 133.35,44.77l-45.43 142.87c-34.05,-17.78 -70.95,-31.71 -110.74,-41.91 -39.76,-10.16 -82.97,-15.24 -129.61,-15.24 -205.71,0 -308.54,127 -308.54,380.97 0,48.29 5.64,94.96 17,140.01 11.4,45.09 29.67,85.13 54.93,120.02 25.26,34.96 58.35,63.18 99.38,84.77 40.99,21.63 91.19,32.39 150.53,32.39 53.02,0 99.38,-7.31 139.13,-21.91 39.76,-14.57 72.92,-32.07 99.45,-52.39l56.76 127.64z"/>
   <polygon class="fil0" points="9182.85,2395.26 9209.52,2197.14 9188.57,2197.14 9095.26,2383.83 8626.63,2966.72 8491.37,2966.72 8491.37,1966.67 8666.63,1966.67 8666.63,2557.18 8653.3,2732.44 8674.25,2732.44 8761.85,2562.9 9220.95,1966.67 9358.11,1966.67 9358.11,2966.72 9182.85,2966.72 "/>
   <polygon class="fil0" points="10308.64,2395.26 10335.31,2197.14 10314.36,2197.14 10221.05,2383.83 9752.42,2966.72 9617.16,2966.72 9617.16,1966.67 9792.42,1966.67 9792.42,2557.18 9779.09,2732.44 9800.04,2732.44 9887.64,2562.9 10346.74,1966.67 10483.9,1966.67 10483.9,2966.72 10308.64,2966.72 "/>
   <polygon class="fil1" points="3719.07,825.01 3534.22,825.01 3534.22,111.62 3719.07,111.62 "/>
   <polygon class="fil2" points="3719.07,1538.4 3534.22,1538.4 3534.22,825.01 3719.07,825.01 "/>
   <polygon class="fil3" points="3719.07,2251.75 3534.22,2251.75 3534.22,1538.4 3719.07,1538.4 "/>
   <polygon class="fil4" points="3719.07,2965.1 3534.22,2965.1 3534.22,2251.75 3719.07,2251.75 "/>
  </g>
 </g>
</svg>
