<?xml version="1.0" encoding="UTF-8"?>
<!DOCTYPE svg PUBLIC "-//W3C//DTD SVG 1.1//EN" "http://www.w3.org/Graphics/SVG/1.1/DTD/svg11.dtd">
<!-- Creator: CorelDRAW 2020 (64-Bit) -->
<svg xmlns="http://www.w3.org/2000/svg" xml:space="preserve" width="138mm" height="36mm" version="1.1" style="shape-rendering:geometricPrecision; text-rendering:geometricPrecision; image-rendering:optimizeQuality; fill-rule:evenodd; clip-rule:evenodd"
viewBox="0 0 13800 3600"
 xmlns:xlink="http://www.w3.org/1999/xlink"
 xmlns:xodm="http://www.corel.com/coreldraw/odm/2003">
 <defs>
  <style type="text/css">
   <![CDATA[
    .fil1 {fill:#04245D}
    .fil2 {fill:#DB1D36}
    .fil0 {fill:#FEFEFE}
   ]]>
  </style>
 </defs>
 <g id="Слой_x0020_1">
  <metadata id="CorelCorpID_0Corel-Layer"/>
  <g id="_2422088563664">
   <polygon class="fil0" points="22.99,3552.93 13765.27,3552.93 13765.27,52.93 22.99,52.93 "/>
   <path class="fil1" d="M1832.29 803.54l-0.67 -86.45 -204.42 0.02 0.02 1210.98 211.12 0.01 -0.03 -440.23c48.69,68.47 109.02,97.39 201.42,106.82 253.76,25.9 484.46,-170.15 481.71,-455.19 -1.86,-192.4 -111.71,-332.74 -230.49,-394.41 -110.51,-57.38 -261.19,-73.83 -378.03,-14.21 -27.48,14.02 -69.67,45.78 -80.63,72.66z"/>
   <path class="fil1" d="M4881.57 803.01l-0.17 -85.95 -204.52 0.2 0.04 1210.3 209.24 0.55c9.83,-38.42 -4.66,-356.19 2.82,-440.23 24.97,34.16 34.89,50.29 79.92,72.48 122.29,60.28 265.29,43.04 377.25,-18.54 216.76,-119.23 293.93,-422.05 157.66,-641.89 -87.63,-141.39 -241.48,-220.66 -414.36,-204.04 -45.45,4.37 -88.1,15.45 -124.16,33.28 -45.37,22.43 -56.85,39.31 -83.72,73.84z"/>
   <path class="fil1" d="M4041.45 695.39c-239.29,20.61 -432.88,224.75 -413.3,489.04 17.56,236.94 228.46,432.62 490.45,411.02 237.49,-19.58 433.34,-226.89 410.66,-490.94 -20.06,-233.44 -227.84,-431.51 -487.81,-409.12z"/>
   <path class="fil2" d="M10386.36 700.7c-235.16,31.92 -418.97,233.49 -385.14,507.91 28.48,231.11 240.46,417.84 509.56,382.42 234.23,-30.83 419.81,-234.9 385.69,-507.36 -29.1,-232.34 -239.65,-419.68 -510.11,-382.97z"/>
   <path class="fil2" d="M11991.34 700.4c-235.44,32.45 -421.97,232.3 -387.28,506.72 29.39,232.5 238.7,418.58 509.69,383.94 233.81,-29.89 418.29,-233.81 386.1,-505.65 -27.32,-230.76 -240.47,-421.94 -508.51,-385.01z"/>
   <path class="fil1" d="M8228.08 1279.4c-109.79,149.09 -495.48,145.34 -509.52,-57.26l634.73 -1.04c13.99,-137.07 -14.04,-255.8 -77.72,-348.66 -207.66,-302.84 -685.2,-208.83 -764.13,173.77 -27.35,132.55 0.76,262.08 60.55,355.66 149.51,233.98 533.42,261.86 702.97,66.74 6.83,-7.86 20.09,-20.16 16.94,-34.08 -3.29,-14.56 -58.29,-148.46 -63.82,-155.13z"/>
   <path class="fil1" d="M5721.34 1573.81l210.09 -0.04 288.86 -383.78c15.44,-20.39 87.52,-119.87 98.28,-127.2l-0.01 510.99 207.78 0 -0.01 -856.69 -206.83 0.02c-12.27,3.19 -323.26,424.01 -363.37,476.97 -9.1,12.01 -16.2,23.95 -27.7,32.75l-0.51 -509.29 -205.03 -0.45c-2.97,7.9 -7.85,807.83 -1.55,856.72z"/>
   <path class="fil1" d="M2671.05 1572.86l210.68 1 336.66 -446.45c15.09,-19.97 34.14,-48.55 50.4,-64.4l0.64 510.32 206.87 0.2 0.94 -855.78 -213.18 -0.53c-7.2,15.3 -78.58,106.67 -94.67,127.84l-289.32 383.72 -1.24 -511.7 -207.8 0.19 0.02 855.59z"/>
   <path class="fil1" d="M632.37 1560.89l0.81 12.93 209.74 -0.09 0.71 -632.05 369.91 -0.01 0.66 632.02 210.43 0.06 0.74 -855.18c-35.15,-4.83 -698.89,-1.5 -793.02,-1.46l0.02 843.78z"/>
   <path class="fil2" d="M10987.17 912.28l235.12 1.31 -132.99 168.78c-15.8,18.32 -10.86,23.19 -4.81,49.4 5.21,22.54 14.31,81.07 23.57,97.87 47.37,-14.96 110.97,-42.92 175.51,-7.93 88.12,47.78 55.17,221.21 -164.21,167.64 -77.49,-18.93 -120.24,-78.63 -133.19,-85.51 -8.19,16.32 -44.03,148.21 -40.29,161.14 10.96,37.86 70.72,83.27 108.93,100.45 202.39,91 485.88,-25.54 458.28,-305.72 -6.04,-61.34 -28.5,-109.25 -59.48,-145.33 -12.59,-14.68 -35.26,-35.58 -57.1,-47.43 -24.87,-13.49 -67.65,-28.44 -72.82,-31.93l127.46 -158.42c14.27,-16.64 16.24,-15 16.04,-43.44 -0.27,-38.63 0.03,-77.27 -0.21,-115.9l-479.78 -0.13 -0.03 195.15z"/>
   <path class="fil2" d="M9429.45 1003.2c14.26,-12.79 36.04,-59.69 88.82,-88.32 108.38,-58.78 221.86,3.08 182.22,112.56 -15.25,42.14 -62.93,94.06 -93.3,126.19l-191.81 208.67c-7.58,8.58 -14.93,14.07 -22.43,22.72 -7.79,9 -12.91,15.92 -20.97,24.46 -18.34,19.46 -11.93,27.38 -11.93,74.79 0,26.29 -2.21,64.39 1.09,89.21l548.06 0.37 1.18 -196.4 -266.37 -0.11c24.59,-41.49 141.96,-146.59 206.68,-255.43 68.13,-114.54 54.16,-264.15 -27.41,-348.35 -118.74,-122.58 -384.95,-102.68 -460.35,76.52 -13.02,30.93 -5.65,33.97 21.87,79.91 10.36,17.3 34.2,62.71 44.65,73.21z"/>
   <polygon class="fil1" points="8452.5,941.67 8715.9,941.67 8716.88,1572.83 8926.88,1573.84 8927.99,941.64 9192.27,941.63 9192.26,717.64 8452.49,717.11 "/>
   <path class="fil1" d="M6666.88 941.66c64.69,0.01 208.07,-2.52 263.9,0.72l0.44 631.43 209.74 -0.01 1.33 -631.47c54.23,-3.3 200.74,-0.69 264.27,-0.66l-0.01 -224.59 -739.68 0.03 0.01 224.55z"/>
   <path class="fil0" d="M10399.79 897.09c-338.27,58.45 -256.7,553.5 96.12,497.22 132.63,-21.15 241,-134.68 213.12,-295.25 -22.75,-130.99 -148.72,-229.7 -309.24,-201.97z"/>
   <path class="fil0" d="M12027.75 894.34c-141.7,12.12 -252.66,119.32 -239.08,274.77 28.72,328.75 558.78,293.52 526.29,-48.74 -13.24,-139.41 -132.23,-239.28 -287.21,-226.03z"/>
   <path class="fil2" d="M2729.38 2474.53l-0.14 -39.68 -101.09 -0.15 -0.14 599.39 104.42 0.26 0.24 -216.09c28.36,28.44 43.82,45.74 101.04,51.13 50.52,4.75 87.2,-5.88 125.68,-26.3 145.34,-77.1 150.37,-311.51 1.03,-392.36 -62.44,-33.8 -154.28,-41.09 -211.88,3.89 -10.4,8.13 -10.26,12.39 -19.16,19.91z"/>
   <path class="fil0" d="M5064.4 921.4c-67.56,9.44 -120.31,36.74 -155.13,75.45 -25.81,28.7 -21.16,47.78 -21.16,93.89 0,38.31 0,76.62 0,114.93 -0.01,50.92 -4.98,58.93 23.93,90.98 60.02,66.51 173.44,88.47 265.09,69.11 280.79,-59.32 230.01,-492.25 -112.73,-444.36z"/>
   <path class="fil0" d="M2013.94 921.55c-65.23,9.32 -127.2,39.94 -154.77,76.07 -27.43,35.95 -20.87,39.57 -20.87,93.12 0.01,38.31 0.01,76.62 0.01,114.93 -0.01,68.8 6.65,96.19 90.26,138.7 54.41,27.67 132.21,35.25 198.06,21.35 283.83,-59.92 229.11,-493.01 -112.69,-444.17z"/>
   <path class="fil2" d="M1646.4 2747.66l-42.93 0.09 -0.12 223.85 101.17 0 0.14 -112.43 275.45 -0.21 0.13 112.51 101.06 0.24 0.17 -223.74 -58.38 -0.38 -0.78 -312.81 -306.13 -0.08c-1.74,104.54 -9.25,226.78 -69.78,312.96z"/>
   <path class="fil0" d="M4039.87 921.05c-122.23,17.64 -218.91,118.07 -197.66,261.62 18,121.59 132.13,205.59 273.66,187.42 120.63,-15.48 220.53,-119.47 199.69,-260.41 -17.7,-119.66 -134.17,-209.06 -275.69,-188.63z"/>
   <path class="fil2" d="M6870.16 2426.9c-110.61,20.52 -204.81,121.58 -181.94,259.63 17.99,108.61 125.93,203.68 258.61,180.79 111.32,-19.2 205.94,-123.78 182.65,-260.1 -18.55,-108.55 -126.51,-204.96 -259.32,-180.32z"/>
   <path class="fil2" d="M3574.7 2858.65l104.82 -3.02 38.76 -217.73 99.33 221.14 83.55 -0.16c5.95,-13.02 88.6,-208.04 99.6,-219.24l36.05 216.55c17.45,8.51 78.66,2.88 102.38,2.69l-64.55 -421.85c-17.72,-5.54 -80.47,-2.84 -102.41,-2.01l-116.87 266.71c-3.49,-2.78 -3.86,-2.87 -6.45,-7.2l-55.64 -125.78c-18.64,-43.45 -42.44,-89.96 -58.14,-133.54 -20.98,-1.18 -77.64,-3.76 -95.01,1.88l-65.42 421.56z"/>
   <path class="fil2" d="M2485.18 2715.07c-40.48,34.63 -76.07,52.56 -139.44,49.65 -60.39,-2.77 -103.23,-26 -112.02,-80.21l312.52 -0.2c24.93,-83.85 -36,-233.52 -164.2,-257.73 -270.1,-51.03 -366.12,360.45 -97.22,435.09 61.23,17 127.77,9.7 177.72,-17.39 17.29,-9.38 53.99,-34.17 53.82,-53.64 -0.1,-10.73 -25.64,-69.77 -31.18,-75.57z"/>
   <path class="fil2" d="M7211.04 2858.95c106.94,0 330.7,31.41 338.83,-120.74 3.02,-56.46 -22.15,-84.53 -52.29,-105.7 9.16,-19.07 38.67,-37.97 27.44,-100.62 -22.18,-123.76 -204.03,-97.21 -313.9,-97.21l-0.08 424.27z"/>
   <path class="fil2" d="M5787.73 2581.76c51.71,-64.99 214.71,-91.51 216.57,36.21 -33.02,-13.37 -39.91,-23.15 -85.21,-25.58 -33.81,-1.82 -67.45,2.9 -95.97,14.83 -160.04,66.94 -85.69,301.28 108.91,258.84 56.45,-12.31 56.06,-29.66 75.45,-39.19l0.36 30.93 100.53 1.03c5.79,-71.83 0.54,-165.91 0.61,-239.24 0.07,-83.82 -19.49,-136.07 -74.02,-168.15 -100.46,-59.11 -244.35,-13.75 -271.71,40.41 -5.74,11.38 15.17,80.67 24.48,89.91z"/>
   <path class="fil2" d="M3167.69 2581.82c11.45,-5.84 12.05,-10.4 23.04,-19.36 27.27,-22.24 64.31,-33.91 102.4,-33.8 61.74,0.17 94.56,28.08 95.43,89.47 -33.21,-14.18 -40.12,-23.26 -84.9,-25.72 -33.85,-1.86 -67.46,2.86 -96.09,14.68 -50,20.66 -90.23,63.9 -86.03,134.54 3.87,65.17 46.12,104.7 99.18,120.99 104.38,32.07 159.28,-30.24 171.08,-36.08l0.35 31.44 100.6 0.79c4.8,-75.01 0.37,-163.73 0.47,-239.18 0.11,-83.89 -19.03,-135.39 -73.91,-167.97 -67.64,-40.15 -169.68,-38.16 -237.79,7.61 -7.16,4.81 -27.43,22.89 -32.58,30.35 -10.95,15.85 14.17,70.21 18.75,92.24z"/>
   <path class="fil2" d="M4225.75 2858.86c23.11,0.28 45.01,-0.01 66.9,0.1 52.88,0.27 32.71,5.61 110.67,-97.36 39.47,-52.13 77.74,-103.68 117.76,-154.61l0.93 251.61 102.78 0.21 0 -424.02 -102.3 -0.09c-9.84,3.51 -178.93,241.29 -193.92,251.01l-0.1 -250.91 -102.6 -0.1 -0.12 424.16z"/>
   <path class="fil2" d="M1140.07 2858.84c23.16,0.3 45.09,0 67.01,0.12 35.46,0.18 34.22,5.27 50.93,-17.76l177.46 -234.16 0.94 251.82 101.28 0.08 1.43 -424.15 -106.01 -0.06c-6.23,12.79 -183.26,246.33 -190.14,251.01l-0.18 -250.95 -102.6 -0.09 -0.12 424.14z"/>
   <path class="fil2" d="M7683.81 2716.99c-9.35,22.8 -86.8,121.7 -92.79,141.89l118.15 0.07c23.37,-28.73 67.66,-105.36 88.13,-126.07l31.33 0.19 1.6 125.82 103.5 -0.05 0.8 -423.14c-43.58,-5.02 -123.67,-2.02 -169.86,-0.95 -110.95,2.55 -172.95,82.97 -155.08,183.29 10.07,56.61 39.14,75.01 74.22,98.95z"/>
   <path class="fil2" d="M8924.05 2717.11c-10.47,27.97 -79.88,111.98 -92.18,141.41l119.12 0.39c15,-19.17 27.64,-41.05 42.37,-62.48 12.83,-18.66 33.35,-45.05 41.03,-63.28l36.61 -0.17 0.21 125.6 103.28 0.39 1.19 -424.14c-55.77,-0.95 -115.74,-1.59 -171.18,-0.07 -106.87,2.94 -171.47,80.61 -153.78,182.32 9.67,55.62 37.17,73.89 73.33,100.03z"/>
   <polygon class="fil2" points="6211.85,2858.64 6315.14,2858.95 6316.38,2697.01 6501.43,2696.62 6502.34,2857.68 6606.36,2858.83 6606.96,2436.58 6502.32,2434.87 6502.22,2585.3 6316.41,2585.37 6316.24,2434.91 6211.94,2434.74 "/>
   <path class="fil2" d="M12589.51 913.29l151.88 0.84c24.75,0 18.75,1.15 41.64,-39.48 16.15,-28.66 79.12,-141.82 90.86,-152.87l110.39 191.79 169.67 0.6c-5.23,-16.63 -151.66,-267.56 -175.52,-307.73 -26.81,-45.11 -5.08,-34.94 -143.01,-34.93l-49.78 0.08 -196.13 341.7z"/>
   <path class="fil2" d="M635.84 2858.97l123.72 -0.15 98.42 -244.9c17.35,17.45 79.23,205.77 101.79,244.99l124.06 0.17 -86.36 -210.97c-14.6,-35.13 -28.94,-69.5 -43.81,-105.94 -8.85,-21.66 -35.35,-92.76 -46.1,-106.59l-99.03 -0.96c-13.72,38.66 -170.56,405.86 -172.69,424.35z"/>
   <path class="fil2" d="M8757.31 2709.49c-20.16,12.35 -29.99,28.44 -61.49,40.1 -75.58,27.96 -181.83,-2.43 -182.64,-102.13 -0.89,-109.08 137.62,-158.66 243.4,-63.72 9.12,-20.05 18.72,-50.69 25.44,-72.16 7.79,-24.87 -19.18,-43.67 -38.05,-56.21 -127.31,-84.55 -341.36,-0.47 -337.86,195.66 3.36,188.87 211.65,272.19 341.89,185.58 16.36,-10.88 45.29,-29.6 37.96,-53.6 -6.94,-22.74 -16.21,-56.18 -28.65,-73.52z"/>
   <path class="fil2" d="M5258.37 2708.34c-40.99,30.71 -72.74,61.72 -148.29,48.48 -126.99,-22.25 -129.69,-192.65 -7.38,-218.76 69.48,-14.84 121.09,13.16 153.92,45.46 7.92,-16.16 19.47,-51.85 25.78,-71.66 14.76,-46.28 -104.86,-105.48 -202.45,-83.51 -237.56,53.47 -226.23,394.83 6.87,438.23 98.84,18.4 214.37,-39.45 198.47,-86.49 -6.3,-18.65 -19.03,-57.17 -26.92,-71.75z"/>
   <path class="fil2" d="M8002.81 2544.86l130.71 1.23 0.2 312.74 103.5 0.08 1.05 -312.76 130.5 -0.42 0.35 -109.2c-17.95,-4.22 -342.08,-4.44 -366.3,-0.52l-0.01 108.85z"/>
   <polygon class="fil2" points="5330.32,2545.83 5460.83,2545.96 5461.08,2857.62 5565.12,2858.85 5565.75,2546.03 5695.76,2545.93 5696.53,2434.84 5330.38,2434.66 "/>
   <path class="fil0" d="M7727.08 1048.16l413.31 -0.03c-10.09,-193.1 -400.41,-176.63 -413.31,0.03z"/>
   <path class="fil0" d="M2806.74 2538.84c-29.82,7.38 -57.92,21.64 -70.07,43.12 -8.27,14.62 -5.28,89 -4.21,110.96 2.63,53.87 96.65,79.53 156.82,59.2 134.1,-45.29 82.35,-254.13 -82.54,-213.28z"/>
   <path class="fil0" d="M6879.61 2537.86c-148.4,34.89 -99.34,252.63 57.46,218.38 55.81,-12.18 104.83,-65.86 86.79,-137.74 -13.73,-54.74 -72.66,-97.46 -144.25,-80.64z"/>
   <path class="fil0" d="M1757.45 2747.64l159.39 0.08 0.92 -201.78 -107.86 0.07c-14.11,139.05 -46.35,170.03 -52.45,201.63z"/>
   <path class="fil0" d="M5891.03 2680.91c-94.29,19.04 -45.23,116.16 65.37,87.69 15.36,-3.95 33.58,-12.95 41.22,-21.72 10.15,-11.65 10.27,-39.56 -0.05,-49 -20.9,-19.11 -73.39,-23.67 -106.54,-16.97z"/>
   <path class="fil0" d="M3387.48 2702.26c-26.06,-18.5 -57.12,-28.13 -101.26,-23.42 -93.28,9.96 -77.77,107.18 39.75,92.45 18.38,-2.31 33.67,-8.89 46.47,-16.63 19.44,-11.76 17.86,-23.42 15.04,-52.4z"/>
   <path class="fil0" d="M2237.86 2598.39l204.48 0.08c-7.57,-46.8 -46.3,-69.27 -99.93,-69.04 -50.08,0.22 -98.78,24.82 -104.55,68.96z"/>
   <path class="fil0" d="M7829.7 2628.83l0.15 -87.84c-51.14,-5.58 -118.78,-9.42 -119.95,43.99 -1.19,54.07 73.09,49.58 119.8,43.85z"/>
   <path class="fil0" d="M9070.72 2629.71l0.22 -89.44c-48.73,-0.98 -118.51,-11.52 -119.68,44.49 -1.19,57.06 69.23,45.86 119.46,44.95z"/>
   <path class="fil0" d="M7311.61 2761.61c45.03,0.69 132.89,16.07 135.31,-34.34 2.65,-55.16 -89.25,-39.54 -135.32,-38.61l0.01 72.95z"/>
   <path class="fil0" d="M7311.42 2603.34c42.69,0.82 114.94,12.73 114.17,-35.94 -0.75,-47.63 -71.43,-36.03 -114.02,-35.31l-0.15 71.25z"/>
  </g>
 </g>
</svg>
