<?xml version="1.0" encoding="UTF-8"?>
<!DOCTYPE svg PUBLIC "-//W3C//DTD SVG 1.1//EN" "http://www.w3.org/Graphics/SVG/1.1/DTD/svg11.dtd">
<!-- Creator: CorelDRAW 2020 (64-Bit) -->
<svg xmlns="http://www.w3.org/2000/svg" xml:space="preserve" width="283mm" height="53mm" version="1.1" style="shape-rendering:geometricPrecision; text-rendering:geometricPrecision; image-rendering:optimizeQuality; fill-rule:evenodd; clip-rule:evenodd"
viewBox="0 0 28300 5300"
 xmlns:xlink="http://www.w3.org/1999/xlink"
 xmlns:xodm="http://www.corel.com/coreldraw/odm/2003">
 <defs>
  <style type="text/css">
   <![CDATA[
    .fil0 {fill:#104788}
    .fil1 {fill:#F5A509}
   ]]>
  </style>
 </defs>
 <g id="Слой_x0020_1">
  <metadata id="CorelCorpID_0Corel-Layer"/>
  <g id="_1791204298752">
   <path class="fil0" d="M711.18 1521.47c0,21.65 14.25,21.27 32.64,32.06 91.4,53.68 607.38,363.31 643.08,363.31 29.46,0 142.1,-175.2 164.26,-202.35 10.42,-12.76 15.56,-16.42 26.76,-30.75 45.6,-58.34 161.42,-165.08 224.38,-206.92 27.98,-18.62 48.95,-32.85 77.61,-51.79 208.67,-137.86 515.83,-219.85 764.97,-219.85 388.11,0 748.04,160.8 1022.75,422.15 19.4,18.46 24.24,26.32 40.08,46.17 40.55,50.79 60.5,61.15 123.25,149.92 45.88,64.87 98.16,150.05 130.46,228.97 34.82,85.11 69.69,169.67 90.67,268.75 91.16,430.31 12.02,803.94 -219.6,1149.93 -146.4,218.7 -353.5,375.73 -586.08,492.18 -157.83,79.03 -381.47,131.71 -608.71,131.71 -301.85,0 -563.14,-109.63 -753.44,-224.2 -91.45,-55.06 -240.49,-161.49 -303.29,-243.04 -39.94,-51.85 -173.65,-230.75 -194.07,-244.42l-426.6 241.94c-46.52,25.43 -242.03,133.93 -256.31,153.43 23.04,98.9 233.29,335.95 311.22,429.18 90.49,108.25 288.17,253.58 407.55,332.87 300.93,199.86 763.17,359.35 1128.67,359.35 347.51,0 533.03,-17.81 858.12,-133.89 66.84,-23.87 133.38,-48.83 193.86,-79.31 62.81,-31.67 114.22,-58.19 174.79,-91.18l245.88 -163.86c77.75,-58.17 149.6,-122.46 218.45,-191.31l93.78 -100.3c176.45,-209.86 222.51,-271.63 354.99,-536.39 39.59,-79.13 86.83,-208.71 111.65,-298.08 4.44,-15.95 10.09,-29.6 15.44,-49.27 174.92,-643.69 52.94,-1381.99 -334.34,-1906.44 -138.85,-188.04 -283.35,-344.15 -470.19,-485.88 -137.32,-104.16 -268.12,-182.92 -424.8,-258.11 -31.32,-15.04 -63.74,-29.34 -94.82,-41.76l-201.51 -71.66c-232.45,-71.86 -419.94,-92.56 -683.79,-92.56 -484.37,0 -860.9,163.13 -1164.21,345.37 -96.93,58.24 -180,129.9 -267.37,199.88 -18.76,15.03 -29.43,30.3 -48.18,45.28 -47.56,37.97 -165.96,162.81 -208.48,215.64 -42.31,52.55 -209.52,246.98 -209.52,315.23z"/>
   <path class="fil0" d="M25044.26 3778.67c0,16.56 5,21.56 21.56,21.56l596.64 0c0,-179.67 -8.99,-320.44 -14.14,-496.24l-24.83 -485.55c-8.23,-54.4 -6.57,-144.34 -10.97,-197.5 -5.24,-63.36 4.5,-137.16 -0.75,-200.53 -14.38,-173.79 -6.01,-218.21 7.56,-381.36l554.43 1659.63c16.1,48.29 23.03,101.55 49.41,101.55l503.19 0c25.43,0 33.64,-49.89 47.2,-96.58 8.05,-27.73 10.64,-30.49 18.37,-53.52 6.21,-18.54 10.55,-39.03 17.9,-61.16l513.18 -1549.92c12.12,8.42 14.38,1.03 14.38,21.56l-1.96 379.03c-6.68,48.66 -5.22,262.04 -15.46,329.6 -8.39,55.51 0.1,115.89 -8.3,171.4 -7.32,48.36 -4.06,117.76 -9.18,163.36 -2.93,26.1 -0.78,58.61 -0.8,85.45 -0.03,41.59 -6.57,48.96 -7.67,85.78l-6.95 525 611.02 0 0 -2300.32 -970.45 -7.19c-49.97,0 -113.79,289.26 -129.39,345.05l-212.55 736.34c-18.02,63.73 -34.55,123.9 -52.57,184.64 -18.49,62.38 -26.03,126.21 -65.55,171.67l-169.94 -527.35c-75.15,-255.18 -214.1,-669.41 -268.56,-903.16 -130.4,0 -235.78,-7.19 -366.62,-7.19l-618.2 0 0 2285.95z"/>
   <path class="fil0" d="M23779.08 3289.84c-151.66,0 -385.3,17.14 -457.89,-117.18 -54.56,-100.95 -52.49,-254.82 -52.49,-378.82 0,-166.97 -19.27,-570.64 54.24,-678.98 79.49,-117.16 299.8,-104.56 448.95,-104.56 310.38,0 359.5,112.04 359.43,395.36l8.4 365.73c5.58,47.99 -1.81,59.13 -1.29,115.82 0.71,77.94 -12.32,158.93 -32.95,218.66 -46.89,135.69 -148.59,183.97 -326.4,183.97zm-1150.16 -869.8c0,92.14 -6.49,310.15 1.97,371.84 11.09,80.95 -3.09,187.46 6.25,274.1 18.28,169.82 47.93,289.28 133.18,427.52 135.33,219.48 432.35,342.67 785.91,342.67 219.15,0 391.07,0.26 603.38,-43.6 270.16,-55.8 462.71,-182.72 551.45,-447.74 81.81,-244.32 60.03,-696.84 60.03,-975.11 0,-330.71 -71.96,-564.14 -257.58,-712.87 -42.25,-33.84 -100.5,-65.94 -156.2,-88.21 -31.88,-12.75 -60.45,-21.79 -90.29,-31.91 -270.13,-91.65 -729,-86.63 -1005.05,-29.16 -516.96,107.63 -633.05,409.78 -633.05,912.47z"/>
   <path class="fil0" d="M16252.71 3016.68c0,141.05 -34.3,294.73 -172.52,294.73l-172.4 -7.57c-40.4,-0.61 -65.54,-9.85 -72.1,21.85 -2.42,11.66 0.09,76.47 0.1,93.55 0.03,124.6 0,249.2 0,373.8 52.56,4.37 88.93,35.95 258.78,35.95 87.56,0 187.92,-11.55 258.96,-28.59 81.96,-19.65 142.41,-47.69 204.15,-90.58 43.32,-30.09 76.8,-64.6 110.35,-105.3 159.67,-193.69 180.25,-518.67 181.38,-767.59 0.26,-56.56 -7.65,-81.66 -7.33,-136.44l-7.09 -553.62c0,-47.81 7.18,-62.22 7.18,-107.82 36.45,0 39.17,-7.19 79.08,-7.19l575.08 0 0 927.32c0,288.24 7.19,552.97 7.19,841.05l611.02 0 7.19 -2307.51 -1869.02 0 0 1523.96z"/>
   <path class="fil0" d="M20486.74 3793.04l618.22 7.19 0 -898.57c237.21,0 176.69,-18.44 240.05,76.25l354.55 508.08c22.1,29.42 38.98,54.6 60.56,83.19 200.82,266.09 148.25,231.05 344.03,231.05 191.7,0 383.39,0 575.09,0 -9.82,-42.14 -69.98,-115.82 -97.6,-154.01 -20.76,-28.72 -32.98,-47.66 -55.07,-74.31 -20.56,-24.81 -34.64,-49.42 -54.81,-74.59l-441.53 -579.23c-41.95,-55.88 -193.44,-255.41 -206.43,-311.15l493.99 -692.12c35.46,-47.41 63.43,-90.19 98.52,-138.7 15.45,-21.37 191.22,-257.14 198.23,-283.4l-733.22 0c-19.93,37.66 -48.13,72.17 -71.89,107.82 -25.4,38.13 -47.9,72.22 -76.04,110.87 -14.11,19.39 -21.28,31.54 -34.62,51.64l-375.06 545.08c-44.78,62.66 -8.05,47.21 -211.57,47.21l-7.18 -862.62 -618.22 0 0 2300.32z"/>
   <path class="fil0" d="M6612.93 2197.2l0 64.69 632.59 0c0,-73.82 35.9,-184.04 99.36,-231.32 60.06,-44.75 202.31,-63.31 273.39,-55.18 124.16,14.22 176.24,4.54 268.64,62.05 114.29,71.16 120.6,174.52 120.6,289.15 0,41.2 -11.48,51.41 -14.38,86.26l-517.99 -0.42c-30.53,-0.49 -57.09,-7.11 -57.09,21.99l0 409.74 575.08 0c5.21,62.59 14.38,40.82 14.38,150.96 0,108.5 -54.2,207.89 -117.88,255.91 -99.28,74.86 -224.4,74.76 -363.76,74.76 -244.59,0 -280.35,-132.06 -280.35,-359.43l-632.59 0c0,52.06 -7.18,72 -7.18,122.21 0,232.08 47.35,433.38 217.28,573.46 232.02,191.27 630.86,166.96 947.26,166.96 143.77,0 285.99,-20.46 401.13,-51.75 543.71,-147.74 468.68,-740.6 468.68,-1314.07 0,-332.84 -28.02,-719.11 -345.04,-877.01 -227.47,-113.28 -467.68,-115.01 -733.24,-115.01 -261.81,0 -493.56,75.51 -649.91,183.96 -75.28,52.23 -154.67,134.87 -202.6,214.33 -46.8,77.57 -96.38,207.62 -96.38,327.76z"/>
   <path class="fil0" d="M9934.02 2657.26l-201.28 0c-74.51,0 -120.55,-7.19 -194.09,-7.19l0 -646.96c140.1,0 511.22,-40.61 619.63,48.91 94.54,78.06 96.79,461.2 11.61,546.37 -49.4,49.39 -162.12,58.87 -235.87,58.87zm-1013.57 1135.78c45.6,0 60.02,7.19 107.82,7.19l503.2 0 7.18 -632.59c41.56,0 65.89,-6.6 115.26,-6.94 43.04,-0.31 70.21,-7.43 121.96,-7.43 284.86,0 627.02,40.42 816.59,-74.79 97.03,-58.99 156.31,-140.42 201.22,-251.66 55.44,-137.33 65.52,-326.73 74.94,-485.87l-24.63 -320.5c-77.01,-468.69 -405.84,-527.73 -838.08,-527.73l-1085.46 0 0 2300.32z"/>
   <path class="fil0" d="M13981.15 3253.9l0 539.14 1682.11 7.19 0 -488.82c0,-16.56 -5,-21.57 -21.56,-21.57l-1042.34 0 0 -438.49 956.08 0c16.56,0 21.56,-5 21.56,-21.56l0 -409.75 -977.64 -7.19 0 -409.74c119.17,0 216.27,-6.62 337.91,-7.24 61.98,-0.32 99.41,7.32 165.28,7.24l431.32 0c47.81,0 62.23,-7.2 107.83,-7.2l0 -496 -488.83 -14.38c-141.94,0 -757.61,-6.58 -870.85,6.14 -70.15,7.87 -222.73,-7.59 -286.35,8.37 -35.29,8.86 -21.72,26.83 -21.7,122.08l7.18 1631.78z"/>
   <path class="fil0" d="M18459.59 1499.91l0 2293.13 1682.11 7.19 0 -510.39 -1063.9 0 0 -438.49 977.64 0 0 -431.31c-149.46,0 -274.3,-7.19 -424.12,-7.19l-553.52 0 0 -409.74 992.01 0c24.78,0 27.84,-5.32 50.32,-7.2 0,-83.86 0,-167.72 0,-251.59 0,-91.02 7.19,-154.85 7.19,-244.41l-445.69 -14.38c-153.32,0 -841.75,-7.62 -964.31,6.14l-257.73 8.24z"/>
   <path class="fil0" d="M11910.86 1801.83c0,50.74 5.28,82.52 7.18,122.21 1.78,37.18 -6.69,107.82 28.76,107.82l589.46 0 0 1761.18 618.21 7.19 0 -1768.37 611.02 0c4.13,-49.56 14.39,-84.16 14.39,-143.77l0 -316.29c0,-39.92 -7.19,-42.63 -7.19,-79.08l-1854.63 0c0,112.28 -7.2,198.45 -7.2,309.11z"/>
   <path class="fil1" d="M560.22 3476.75c708.6,-408.76 708.14,-409.62 1416.13,-819.49 -708,-413.44 -707.66,-414.12 -1416.13,-826.68 -248.48,371.06 -206.14,1256.53 0,1646.17z"/>
   <path class="fil0" d="M1990.73 2635.7c0,135.18 40.77,268.21 109.08,372.55 24.18,36.94 47.18,57.16 73.6,91.72l83.12 75.03c418.27,320.84 1042.5,7.71 1042.5,-510.56 0,-98.03 -22.32,-200.5 -55.06,-268.41 -9.41,-19.54 -15.45,-35.35 -25.4,-53.68 -65.26,-120.08 -165.08,-218.19 -286.56,-281.32 -250.72,-130.33 -547.79,-50.33 -741.75,120.03 -14.36,12.61 -26.16,25.02 -38.36,40.72 -96.12,123.85 -161.17,219.76 -161.17,413.92z"/>
   <path class="fil1" d="M11141.69 2642.88c0,82.84 42.38,174.44 84.31,217.61 203.51,209.54 519.52,53.21 519.52,-181.66l0 -35.95c0,-150.2 -118.78,-294.73 -265.97,-294.73 -189.68,0 -337.86,115.23 -337.86,294.73z"/>
  </g>
 </g>
</svg>
