<?xml version="1.0" encoding="UTF-8"?>
<!DOCTYPE svg PUBLIC "-//W3C//DTD SVG 1.1//EN" "http://www.w3.org/Graphics/SVG/1.1/DTD/svg11.dtd">
<!-- Creator: CorelDRAW 2020 (64-Bit) -->
<svg xmlns="http://www.w3.org/2000/svg" xml:space="preserve" width="131mm" height="51mm" version="1.1" style="shape-rendering:geometricPrecision; text-rendering:geometricPrecision; image-rendering:optimizeQuality; fill-rule:evenodd; clip-rule:evenodd"
viewBox="0 0 13100 5100"
 xmlns:xlink="http://www.w3.org/1999/xlink"
 xmlns:xodm="http://www.corel.com/coreldraw/odm/2003">
 <defs>
  <style type="text/css">
   <![CDATA[
    .fil0 {fill:#6A6AAA}
   ]]>
  </style>
 </defs>
 <g id="Слой_x0020_1">
  <metadata id="CorelCorpID_0Corel-Layer"/>
  <path class="fil0" d="M10192.5 3126.68l310.28 1.2 4.47 907.41 273.19 0 9.3 -907.11 320.4 -1.93 1.75 -248.01 -918.97 0 -0.42 248.44zm1322.97 504.75c179.64,0.03 333,7.88 452.51,-97.16 93.56,-82.24 157.39,-237.85 99.14,-413.42 -99.63,-300.27 -481.62,-249.66 -835.88,-242.61l5.47 1157.05 273.75 0 5.01 -403.86zm3.32 -520.43c143.8,-9.96 297.67,-6.78 292.43,153 -4.55,138.28 -144.41,142.86 -295.56,139.89l3.13 -292.89zm-3229.37 -7.92l496.64 2.86 1.23 -227.7 -775.3 0 3.38 1157.05 771.12 0 0.15 -233.32 -502.15 0.83 0.97 -263.17 464.31 0 -0.05 -226.16 -464.91 0 4.61 -210.39zm-761.41 -1128.75l2.12 -306.11c-136.35,79.97 -207.9,177.57 -427.11,133.37 -144.48,-29.14 -261.77,-143.06 -264.12,-318.64 -2.39,-178.24 104.18,-296.14 253,-332.82 227.77,-56.15 315.41,66.98 432.76,127.37l4.98 -300.74c-428.69,-264.52 -993.39,-29.78 -998.79,485.72 -2.92,278.96 138.14,458.99 308.39,544.97 255.34,128.94 475.75,82.4 688.77,-33.12zm1766.19 1577.33l488.86 -0.75 2.73 484.38 280.24 0 4.25 -1157.05c-96.26,0 -200.01,0 -285.92,0l-0.25 416.46 -491.11 -5.74 0.08 -410.72 -283.48 0 1.81 1157.05 279.84 0 2.95 -483.63zm1504.51 -2036.67l-4.28 -619.44 -265.48 0 -2.63 1203.89c48.98,-19.83 65.58,-35.19 102.19,-67.38 87.4,-76.81 607.87,-551.15 689.9,-594.14l2.09 610.42 274.44 6.34 2.56 -1200.19c-71.58,19.59 -345.42,277.5 -402.04,326.29 -106.48,91.76 -329.76,305.51 -396.75,334.21zm-2644.19 -625.99c-768.11,181.92 -542.43,1361.64 306.55,1185.91 312.73,-64.73 540.09,-358.3 458.17,-749.69 -66.1,-315.78 -396.79,-523.36 -764.72,-436.22zm40.45 263.7c442.26,-168.78 603.7,505.59 235.49,646 -429.11,163.64 -623.65,-497.86 -235.49,-646zm917.72 899.9l965.93 -0.01 0 220.51 272.61 0 0.24 -471.41 -178.12 0 0 -906.14 -284.47 0 0 906.14 -494.43 0 0 -906.14 -281.76 0 0 1157.05zm-2517.34 1982.69l965.92 -0.01 0 220.51 272.61 0 0.24 -471.41 -178.12 0 0 -906.14 -284.47 0 0 906.14 -494.42 0 0 -906.14 -281.76 0 0 1157.05zm5643.26 -3146.29c-768.11,181.92 -542.42,1361.64 306.55,1185.91 312.73,-64.73 540.1,-358.3 458.18,-749.69 -66.1,-315.78 -396.79,-523.36 -764.73,-436.22zm40.45 263.7c442.27,-168.78 603.71,505.59 235.5,646 -429.11,163.64 -623.65,-497.86 -235.5,-646zm-12198.47 956.58c-0.06,17.8 0.25,35.74 0.95,53.83 42.55,1098.67 1125.52,2220.31 2529.75,2201.37 868.22,-11.7 1501.84,-307.88 1852.58,-797.26l-794.43 -741.78c-248.46,318.45 -624.67,499.09 -1012.42,506.05 -677.19,12.16 -1353.35,-626.98 -1329.03,-1434.65 24.32,-807.67 439.07,-1458.96 1310.79,-1495.44 448.22,-18.75 782.66,144.33 1003.48,426.91l753.21 -771.38c709.48,496.84 1173.39,1320.39 1173.39,2252.28 0,1517.53 -1230.19,2747.72 -2747.72,2747.72 -1517.52,0 -2747.72,-1230.19 -2747.72,-2747.72 0,-67.23 2.42,-133.9 7.17,-199.93z"/>
 </g>
</svg>
